<svg width="466" height="511" viewBox="0 0 466 511" fill="none" xmlns="http://www.w3.org/2000/svg">
<path d="M269.075 11L270.489 13.5859L273.075 15L270.489 16.4141L269.075 19L267.661 16.4141L265.075 15L267.661 13.5859L269.075 11Z" fill="#F8EBE5"/>
<path d="M253.628 217.839C242.025 210.104 226.773 208.575 210.634 217.479C192.837 227.309 179.757 237.345 158.337 233.451C124.685 227.335 97.444 208.254 61.8514 210.078C43.1042 211.042 23.7145 217.621 11.7261 232.192C2.2433 243.705 -1.70145 259.522 0.675681 274.299C3.05281 289.076 11.5462 302.645 23.419 311.627C32.5035 318.501 43.7724 322.805 55.1183 322.291C65.4363 321.816 75.1376 317.512 84.7746 313.734C107.98 304.636 134 298.366 157.54 306.564C171.906 311.562 183.933 321.777 199.198 323.962C214.27 326.121 230.088 323.101 243.181 315.237C260.168 305.048 273.069 286.429 274.842 266.474C276.641 246.159 267.878 227.335 253.628 217.839Z" fill="#FDECD0"/>
<path d="M211.624 342.94C201.949 347.091 190.538 352.68 186.17 362.947C183.818 368.472 184.255 374.563 186.851 379.921C189.742 385.896 194.881 390.367 200.497 393.721C206.831 397.499 213.796 400.248 220.516 403.268C227.866 406.57 235.203 409.86 242.552 413.162C248.527 415.848 254.798 418.636 258.871 423.994C261.955 428.054 263.767 432.924 265.45 437.679C268.495 446.249 271.489 456.631 280.625 460.563C285.765 462.773 291.714 462.092 296.507 459.343C301.711 456.362 305.052 451.093 305.925 445.195C306.825 439.143 305.257 432.95 301.711 427.977C298.421 423.352 293.873 419.908 289.144 416.876C284.171 413.702 278.942 410.939 274.175 407.444C268.945 403.602 264.55 398.668 261.3 393.053C257.766 386.962 256.173 380.46 254.901 373.599C253.744 367.341 252.048 361.443 248.129 356.329C241.55 347.733 230.757 342.375 219.912 342.516C217.201 342.555 214.489 342.953 211.881 343.686C210.249 344.148 210.943 346.692 212.588 346.243C222.803 343.39 234.072 346.538 241.936 353.528C245.88 357.036 248.926 361.469 250.532 366.506C252.626 373.059 252.935 380.011 255.325 386.5C259.462 397.781 267.377 406.493 277.451 412.841C286.484 418.533 298.139 423.634 302.186 434.351C304.319 440.004 304.024 446.647 300.747 451.8C297.805 456.426 292.331 459.33 286.857 459.24C276.475 459.073 272.144 448.665 269.202 440.364C267.609 435.88 266.118 431.318 263.908 427.078C261.454 422.375 258.023 418.584 253.526 415.745C247.731 412.083 241.113 409.616 234.894 406.827C227.943 403.705 220.978 400.583 214.027 397.447C203.002 392.487 188.174 385.716 187.262 371.736C186.542 360.505 196.757 353.207 205.623 348.633C208.026 347.399 210.48 346.281 212.96 345.215C214.515 344.547 213.166 342.272 211.624 342.94Z" fill="#A3DB7A"/>
<path d="M207.036 159.529C205.095 154.775 206.085 149.519 208.937 145.331C211.995 140.859 217.148 138.328 222.339 137.3C234.019 134.987 245.995 141.527 257.405 136.811C267.427 132.661 273.235 122.819 277.977 113.644C282.962 104.007 288.153 93.2394 298.985 89.1276C303.457 87.4315 308.481 87.303 312.593 89.9885C316.512 92.5327 318.696 97.1713 319.223 101.707C320.482 112.642 312.49 121.739 304.729 128.318C300.193 132.16 295.336 135.616 290.903 139.574C286.74 143.288 283.168 147.515 279.789 151.935C273.03 160.75 266.875 170.451 257.508 176.76C248.68 182.709 237.36 185.883 226.862 183.018C217.636 180.486 209.593 172.931 207.215 163.564C206.637 161.264 206.457 158.925 206.612 156.561C206.74 154.749 203.913 154.749 203.785 156.561C203.091 166.866 209.143 176.465 217.636 181.925C227.042 187.99 238.966 188.093 249.233 184.2C260.386 179.972 268.404 171.697 275.471 162.382C279.172 157.499 282.68 152.449 286.727 147.823C290.89 143.056 295.722 139.086 300.682 135.192C309.625 128.164 319.75 119.927 321.832 108.016C323.476 98.6232 318.876 87.4186 308.725 85.3884C297.945 83.2426 288.051 91.3377 282.487 99.7411C275.78 109.879 272.195 122.292 262.635 130.335C257.829 134.383 252.137 136.053 245.892 135.758C239.352 135.449 232.927 133.625 226.348 133.985C215.413 134.589 204.401 141.116 203.245 152.886C203.001 155.392 203.361 157.936 204.312 160.274C204.98 161.932 207.717 161.212 207.036 159.529Z" fill="#A3DB7A"/>
<path d="M23.6501 129.346C16.4802 132.751 10.441 139.458 10.7109 147.81C10.9678 155.713 17.3925 161.431 24.768 163.127C30.8072 164.514 38.0671 163.435 42.4873 158.758C47.627 153.323 47.1002 144.624 43.1683 138.662C38.8123 132.057 30.9357 128.164 23.0462 129.371C21.2602 129.641 22.0183 132.365 23.7915 132.096C29.5865 131.209 35.4587 133.882 39.2749 138.199C43.3353 142.786 45.1342 150.226 41.4465 155.597C34.8291 165.208 16.069 161.135 13.7561 149.905C12.0857 141.771 18.2277 135.038 25.0636 131.8C26.7211 131.003 25.282 128.562 23.6501 129.346Z" fill="#A3DB7A"/>
<path d="M164.068 403.294C164.788 400.955 165.713 398.681 166.24 396.278C167.486 390.56 167.589 384.971 164.891 379.6C165.61 379.265 166.317 378.931 167.036 378.61C170.185 377.235 173.281 377.942 175.71 380.383C178.164 382.863 179.166 385.806 178.832 389.237C178.575 391.858 178.357 394.479 178.048 397.1C177.38 402.6 177.277 408.112 177.496 413.637C177.547 415.038 177.367 416.439 177.277 417.839C177.226 418.546 177.033 419.214 176.699 419.844C175.581 421.9 173.808 422.362 171.919 420.987C169.452 419.188 168.193 416.618 167.525 413.714C166.895 410.978 166.317 408.228 165.327 405.581C165.006 404.746 164.646 403.962 164.068 403.294Z" fill="#718463"/>
<path d="M226.799 145.446C224.935 143.609 222.545 142.298 219.719 141.347C214.283 139.523 208.193 139.6 202.873 141.797C194.482 145.253 188.7 153.169 180.657 157.383C172.793 161.508 163.169 161.893 155.973 167.084C151.707 170.168 148.469 174.82 143.548 176.696C140.245 177.955 136.571 177.762 133.075 177.184C123.464 175.578 113.724 170.335 110.062 161.315C107.557 155.16 108.109 147.875 104.563 142.247C102.34 138.7 98.6264 136.079 97.1745 132.147C95.1186 126.583 98.2281 120.608 99.3588 114.775C100.669 108.055 99.1661 100.795 95.08 95.2952C90.9939 89.7957 84.3508 86.2364 77.5021 86.1593C77.5021 86.1593 72.568 85.6325 64.9997 89.7957C55.6197 96.2717 52.4459 109.16 54.4376 120.39C56.4292 131.62 62.6097 141.591 68.8288 151.151C75.0479 160.711 81.524 170.425 84.2095 181.501C84.6464 183.275 84.9547 185.202 84.2737 186.898C83.5028 188.8 81.6396 189.995 80.0206 191.241C65.655 202.33 65.0768 223.93 54.4119 238.604C50.9554 243.358 46.4838 247.316 43.0145 252.057C38.7871 257.839 36.3971 265.266 39.648 272.076C42.3206 277.666 48.3341 281.649 54.5661 281.572C54.8102 281.572 55.0672 281.559 55.3113 281.546C57.8683 281.379 60.374 280.608 62.931 280.57C65.5008 280.531 68.0193 281.212 70.4864 281.893C80.5474 284.669 90.6341 287.444 100.335 291.312C110.474 295.346 120.175 300.55 130.711 303.416C141.235 306.268 153.082 306.525 162.462 300.962C170.544 296.169 175.902 287.418 177.56 278.167C179.217 268.915 177.406 259.24 173.499 250.695C170.673 244.489 166.754 238.771 164.685 232.269C162.616 225.78 162.745 217.968 167.358 212.944C169.992 210.065 173.705 208.498 177.097 206.57C182.109 203.744 186.606 200.004 190.332 195.61C192.337 193.233 194.136 190.65 196.474 188.581C200.817 184.752 206.587 183.082 211.675 180.332C217.688 177.081 222.815 172.25 226.452 166.455C229.998 160.788 232.812 153.875 228.726 147.72C228.161 146.911 227.518 146.14 226.799 145.446Z" fill="#718463"/>
<path d="M164.068 403.294C163.631 403.949 163.182 404.592 162.783 405.26C158.132 412.944 149.78 416.284 141.068 413.959C139.282 413.483 137.444 412.969 135.941 411.993C132.999 410.078 130.146 410.541 127.191 411.736C124.325 412.481 121.46 413.252 118.582 413.946C117.618 414.177 117.309 414.755 117.322 415.629C117.412 419.959 115.935 423.84 113.789 427.515C113.712 427.566 113.622 427.592 113.57 427.669C107.39 436.933 94.5276 435.584 87.6018 429.108C85.4817 427.129 83.5414 424.971 81.4984 422.915C80.0079 421.424 78.5302 419.908 76.9754 418.494C73.3134 415.192 69.4329 412.263 64.8842 410.155C56.7506 406.378 48.8225 402.214 41.3828 397.177C35.8704 393.451 31.1804 388.877 27.3513 383.416C21.7875 375.475 20.7082 366.776 23.0211 357.524C24.4988 351.652 27.1329 346.32 30.5251 341.36C33.5961 336.863 36.6028 332.314 39.9308 328.009C46.7024 319.285 52.1762 309.789 57.0076 299.908C59.9758 293.83 63.0596 287.817 66.4904 281.983C66.7988 281.456 67.0301 280.891 67.2999 280.338C69.5357 277.267 71.1547 273.875 72.6709 270.406C74.1486 267.039 75.5106 263.596 77.9905 260.769C78.7486 261.373 79.5068 261.964 80.252 262.568C85.9314 267.219 92.1634 270.984 99.2048 273.104C109.112 276.085 119.121 278.694 129.478 279.606C130.596 279.709 131.791 279.58 132.703 280.467C132.703 280.814 132.639 281.174 132.703 281.508C134.065 289.037 135.504 296.567 136.147 304.2C136.558 314.71 133.782 324.553 129.85 334.139C128.347 337.788 126.51 341.296 124.929 344.919C123.143 349.005 122.513 353.194 123.207 357.537C124.184 363.756 124.428 369.95 123.31 376.169C123.04 377.698 123.194 377.698 124.826 377.646C131.816 377.389 138.614 376.169 145.218 373.83C147.223 373.124 149.317 372.892 151.437 372.764C156.706 372.442 160.83 374.473 164.017 378.61C164.287 378.957 164.595 379.253 164.891 379.574C167.589 384.958 167.486 390.547 166.24 396.252C165.713 398.681 164.788 400.955 164.068 403.294ZM77.9134 349.494C76.0888 351.254 74.7911 352.539 73.4547 353.785C72.1698 354.98 70.8206 356.098 69.5742 357.332C67.4541 359.426 67.4798 361.867 69.5357 363.911C71.3988 365.761 73.2491 367.637 75.1251 369.474C76.8598 371.183 77.1939 371.119 78.1062 368.896C78.2732 368.511 78.4017 368.048 78.3632 367.637C77.8492 361.829 77.4766 355.995 77.9134 349.494Z" fill="#E17C37"/>
<path d="M146.22 165.555C146.015 164.682 145.437 163.936 144.576 163.744C144.396 163.705 144.203 163.692 144.023 163.744C143.753 163.834 143.573 164.078 143.419 164.322C142.815 165.247 142.378 166.326 141.518 167.007C140.657 167.688 139.14 167.727 138.639 166.75C138.524 166.532 138.434 166.236 138.19 166.185C137.997 166.146 137.83 166.288 137.688 166.416C134.476 169.307 130.904 171.8 127.088 173.83C126.946 173.907 126.792 173.997 126.792 174.164C126.792 174.306 126.908 174.409 126.985 174.511C127.46 175.09 127.216 175.963 126.921 176.644C126.06 178.662 124.749 180.82 122.591 181.257C122.256 181.322 121.897 181.347 121.614 181.553C121.331 181.758 121.19 182.105 121.087 182.427C119.905 186.089 121.254 190.303 123.978 192.937C125.456 194.364 127.525 195.263 129.568 194.993C130.865 194.826 132.073 194.197 133.114 193.387C135.761 191.305 139.603 187.335 137.213 185.125C133.281 181.476 135.89 172.751 140.592 170.387C141.158 170.104 141.8 170.027 142.417 169.898C143.908 169.577 145.411 168.806 146.066 167.419C146.323 166.853 146.375 166.172 146.22 165.555Z" fill="#D77062"/>
<path d="M113.776 427.528C115.922 423.853 117.387 419.985 117.31 415.642C117.297 414.755 117.605 414.19 118.569 413.959C121.447 413.265 124.313 412.481 127.178 411.749C129.825 413.792 130.468 416.683 130.313 419.741C130.172 422.709 129.722 425.664 129.273 428.62C128.797 431.806 128.926 435.083 128.887 438.321C128.861 440.415 129.041 442.523 129.08 444.63C129.105 446.056 128.874 447.431 127.988 448.626C126.895 450.104 125.392 450.399 123.863 449.359C121.537 447.778 120.278 445.401 119.777 442.805C118.787 437.64 117.246 432.783 114.008 428.555C113.828 428.286 113.853 427.874 113.776 427.528Z" fill="#718463"/>
<path d="M147.955 213.599C149.073 211.569 149.137 209.693 147.891 207.663C145.951 204.476 144.974 200.955 144.679 197.203C144.46 194.543 144.768 191.948 144.871 189.327C144.974 186.718 144.01 185.639 141.402 185.356C140.014 185.215 138.601 185.202 137.2 185.138C137.097 188.825 135.414 191.704 132.51 193.837C130.262 195.494 127.525 195.391 125.34 193.978C120.972 191.151 119.494 185.061 121.537 181.489C118.517 180.191 116.873 180.589 114.817 183.493C110.988 188.903 106.4 193.593 101.376 197.884C101.351 197.897 101.338 197.923 101.312 197.936C101.055 198.128 100.811 198.334 100.58 198.552C100.297 198.784 100.027 199.015 99.7573 199.246C99.7701 199.285 99.783 199.336 99.783 199.375C98.7679 200.557 98.0997 201.932 98.0098 203.332C97.4315 212.43 99.4874 222.311 94.8488 230.162C92.613 233.952 89.0666 236.741 85.7258 239.606C82.385 242.471 79.0698 245.645 77.5665 249.783C76.3586 253.098 76.6927 257.184 78.8 259.882C78.8386 260.461 78.9156 261.052 79.0313 261.643C79.4425 261.964 79.8536 262.298 80.2648 262.632C85.9442 267.284 92.1762 271.048 99.2176 273.169C109.124 276.15 119.134 278.758 129.491 279.67C130.609 279.773 131.804 279.645 132.716 280.531C134.63 279.58 135.864 278.026 136.622 276.098C138.292 271.884 139.179 267.515 138.806 262.966C138.228 255.86 138.19 248.78 138.935 241.688C139.449 236.792 140.181 231.986 141.8 227.284C143.432 222.491 145.539 217.981 147.955 213.599ZM86.394 249.706C85.8414 250.117 85.2504 250.541 84.6336 250.978C85.8928 249.808 87.2806 248.78 88.694 247.778C87.9744 248.446 87.2035 249.089 86.394 249.706Z" fill="#F8EBE5"/>
<path d="M142.327 163.435C140.49 171.8 134.772 177.685 129.594 176.503C122.18 174.82 121.666 167.65 123.503 159.298C125.341 150.933 131.046 145.086 136.237 146.23C141.428 147.361 144.165 155.07 142.327 163.435Z" fill="#D77062"/>
<path d="M129.683 150.11C127.769 149.494 125.841 148.89 123.927 148.234C114.624 145.099 108.302 139.124 106.76 129.153C105.642 121.958 107.48 115.507 113.365 110.702C116.577 108.08 120.278 106.911 124.441 107.759C132.896 109.494 135.093 116.445 134.232 122.24C133.821 125.016 132.87 127.688 131.803 130.297C131.534 130.952 131.251 131.543 131.379 132.301C132.292 137.814 134.322 142.594 139.577 145.395C140.965 146.14 142.301 147.001 143.432 148.132C144.768 149.468 145.398 151.074 144.961 152.924C144.666 154.171 144.768 155.302 145.051 156.535C145.655 159.054 144.627 161.367 143.792 163.679C143.124 164.797 142.558 166.005 141.543 166.866C140.323 167.92 139.449 167.817 138.472 166.506C137.496 165.183 137.136 163.679 137.342 162.048C137.65 159.645 138.626 157.55 140.13 155.661C141.453 153.991 141.402 153.837 139.462 152.886C136.365 151.408 132.998 150.843 129.683 150.11Z" fill="#212443"/>
<path d="M147.21 167.341C145.655 170.425 143.008 172.237 141.312 171.376C139.603 170.515 139.488 167.316 141.042 164.232C142.597 161.148 145.244 159.336 146.94 160.197C148.636 161.058 148.765 164.258 147.21 167.341Z" fill="#D77062"/>
<path d="M126.047 160.249C126.458 163.32 125.405 165.992 123.683 166.223C121.961 166.455 120.239 164.155 119.828 161.084C119.417 158.013 120.471 155.34 122.192 155.109C123.901 154.878 125.636 157.178 126.047 160.249Z" fill="#D77062"/>
<path d="M133.204 166.725C132.407 168.446 130.493 169.346 128.707 168.755C126.921 168.164 125.931 166.301 126.304 164.437L133.204 166.725Z" fill="white"/>
<path d="M235.266 139.356C234.405 138.212 229.69 142.311 229.69 142.311C229.69 142.311 235.51 136.58 235.009 135.604C234.226 134.062 227.724 140.679 227.724 140.679C227.724 140.679 234.624 133.291 233.082 132.186C231.54 131.081 225.539 139.163 225.539 139.163C225.539 139.163 230.718 131.209 229.24 130.502C227.762 129.783 221.479 140.294 221.479 140.294C221.479 140.294 220.554 134.164 219.295 134.28C217.175 134.46 218.588 147.553 218.588 147.553L224.152 152.141C224.152 152.153 236.127 140.499 235.266 139.356Z" fill="#D77062"/>
<path d="M59.3847 79.619C60.4384 78.6553 64.3317 83.5509 64.3317 83.5509C64.3317 83.5509 59.6674 76.8564 60.3356 75.9826C61.3892 74.6077 66.5675 82.3045 66.5675 82.3045C66.5675 82.3045 61.1451 73.7854 62.854 72.9759C64.563 72.1663 68.9832 81.2123 68.9832 81.2123C68.9832 81.2123 65.3597 72.449 66.9401 72.0122C68.5206 71.5753 72.7609 83.0626 72.7609 83.0626C72.7609 83.0626 74.7911 77.2161 76.0118 77.5502C78.0676 78.1156 74.2642 90.7336 74.2642 90.7336L67.9424 94.2286C67.9552 94.2286 58.3311 80.5827 59.3847 79.619Z" fill="#D77062"/>
<path d="M216.16 148.581C218.897 151.447 221.672 153.515 225.694 153.991C227.737 154.235 227.724 151.023 225.694 150.791C222.584 150.432 220.49 148.491 218.421 146.32C217.008 144.816 214.746 147.078 216.16 148.581Z" fill="white"/>
<path d="M77.5406 89.9627C72.4908 89.7057 67.955 91.9929 64.9354 95.9762C63.6891 97.6209 66.4645 99.2142 67.698 97.5952C70.0495 94.4985 73.6987 92.9694 77.5406 93.1622C79.6094 93.265 79.5965 90.0655 77.5406 89.9627Z" fill="white"/>
<path d="M118.157 176.079C112.542 187.194 103.393 195.944 92.0475 201.058C82.6675 205.285 70.4992 209.243 69.0343 221.103C68.9059 222.118 70.512 222.118 70.6405 221.103C72.2852 207.753 88.8737 205.221 98.4079 199.593C107.48 194.235 114.791 186.281 119.532 176.888C120.008 175.963 118.633 175.154 118.157 176.079Z" fill="white"/>
<path d="M68.9707 226.076C68.1997 228.8 67.1204 231.37 65.7069 233.824C65.193 234.723 66.5678 235.52 67.0947 234.633C68.5723 232.063 69.7159 229.352 70.5254 226.5C70.7953 225.51 69.2534 225.086 68.9707 226.076Z" fill="white"/>
<path d="M144.473 182.067C145.976 186.834 144.19 191.472 144.229 196.304C144.255 199.889 145.321 203.332 146.696 206.609C149.6 213.599 154.2 220.371 153.262 228.273C153.146 229.288 154.74 229.288 154.868 228.273C155.755 220.795 151.849 214.267 148.906 207.701C147.133 203.731 145.668 199.593 145.861 195.186C146.066 190.573 147.454 186.204 146.015 181.655C145.707 180.666 144.165 181.09 144.473 182.067Z" fill="white"/>
<path d="M154.894 237.447C154.714 239.529 154.984 241.559 155.69 243.525C156.037 244.489 157.579 244.078 157.232 243.101C156.577 241.264 156.333 239.4 156.5 237.447C156.59 236.419 154.984 236.419 154.894 237.447Z" fill="white"/>
<path d="M140.965 300.139C149.073 299.998 158.145 295.385 161.048 287.483C164.351 278.527 160.624 269.262 157.142 260.987C156.744 260.036 155.369 260.859 155.755 261.797C158.851 269.134 162.179 277.19 160.072 285.26C157.913 293.483 149.137 298.392 140.965 298.533C139.937 298.546 139.937 300.152 140.965 300.139Z" fill="white"/>
<path d="M62.6997 244.746C56.622 249.089 51.7264 255.95 50.9554 263.557C50.6213 266.782 51.4565 270.367 54.3348 272.243C57.894 274.556 62.4427 271.717 65.8478 274.119C66.6958 274.71 67.4925 273.323 66.6573 272.732C64.7299 271.37 62.7254 271.485 60.4511 271.627C58.241 271.768 55.9024 271.871 54.232 270.085C52.4845 268.234 52.2917 265.497 52.6258 263.12C53.6024 256.259 57.9454 250.104 63.4963 246.134C64.3444 245.542 63.5477 244.142 62.6997 244.746Z" fill="white"/>
<path d="M85.0962 188.042C97.5858 179.587 106.221 166.416 108.868 151.562C109.047 150.56 107.505 150.123 107.326 151.138C104.743 165.581 96.455 178.443 84.2867 186.667C83.4387 187.232 84.2353 188.62 85.0962 188.042Z" fill="white"/>
<path d="M157.04 165.324C155.395 174.73 155.973 184.071 158.556 193.246C160.471 200.069 162.758 207.804 169.362 211.492C170.262 211.993 171.071 210.618 170.172 210.104C163.657 206.468 161.563 198.347 159.777 191.627C157.515 183.12 157.066 174.421 158.582 165.748C158.749 164.733 157.207 164.309 157.04 165.324Z" fill="white"/>
<path d="M115.986 184.971C115.176 191.203 118.414 197.293 124.402 199.58C131.135 202.163 135.812 198.45 138.948 192.783C139.449 191.884 138.061 191.074 137.56 191.974C136.391 194.094 135.157 196.432 133.011 197.73C130.351 199.349 126.856 199.028 124.132 197.73C119.198 195.391 116.898 190.226 117.579 184.971C117.721 183.956 116.114 183.956 115.986 184.971Z" fill="#EAC2B0"/>
<path d="M79.2882 260.82C77.5279 255.552 84.6336 252.699 88.0258 250.22C90.8783 248.138 93.5767 245.838 96.0823 243.358C101.312 238.18 105.655 232.192 109.086 225.677C109.561 224.765 108.186 223.956 107.698 224.868C103.522 232.809 97.9583 239.914 91.1225 245.735C87.9615 248.433 84.4151 250.451 81.1385 252.956C78.453 254.999 76.5899 257.826 77.7335 261.244C78.0675 262.221 79.6223 261.797 79.2882 260.82Z" fill="#EAC2B0"/>
<path d="M110.628 215.321C110.654 216.888 110.23 218.315 109.356 219.612C108.778 220.473 110.165 221.27 110.743 220.422C111.771 218.906 112.273 217.145 112.234 215.321C112.208 214.293 110.602 214.293 110.628 215.321Z" fill="#EAC2B0"/>
<path d="M123.451 276.432C131.482 293.959 126.741 313.682 117.271 329.616C115.6 332.417 112.452 335.539 112.311 338.944C112.157 342.709 114.058 346.911 114.637 350.637C116.063 359.876 115.112 369.95 108.071 376.786C107.621 377.222 107.865 377.955 108.43 378.122C112.645 379.42 115.176 383.339 114.778 387.707C114.727 388.337 115.498 388.684 115.986 388.401C124.248 383.621 134.489 383.994 142.417 389.301C142.725 389.506 143.124 389.404 143.393 389.172C149.638 383.801 158.684 383.03 165.777 387.168C166.664 387.695 167.473 386.307 166.586 385.78C162.68 383.493 158.209 382.516 153.699 383.017C151.707 383.236 149.754 383.724 147.904 384.495C146.092 385.24 143.779 387.63 142.019 387.129C139.873 386.512 137.92 385.022 135.697 384.392C133.474 383.776 131.161 383.441 128.861 383.416C124.03 383.352 119.365 384.611 115.189 387.026C115.587 387.258 115.999 387.489 116.397 387.72C116.872 382.632 113.724 378.083 108.88 376.593C108.996 377.043 109.111 377.479 109.227 377.929C115.189 372.134 117.245 363.833 116.808 355.713C116.538 350.868 115.343 346.256 114.367 341.54C113.699 338.302 114.932 336.349 116.603 333.766C117.926 331.723 119.185 329.641 120.355 327.495C129.028 311.639 132.626 292.571 124.865 275.623C124.402 274.685 123.027 275.507 123.451 276.432Z" fill="#F8EBE5"/>
<path d="M78.5689 348.658C74.4956 343.943 70.3967 338.88 71.1163 332.25C71.2319 331.222 69.6257 331.235 69.5101 332.25C68.752 339.278 73.1079 344.778 77.4381 349.802C78.1191 350.573 79.2499 349.429 78.5689 348.658Z" fill="#CC5B1C"/>
<path d="M77.8366 348.915C76.1148 363.576 75.0997 378.636 84.3384 391.164C84.9423 391.986 86.33 391.19 85.7261 390.354C76.6545 378.058 77.7595 363.294 79.4428 348.915C79.5584 347.9 77.9523 347.9 77.8366 348.915Z" fill="#CC5B1C"/>
<path d="M93.7696 401.212C96.0311 403.833 98.3697 406.519 101.402 408.279C104.614 410.143 108.392 411.068 111.939 412.096C115.177 413.034 118.633 414.28 122.064 413.702C125.585 413.111 131.585 409.5 134.823 412.031C135.62 412.661 136.763 411.53 135.954 410.901C133.77 409.192 131.341 409.667 128.771 410.207C124.287 411.158 120.843 412.789 116.166 411.607C112.388 410.656 108.508 409.59 104.871 408.151C100.683 406.48 97.7786 403.422 94.9004 400.081C94.2322 399.298 93.1015 400.441 93.7696 401.212Z" fill="#CC5B1C"/>
<path d="M71.2573 340.961C66.2975 347.322 60.6309 353.014 54.2833 358C54.0007 358.218 54.0135 358.681 54.1548 358.976C57.7141 365.838 58.5493 373.522 56.5962 380.987C56.3392 381.989 57.8811 382.413 58.1381 381.411C59.1018 377.723 59.5002 373.971 59.1404 370.168C58.7935 366.545 57.3415 363.512 56.4806 360.068C56.1208 358.642 55.9409 358.989 57.123 357.768C57.7527 357.126 58.5365 356.599 59.2175 356.008C60.7337 354.697 62.2242 353.335 63.6505 351.922C66.7857 348.851 69.6768 345.562 72.3752 342.092C73.0177 341.296 71.8869 340.152 71.2573 340.961Z" fill="#CC5B1C"/>
<path d="M58.2029 383.236C82.5909 386.782 87.8592 426.05 115.113 421.9C116.128 421.745 115.691 420.203 114.689 420.358C100.413 422.529 90.7888 409.59 83.1435 399.696C76.8473 391.562 69.369 383.262 58.6398 381.694C57.6247 381.54 57.1878 383.082 58.2029 383.236Z" fill="#CC5B1C"/>
<path d="M92.1893 270.316C88.6686 263.146 81.0875 255.051 72.5298 254.691C68.6236 254.524 65.6169 256.67 62.6487 258.944C60.8755 260.306 59.0123 261.823 56.7637 262.285C53.3586 262.979 49.9792 261.219 47.0367 259.754C45.1993 258.829 43.5803 261.591 45.4177 262.516C49.1697 264.392 53.3072 266.346 57.6117 265.382C61.1839 264.585 63.7409 261.9 66.6577 259.908C75.6008 253.817 85.6618 264.302 89.4138 271.935C90.3261 273.785 93.0888 272.153 92.1893 270.316Z" fill="#CC5B1C"/>
<path d="M105.784 272.886C103.008 269.943 98.7165 270.008 95.9925 272.989C92.1891 277.165 91.3153 283.165 88.4885 287.907C86.998 290.412 84.7622 292.956 81.8325 293.727C78.7101 294.55 75.7162 292.738 72.671 292.327C68.3664 291.736 64.3703 293.959 62.3529 297.749C61.3892 299.574 64.1518 301.193 65.1155 299.368C66.2848 297.158 68.1737 295.668 70.705 295.462C73.3648 295.244 75.8704 296.67 78.466 297.043C81.7811 297.518 84.8393 296.4 87.3577 294.254C90.2617 291.787 91.9963 288.421 93.4226 284.964C94.6819 281.919 98.511 269.879 103.497 275.173C104.936 276.664 107.197 274.389 105.784 272.886Z" fill="#CC5B1C"/>
<path d="M117.245 274.813C124.48 291.145 121.717 310.162 110.988 324.232C108.572 327.405 106.452 330.566 106.362 334.691C106.259 339.599 107.544 344.598 107.801 349.506C108.315 359.375 106.748 369.718 99.7189 377.158C98.8837 378.045 99.2564 379.484 100.426 379.831C106.144 381.552 109.806 386.962 109.459 392.886C109.343 394.941 112.543 394.941 112.658 392.886C113.082 385.523 108.302 378.854 101.274 376.734C101.505 377.621 101.749 378.52 101.98 379.407C108.534 372.468 111.001 363.101 111.103 353.734C111.168 348.067 110.165 342.568 109.677 336.952C109.163 331.08 112.427 327.881 115.536 323.409C125.7 308.825 127.152 289.307 120.008 273.168C119.186 271.318 116.423 272.937 117.245 274.813Z" fill="#F8EBE5"/>
<path d="M112.915 394.685C123.618 390.637 135.877 392.526 144.717 399.876C146.298 401.186 148.572 398.925 146.979 397.614C137.303 389.558 123.888 387.129 112.067 391.601C110.152 392.32 110.975 395.417 112.915 394.685Z" fill="#F8EBE5"/>
<path d="M148.186 398.899C149.137 396.06 152.619 395.379 155.241 394.942C159.198 394.299 163.22 394.132 167.126 395.134C169.131 395.648 169.979 392.552 167.974 392.051C163.066 390.791 157.734 391.035 152.799 392.153C149.381 392.924 146.272 394.556 145.103 398.051C144.434 400.004 147.531 400.852 148.186 398.899Z" fill="#F8EBE5"/>
<path d="M172.035 379.844C174.194 382.606 174.155 386.088 174.065 389.416C173.975 393.027 173.834 396.625 173.705 400.223C173.59 403.615 173.487 407.007 173.371 410.399C173.269 413.432 174.04 418.533 171.585 420.756C170.814 421.45 171.958 422.581 172.716 421.887C174.759 420.036 174.733 417.428 174.823 414.845C175.003 409.975 175.145 405.093 175.299 400.223C175.44 395.815 175.774 391.357 175.684 386.949C175.62 383.904 175.055 381.141 173.153 378.7C172.536 377.903 171.405 379.034 172.035 379.844Z" fill="#F8EBE5"/>
<path d="M125.122 412.931C127.897 418.88 126.214 425.228 125.61 431.447C125.032 437.357 127.114 444.27 123.31 449.384C122.694 450.207 124.081 451.016 124.698 450.194C128.733 444.771 126.6 437.679 127.216 431.447C127.859 424.868 129.439 418.392 126.51 412.121C126.073 411.183 124.698 412.006 125.122 412.931Z" fill="#F8EBE5"/>
<path d="M401.523 134.755C400.457 124.296 398.555 114.016 394.777 104.161C392.22 104.097 389.676 103.955 387.132 103.801C387.428 105.729 387.53 107.682 387.62 109.648C387.787 113.156 387.942 116.676 388.301 120.158C389.149 128.279 390.1 136.387 391.038 144.508C391.192 145.87 390.935 147.091 390.332 148.311C387.351 154.376 384.845 160.672 381.427 166.532C380.81 167.585 380.45 168.78 379.962 169.911C380.001 170.168 379.975 170.464 380.104 170.669C382.712 175.154 385.397 179.599 387.556 184.328C387.62 184.469 387.813 184.559 387.942 184.675C390.203 182.735 391.565 180.191 392.85 177.582C395.009 173.162 396.82 168.575 398.568 163.975C400.47 158.951 401.935 153.811 402.346 148.414C402.68 143.814 401.973 139.291 401.523 134.755Z" fill="#794841"/>
<path d="M439.891 339.599C439.031 331.98 435.176 324.103 426.798 322.959C422.172 322.33 417.457 323.82 413.448 326.223C404.222 331.736 389.265 349.326 380.193 333.804C377.097 328.523 375.568 322.047 374.283 316.111C371.392 302.773 368.77 289.371 365.507 276.124C365.057 274.852 364.607 273.579 364.183 272.295C353.39 274.312 342.468 275.019 331.52 275.468C321.241 275.892 311.193 274.389 301.401 271.228C299.654 270.663 297.868 270.187 296.107 269.66C281.125 288.099 270.923 308.992 260.039 329.937C250.158 348.941 235.099 364.488 223.329 382.246C212.908 397.974 199.969 421.912 213.628 439.554C215.542 441.7 217.315 443.987 219.538 445.85C221.825 447.765 224.318 449.346 227.081 450.489C228.379 450.682 229.676 450.965 230.987 451.067C244.068 451.967 254.206 446.3 262.095 436.432C267.145 430.11 270.974 422.966 274.238 415.513C280.264 401.739 285.25 387.553 290.711 373.56C294.411 364.064 299.178 355.25 305.513 347.258C307.698 344.508 310.242 342.323 313.313 340.692C321.382 336.387 327.922 342.028 330.852 349.429C336.917 364.745 341.774 380.91 353.685 392.937C360.418 399.747 369.426 404.694 378.998 404.951C399.108 405.478 420.014 387.168 431.976 372.558C437.065 366.262 441.241 351.434 439.891 339.599Z" fill="#1F2241"/>
<path d="M375.118 168.472C374.848 168.69 374.566 168.947 374.27 169.243C373.037 170.476 371.816 171.749 370.454 172.854C367.434 175.282 364.71 177.993 362.205 180.91C361.472 181.758 360.688 181.938 359.686 181.951C356.538 182.028 353.39 182.067 350.242 182.336C348.507 182.478 345.68 180.82 344.665 182.696C344.55 182.915 345.102 184.418 344.781 184.534C344.485 188.748 341.414 191.575 337.2 191.536C333.281 191.498 330.621 188.568 330.48 184.097C329.914 182.94 328.951 182.837 327.82 183.005C322.937 183.686 318.003 183.21 313.12 183.506C310.023 183.698 306.901 180.525 304.717 178.687C300.219 174.884 296.005 173.881 291.263 170.425C290.788 170.078 290.364 169.526 289.477 169.86C288.719 172.802 287.948 175.847 287.164 178.893C286.111 184.302 285.057 189.712 284.004 195.134C283.297 197.524 284.453 199.156 286.252 200.505C287.023 201.084 287.807 201.649 288.604 202.201C292.78 205.067 297.393 206.981 302.224 208.343C303.702 208.755 304.151 209.436 304.074 210.926C303.869 215.051 303.612 219.175 303.033 223.261C302.018 230.483 300.875 237.678 298.253 244.54C295.876 250.772 293.923 257.158 290.942 263.146C289.811 265.42 290.313 266.654 292.574 267.887C293.73 268.517 294.913 269.069 296.095 269.648C297.868 270.162 299.641 270.65 301.389 271.215C311.18 274.376 321.228 275.88 331.508 275.455C343.278 274.967 355.022 274.183 366.599 271.806C372.625 268.889 373.165 267.643 371.52 261.077C369.619 253.483 368.192 245.812 367.948 237.961C367.691 229.442 368.411 220.936 368.437 212.417C368.437 210.207 369.285 209.114 371.148 208.215C373.589 207.046 376.005 205.786 378.202 204.142C382.764 200.698 385.578 195.982 388.147 191.048C388.983 189.442 389.33 187.913 388.854 186.397C384.652 180.165 379.975 174.228 375.118 168.472Z" fill="#99A990"/>
<path d="M284.299 175.847C281.909 172.686 279.365 169.667 276.615 166.814C274.289 164.412 272.246 161.752 270.1 159.208C269.227 158.167 268.623 157.049 268.571 155.661C268.327 149.416 267.042 143.3 266.503 137.081C265.899 130.181 264.806 123.307 263.868 116.445C263.573 114.248 263.933 107.258 264.678 105.15C262.339 106.037 259.268 111.151 256.956 110.663C256.981 111.369 256.956 112.102 256.814 112.847C255.426 120.454 253.974 128.048 253.191 135.758C252.343 144.084 252.741 152.256 256.172 160.056C257.932 164.077 259.77 168.074 261.607 172.057C262.005 172.931 262.545 173.753 263.085 174.55C268.7 182.799 275.998 189.339 284.029 195.134C285.083 189.725 286.136 184.315 287.19 178.893C285.905 178.173 285.134 176.965 284.299 175.847Z" fill="#794841"/>
<path d="M344.768 184.546C344.472 188.761 341.401 191.588 337.187 191.549C333.268 191.511 330.608 188.581 330.466 184.11C333.024 182.76 334.386 179.972 333.91 177.158C333.794 176.464 333.383 176.092 332.856 175.77C331.494 174.922 330.389 173.804 329.541 172.455C328.565 170.9 328.141 169.037 325.687 168.767C324.35 168.613 323.9 166.943 323.939 165.568C323.99 163.795 324.543 162.291 326.522 161.803C327.794 162.638 328.706 162.33 329.104 160.878C329.439 159.67 330.094 159.156 331.366 159.195C332.137 159.22 332.908 158.822 333.692 158.796C337.289 158.642 339.602 156.882 340.707 153.464C340.746 153.348 340.99 153.297 341.209 153.181C342.712 153.849 343.239 155.224 343.547 156.702C343.945 158.591 344.19 160.505 344.601 162.394C345.128 164.797 345.847 165.157 348.327 164.463C350.306 165.555 350.486 167.315 349.946 169.217C349.432 170.99 348.173 172.031 346.271 171.954C345.256 171.915 344.626 172.275 344.164 173.136C343.92 173.599 343.547 173.984 343.252 174.421C342.635 175.321 341.247 175.719 341.427 177.119C341.684 179.111 341.877 181.128 343.226 182.773C343.727 183.377 344.254 183.955 344.768 184.546Z" fill="#794841"/>
<path d="M213.602 439.554C215.516 441.7 217.29 443.987 219.512 445.85C221.8 447.765 224.292 449.346 227.055 450.489C226.374 450.63 226.04 451.029 225.963 451.761C225.834 453.072 225.719 454.395 225.449 455.667C224.318 460.974 220.9 463.133 215.773 460.717C212.921 459.368 210.942 456.939 208.668 454.896C206.226 452.686 203.656 450.785 200.675 449.397C198.131 448.202 195.626 446.93 193.338 445.259C192.336 444.527 191.385 443.743 190.768 442.651C189.188 439.876 190.73 436.74 193.904 436.342C195.124 436.188 196.345 436.291 197.566 436.548C201.768 437.46 205.982 438.295 210.197 439.207C211.327 439.477 212.458 439.516 213.602 439.554Z" fill="#99A990"/>
<path d="M439.172 339.676C438.786 337.8 438.478 335.899 437.977 334.048C436.088 326.943 432.014 322.805 424.279 322.78C423.932 322.78 423.598 322.677 423.251 322.625C425.667 319.49 428.854 317.935 432.798 318.192C435.278 318.359 437.591 319.169 439.686 320.569C441.587 321.829 443.399 323.216 445.211 324.591C448.436 327.046 452.214 328.575 455.722 330.579C457.096 331.363 458.523 332.07 459.679 333.162C462.532 335.873 462.519 338.764 459.499 341.257C457.456 342.94 455.053 343.595 452.368 343.133C447.871 342.362 443.399 341.514 439.172 339.676Z" fill="#99A990"/>
<path d="M347.248 163.692C346.926 163.692 346.631 163.769 346.335 163.897C346.207 156.291 341.941 150.187 336.673 150.187C331.957 150.187 328.025 155.109 327.177 161.61C327.023 161.572 326.856 161.546 326.689 161.546C324.941 161.546 323.528 163.551 323.528 166.03C323.528 168.51 324.941 170.515 326.689 170.515C327.126 170.515 327.537 170.386 327.909 170.168C329.169 175.757 332.792 178.302 336.673 178.302C340.103 178.302 343.123 175.693 344.832 171.761C345.436 172.661 346.297 173.213 347.235 173.213C349.085 173.213 350.588 171.08 350.588 168.446C350.601 165.825 349.098 163.692 347.248 163.692Z" fill="#794841"/>
<path d="M348.263 163.975C347.145 163.666 345.848 164.27 345.346 165.311C344.64 162.626 344.1 159.901 343.753 157.152C342.815 158.822 340.811 159.67 338.896 159.722C336.982 159.773 335.118 159.169 333.294 158.578C333.525 159.901 333.255 161.341 332.446 162.42C331.636 163.499 330.248 164.155 328.912 163.949C327.64 163.756 326.548 162.793 326.047 161.598C325.546 160.403 325.61 159.028 326.072 157.82C324.171 157.679 322.475 156.355 321.627 154.659C320.779 152.95 320.727 150.92 321.228 149.095C321.408 148.44 321.665 147.797 322.115 147.296C322.976 146.358 324.363 146.153 325.636 146.037C323.772 144.701 322.822 142.298 323.348 140.062C323.875 137.826 325.841 136.015 328.103 135.655C328.951 135.526 329.85 135.578 330.634 135.937C331.418 136.297 332.073 136.978 332.304 137.801C331.906 136.361 331.559 134.665 331.611 133.175C331.662 131.684 332.112 130.155 333.127 129.037C334.013 128.061 335.285 127.47 336.583 127.213C339.834 126.596 343.406 128.202 345.089 131.055C346.888 134.087 346.516 137.903 345.912 141.373C345.552 143.493 345.115 145.6 344.614 147.695C345.077 146.692 346.503 146.577 347.415 147.219C348.328 147.849 348.764 148.954 349.073 150.02C350.448 154.723 350.024 159.439 348.263 163.975Z" fill="#1F2241"/>
<path d="M403.747 95.7191C402.886 94.5755 398.17 98.6744 398.17 98.6744C398.17 98.6744 403.991 92.9436 403.49 91.9671C402.706 90.4252 396.204 97.0426 396.204 97.0426C396.204 97.0426 403.104 89.6542 401.562 88.5492C400.02 87.4441 394.02 95.5263 394.02 95.5263C394.02 95.5263 399.198 87.5726 397.72 86.8659C396.243 86.1463 389.959 96.6571 389.959 96.6571C389.959 96.6571 389.034 90.5279 387.775 90.6436C385.655 90.8235 387.068 103.917 387.068 103.917L392.632 108.504C392.632 108.504 404.608 96.8498 403.747 95.7191Z" fill="#794841"/>
<path d="M247.897 100.974C248.874 99.9208 253.152 104.482 253.152 104.482C253.152 104.482 247.948 98.199 248.539 97.2739C249.477 95.8219 255.273 103.056 255.273 103.056C255.273 103.056 249.156 95.0124 250.801 94.0616C252.446 93.1107 257.598 101.771 257.598 101.771C257.598 101.771 253.255 93.342 254.797 92.7766C256.339 92.2113 261.517 103.313 261.517 103.313C261.517 103.313 263.059 97.3124 264.293 97.5437C266.387 97.9421 263.65 110.817 263.65 110.817L257.65 114.826C257.65 114.826 246.933 102.015 247.897 100.974Z" fill="#794841"/>
<path d="M286.74 167.47C285.057 177.634 282.551 187.63 279.236 197.383C277.9 201.289 284.093 202.972 285.417 199.092C288.732 189.339 291.25 179.343 292.921 169.179C293.204 167.47 292.471 165.735 290.685 165.234C289.156 164.81 287.023 165.748 286.74 167.47Z" fill="#D88F25"/>
<path d="M373.268 167.213C378.061 174.871 382.866 182.529 387.659 190.175C389.342 188.877 391.013 187.592 392.696 186.294C392.49 186.089 392.285 185.896 392.079 185.69C389.124 182.812 384.588 187.335 387.543 190.226C387.749 190.432 387.955 190.624 388.16 190.83C390.717 193.323 395.163 190.097 393.197 186.949C388.404 179.291 383.599 171.633 378.806 163.988C377.894 162.523 375.953 161.945 374.424 162.844C372.959 163.679 372.343 165.748 373.268 167.213Z" fill="#D88F25"/>
<path d="M339.076 170.04C338.755 171.903 337.161 173.29 335.285 173.201C333.409 173.111 331.957 171.569 331.829 169.68L339.076 170.04Z" fill="white"/>
<path d="M334.167 230.316C328.938 236.483 322.873 241.893 316.101 246.339C314.379 247.47 315.986 250.245 317.72 249.102C324.71 244.514 331.032 238.963 336.429 232.577C336.981 231.922 337.071 230.958 336.429 230.316C335.864 229.738 334.733 229.66 334.167 230.316Z" fill="#AEAEAE"/>
<path d="M348.199 215.411C347.955 215.745 347.711 216.092 347.454 216.426C347.338 216.58 347.235 216.721 347.12 216.875C346.85 217.235 347.235 216.734 347.068 216.94C347.017 217.017 346.953 217.081 346.901 217.158C346.387 217.813 345.847 218.456 345.308 219.098C344.228 220.345 343.111 221.553 341.941 222.722C341.35 223.313 341.312 224.405 341.941 224.983C342.584 225.574 343.573 225.613 344.203 224.983C346.683 222.529 348.931 219.869 350.962 217.043C351.45 216.361 351.103 215.231 350.383 214.845C349.561 214.396 348.726 214.678 348.199 215.411Z" fill="#AEAEAE"/>
<path d="M311.745 274.248C307.518 282.458 306.31 291.453 305.577 300.55C304.781 310.406 304.768 320.313 305.475 330.168C305.552 331.196 307.145 331.196 307.081 330.168C306.4 320.724 306.387 311.241 307.094 301.797C307.775 292.584 308.854 283.371 313.146 275.044C313.595 274.145 312.22 273.335 311.745 274.248Z" fill="#877B62"/>
<path d="M320.688 275.79C316.319 294.73 316.551 314.787 319.827 333.882C320.007 334.897 321.549 334.46 321.369 333.457C318.131 314.659 317.938 294.871 322.23 276.214C322.461 275.211 320.919 274.787 320.688 275.79Z" fill="#877B62"/>
<path d="M301.389 331.774C306.413 331.157 311.977 330.965 316.808 332.712C320.252 333.959 323.079 336.451 325.276 339.317C329.722 345.112 332.086 352.346 333.782 359.362C334.026 360.364 335.568 359.94 335.324 358.938C333.525 351.498 330.942 343.827 326.085 337.788C323.785 334.922 320.881 332.52 317.412 331.235C312.414 329.384 306.58 329.538 301.389 330.181C300.374 330.297 300.361 331.903 301.389 331.774Z" fill="#877B62"/>
<path d="M341.825 276.702C344.832 283.397 347.954 290.232 352.966 295.706C357.643 300.807 365.005 305.407 372.124 302.799C373.088 302.452 372.664 300.897 371.7 301.257C364.646 303.853 357.566 298.7 353.197 293.56C348.802 288.369 345.963 282.06 343.213 275.905C342.789 274.954 341.414 275.777 341.825 276.702Z" fill="#877B62"/>
<path d="M304.022 272.809C300.99 278.629 297.893 284.604 293.165 289.256C291.006 291.376 288.539 293.188 285.776 294.447C284.376 295.076 282.911 295.552 281.408 295.835C280.046 296.092 278.799 296.233 277.745 297.222C277 297.929 278.131 299.06 278.876 298.353C279.981 297.312 282.05 297.389 283.463 296.991C284.864 296.593 286.239 296.04 287.537 295.372C290.158 294.023 292.535 292.173 294.604 290.091C299.268 285.388 302.378 279.439 305.41 273.618C305.873 272.706 304.498 271.896 304.022 272.809Z" fill="#877B62"/>
<path d="M310.897 332.237C295.889 344.161 285.893 360.916 277.656 377.942C268.88 396.085 261.903 416.053 246.959 430.264C243.156 433.888 238.89 437.023 234.2 439.4C228.842 442.111 222.648 444.039 216.673 442.343C215.684 442.06 215.26 443.602 216.249 443.885C225.629 446.544 235.742 441.276 243.027 435.712C250.634 429.892 256.686 422.323 261.633 414.164C267.351 404.72 271.668 394.53 276.307 384.534C280.457 375.578 284.89 366.724 290.197 358.372C296.172 348.979 303.291 340.306 312.028 333.368C312.838 332.725 311.694 331.594 310.897 332.237Z" fill="#877B62"/>
<path d="M363.67 302.735C365.764 313.502 367.858 324.283 369.94 335.051C370.3 336.914 370.428 338.893 372.099 340.062C373.731 341.206 375.684 341.938 377.38 343.005C381.042 345.305 384.408 348.196 387.004 351.665C389.869 355.481 391.681 359.953 391.784 364.759C391.81 365.786 393.403 365.786 393.39 364.759C393.21 356.599 388.482 349.545 382.288 344.546C380.733 343.287 379.089 342.144 377.38 341.116C375.517 339.998 372.587 339.253 371.957 336.991C371.238 334.408 370.917 331.659 370.403 329.024C369.876 326.326 369.362 323.641 368.835 320.942C367.627 314.723 366.419 308.517 365.211 302.298C365.019 301.296 363.477 301.72 363.67 302.735Z" fill="#877B62"/>
<path d="M391.977 356.047C399.031 348.003 407.28 341.051 416.454 335.526C424.344 330.785 438.029 322.587 446.098 331.235C446.805 331.993 447.935 330.849 447.229 330.104C441.112 323.538 431.578 326.043 424.511 329.384C416.352 333.239 408.719 338.225 401.845 344.058C397.913 347.399 394.251 351.023 390.846 354.903C390.165 355.674 391.295 356.818 391.977 356.047Z" fill="#877B62"/>
<path d="M190.152 440.569C196.705 443.139 202.963 446.454 208.758 450.451C211.507 452.339 214.026 454.485 216.673 456.503C219.076 458.34 221.658 459.753 224.768 459.317C225.783 459.175 225.346 457.633 224.344 457.775C220.81 458.276 217.881 455.423 215.349 453.393C212.895 451.414 210.351 449.551 207.704 447.829C202.32 444.309 196.564 441.392 190.576 439.04C189.612 438.655 189.201 440.197 190.152 440.569Z" fill="#F8EBE5"/>
<path d="M201.973 434.402C202.885 436.946 203.489 439.606 203.746 442.291C203.785 442.728 204.08 443.088 204.543 443.088C204.941 443.088 205.378 442.715 205.34 442.291C205.083 439.452 204.479 436.651 203.515 433.965C203.374 433.554 202.975 433.284 202.526 433.4C202.14 433.515 201.832 433.991 201.973 434.402Z" fill="#F8EBE5"/>
<path d="M205.391 434.402C205.995 437.717 207.049 440.929 208.475 443.988C208.655 444.373 209.22 444.476 209.567 444.27C209.966 444.039 210.043 443.564 209.85 443.178C208.475 440.261 207.498 437.152 206.92 433.978C206.843 433.554 206.329 433.31 205.931 433.413C205.494 433.541 205.301 433.978 205.391 434.402Z" fill="#F8EBE5"/>
<path d="M427.839 319.323C431.218 319.413 433.827 321.649 436.268 323.756C438.581 325.774 440.907 327.598 443.656 328.999C449.297 331.89 455.76 333.458 460.412 337.993C461.157 338.713 462.288 337.582 461.543 336.863C456.647 332.095 449.927 330.502 444.042 327.393C440.997 325.786 438.581 323.551 435.947 321.379C433.57 319.426 431.013 317.794 427.852 317.717C426.811 317.691 426.811 319.298 427.839 319.323Z" fill="#F8EBE5"/>
<path d="M291.353 175.256C297.778 178.854 303.804 183.133 309.33 188.016C310.101 188.697 311.231 187.566 310.46 186.885C304.845 181.912 298.716 177.544 292.163 173.869C291.263 173.368 290.454 174.755 291.353 175.256Z" fill="#F8EBE5"/>
<path d="M309.741 188.388C317.322 187.939 324.929 188.054 332.484 188.723C333.512 188.812 333.499 187.206 332.484 187.116C324.916 186.448 317.322 186.333 309.741 186.782C308.713 186.847 308.713 188.453 309.741 188.388Z" fill="#F8EBE5"/>
<path d="M292.111 171.826C298.446 174.922 304.293 178.944 309.432 183.763C310.178 184.469 311.321 183.339 310.563 182.632C305.321 177.711 299.371 173.599 292.921 170.438C291.996 169.988 291.186 171.376 292.111 171.826Z" fill="#F8EBE5"/>
<path d="M310.383 183.943C316.898 183.943 323.412 183.943 329.927 183.943C330.955 183.943 330.955 182.336 329.927 182.336C323.412 182.336 316.898 182.336 310.383 182.336C309.355 182.336 309.355 183.943 310.383 183.943Z" fill="#F8EBE5"/>
<path d="M344.652 183.506C350.229 183.262 355.805 183.197 361.382 183.326C361.254 182.825 361.112 182.337 360.984 181.835C360.855 181.938 360.727 182.028 360.598 182.131C359.789 182.748 360.585 184.148 361.408 183.519C361.536 183.416 361.665 183.326 361.793 183.223C362.397 182.761 362.256 181.745 361.395 181.733C355.818 181.617 350.242 181.681 344.665 181.912C343.637 181.951 343.624 183.557 344.652 183.506Z" fill="#F8EBE5"/>
<path d="M361.768 182.953C365.661 177.672 370.544 173.149 376.095 169.654C376.968 169.102 376.159 167.714 375.285 168.266C369.49 171.916 364.453 176.631 360.38 182.144C359.763 182.966 361.151 183.776 361.768 182.953Z" fill="#F8EBE5"/>
<path d="M344.022 187.489C350.537 187.091 357.052 186.679 363.566 186.281C364.594 186.217 364.594 184.611 363.566 184.675C357.052 185.073 350.537 185.484 344.022 185.883C342.994 185.947 342.994 187.553 344.022 187.489Z" fill="#F8EBE5"/>
<path d="M363.245 186.333C367.524 181.026 372.766 176.606 378.728 173.316C379.628 172.815 378.818 171.44 377.919 171.928C371.854 175.282 366.457 179.792 362.114 185.189C361.472 185.998 362.602 187.129 363.245 186.333Z" fill="#F8EBE5"/>
<path d="M328.758 182.748C329.079 183.93 329.04 185.163 329.246 186.358C329.452 187.54 329.94 188.684 330.801 189.545C332.497 191.241 335.08 191.562 337.367 191.639C340.04 191.729 342.648 191.113 344.331 188.89C346.04 186.641 346.207 183.788 346.259 181.077C346.297 179.021 343.098 179.009 343.059 181.077C343.021 183.043 343.046 185.279 341.826 186.937C340.721 188.44 338.845 188.504 337.136 188.427C335.722 188.363 333.885 188.247 332.947 187.142C332.497 186.615 332.368 185.767 332.291 185.035C332.189 183.981 332.137 182.928 331.854 181.9C331.315 179.921 328.218 180.756 328.758 182.748Z" fill="#F8EBE5"/>
<path d="M446.265 334.665C446.265 337.518 446.265 340.358 446.265 343.21C446.265 344.238 447.871 344.238 447.871 343.21C447.871 340.358 447.871 337.518 447.871 334.665C447.871 333.637 446.265 333.625 446.265 334.665Z" fill="#F8EBE5"/>
<path d="M452.111 339.535C451.739 341.09 451.456 342.658 451.237 344.238C451.186 344.649 451.649 345.06 452.034 345.035C452.51 345.009 452.779 344.675 452.831 344.238C452.818 344.341 452.856 344.084 452.856 344.058C452.869 343.968 452.882 343.878 452.895 343.801C452.921 343.608 452.946 343.429 452.985 343.236C453.049 342.876 453.101 342.516 453.178 342.156C453.319 341.424 453.473 340.692 453.653 339.972C453.756 339.561 453.525 339.085 453.088 338.983C452.677 338.88 452.214 339.098 452.111 339.535Z" fill="#F8EBE5"/>
<path d="M193.575 75C197.717 75 201.075 71.6421 201.075 67.5C201.075 63.3579 197.717 60 193.575 60C189.433 60 186.075 63.3579 186.075 67.5C186.075 71.6421 189.433 75 193.575 75Z" fill="#EACF9A"/>
<path d="M170.075 114.5C170.075 116.431 168.506 118 166.575 118C164.645 118 163.075 116.431 163.075 114.5C163.075 112.569 164.645 111 166.575 111C168.506 111 170.075 112.569 170.075 114.5Z" fill="#D3782C"/>
<path d="M12.0752 203.65C12.0752 205.303 10.7287 206.65 9.0752 206.65C7.42165 206.65 6.0752 205.303 6.0752 203.65C6.0752 201.996 7.42165 200.65 9.0752 200.65C10.7287 200.65 12.0752 201.996 12.0752 203.65Z" fill="#EACF9A"/>
<path d="M12.0752 332.65C12.0752 334.303 10.7287 335.65 9.0752 335.65C7.42165 335.65 6.0752 334.303 6.0752 332.65C6.0752 330.996 7.42165 329.65 9.0752 329.65C10.7287 329.65 12.0752 330.985 12.0752 332.65Z" fill="#EACF9A"/>
<path d="M174.075 336.15C174.075 338.08 172.505 339.65 170.575 339.65C168.645 339.65 167.075 338.08 167.075 336.15C167.075 334.22 168.645 332.65 170.575 332.65C172.505 332.65 174.075 334.22 174.075 336.15Z" fill="#D3782C"/>
<path d="M465.075 291C465.075 294.309 462.384 297 459.075 297C455.766 297 453.075 294.309 453.075 291C453.075 287.691 455.766 285 459.075 285C462.397 285 465.075 287.691 465.075 291Z" fill="#EACF9A"/>
<path d="M270.075 492.65C273.389 492.65 276.075 489.964 276.075 486.65C276.075 483.336 273.389 480.65 270.075 480.65C266.761 480.65 264.075 483.336 264.075 486.65C264.075 489.964 266.761 492.65 270.075 492.65Z" fill="#EACF9A"/>
<path d="M459.075 49.5C459.075 51.4342 457.509 53 455.575 53C453.641 53 452.075 51.4342 452.075 49.5C452.075 47.5658 453.641 46 455.575 46C457.509 46 459.075 47.5789 459.075 49.5Z" fill="#EACF9A"/>
<path d="M402.075 283.5C402.075 286.538 399.614 289 396.575 289C393.537 289 391.075 286.538 391.075 283.5C391.075 280.462 393.537 278 396.575 278C399.614 278 402.075 280.462 402.075 283.5Z" fill="#EACF9A"/>
<path d="M42.0752 111C44.8366 111 47.0752 108.761 47.0752 106C47.0752 103.239 44.8366 101 42.0752 101C39.3138 101 37.0752 103.239 37.0752 106C37.0752 108.761 39.3138 111 42.0752 111Z" fill="#D77062"/>
<path d="M8.0752 374.65C8.0752 376.862 6.28712 378.65 4.0752 378.65C1.86327 378.65 0.0751953 376.862 0.0751953 374.65C0.0751953 372.438 1.86327 370.65 4.0752 370.65C6.27387 370.65 8.0752 372.451 8.0752 374.65Z" fill="#D77062"/>
<path d="M137.075 480.65C137.075 482.862 135.287 484.65 133.075 484.65C130.863 484.65 129.075 482.862 129.075 480.65C129.075 478.438 130.863 476.65 133.075 476.65C135.287 476.65 137.075 478.438 137.075 480.65Z" fill="#D77062"/>
<path d="M239.575 248.65C242.06 248.65 244.075 246.859 244.075 244.65C244.075 242.441 242.06 240.65 239.575 240.65C237.09 240.65 235.075 242.441 235.075 244.65C235.075 246.859 237.09 248.65 239.575 248.65Z" fill="#D3782C"/>
<path d="M402.575 447C405.06 447 407.075 445.209 407.075 443C407.075 440.791 405.06 439 402.575 439C400.09 439 398.075 440.791 398.075 443C398.075 445.209 400.09 447 402.575 447Z" fill="#D3782C"/>
<path d="M208.075 289.15C208.075 291.084 206.509 292.65 204.575 292.65C202.641 292.65 201.075 291.084 201.075 289.15C201.075 287.216 202.641 285.65 204.575 285.65C206.509 285.65 208.075 287.216 208.075 289.15Z" fill="#D77062"/>
<path d="M328.575 423C331.06 423 333.075 420.985 333.075 418.5C333.075 416.015 331.06 414 328.575 414C326.09 414 324.075 416.015 324.075 418.5C324.075 420.985 326.09 423 328.575 423Z" fill="#D77062"/>
<path d="M449.575 229C450.956 229 452.075 227.881 452.075 226.5C452.075 225.119 450.956 224 449.575 224C448.194 224 447.075 225.119 447.075 226.5C447.075 227.881 448.194 229 449.575 229Z" fill="#D77062"/>
<path d="M354.575 61C356.508 61 358.075 59.2091 358.075 57C358.075 54.7909 356.508 53 354.575 53C352.642 53 351.075 54.7909 351.075 57C351.075 59.2091 352.642 61 354.575 61Z" fill="#D77062"/>
<path d="M99.5752 26L103.632 33.434L111.075 37.4935L103.632 41.566L99.5752 49L95.505 41.566L88.0752 37.4935L95.505 33.434L99.5752 26Z" fill="#F8EBE5"/>
<path d="M22.0818 64L24.9045 68.8475L30.0752 71.5062L24.9045 74.1525L22.0818 79L19.2458 74.1525L14.0752 71.5062L19.2458 68.8475L22.0818 64Z" fill="#F8EBE5"/>
<path d="M37.5816 456.65L40.5847 462.145L46.0752 465.15L40.5847 468.155L37.5816 473.65L34.5786 468.155L29.0752 465.15L34.5786 462.145L37.5816 456.65Z" fill="#F8EBE5"/>
<path d="M81.0752 496.65L83.5582 501.176L88.0752 503.643L83.5582 506.124L81.0752 510.65L78.6054 506.124L74.0752 503.643L78.6054 501.176L81.0752 496.65Z" fill="#F8EBE5"/>
<path d="M309.075 28L312.258 33.8175L318.075 37L312.258 40.1825L309.075 46L305.893 40.1825L300.075 37L305.893 33.8175L309.075 28Z" fill="#F8EBE5"/>
<path d="M368.082 115L369.136 116.935L371.075 118L369.136 119.065L368.082 121L367.014 119.065L365.075 118L367.014 116.935L368.082 115Z" fill="#F8EBE5"/>
<path d="M354.575 450L356.175 452.578L359.075 454L356.175 455.41L354.575 458L352.989 455.41L350.075 454L352.989 452.578L354.575 450Z" fill="#F8EBE5"/>
<path d="M316.581 379L318.168 381.908L321.075 383.494L318.168 385.092L316.581 388L314.983 385.092L312.075 383.494L314.983 381.908L316.581 379Z" fill="#F8EBE5"/>
</svg>
