<svg width="443" height="430" viewBox="0 0 443 430" fill="none" xmlns="http://www.w3.org/2000/svg">
<path d="M311.135 93.986C313.79 86.6363 319.323 80.1834 326.929 78.3081C341.011 77.1666 348.349 80.7425 355.629 87.7544C362.909 94.778 367.079 104.329 371.144 113.589C375.197 122.849 379.507 132.365 386.962 139.203C399.681 150.874 419.296 152.702 431.677 164.734C444.059 176.767 445.922 197.302 438.049 212.665C430.175 228.028 414.054 238.162 397.083 241.353C391.574 242.39 385.89 242.774 380.334 242.017C363.981 239.804 350.05 227.749 342.56 213.038C335.071 198.326 333.312 181.297 334.197 164.816C334.628 156.779 335.583 148.346 332.275 141.02C325.718 126.483 308.945 121.486 309.376 103.176C309.446 100.124 310.04 96.9795 311.135 93.986Z" fill="#FDECD0"/>
<path d="M151.036 161.857C157.978 150.209 174.786 143.058 188.029 146.214C207.97 150.966 208.611 173.097 211.045 189.8C212.921 202.624 217.114 215.844 226.758 224.487C232.326 229.472 239.28 232.559 246.024 235.762C263.157 243.869 280.012 253.362 293.127 267.059C306.242 280.757 315.316 299.231 314.221 318.158C313.942 322.922 313.033 327.674 311.111 332.054C306.93 341.605 298.31 348.582 289.05 353.369C276.04 360.102 261.177 363.223 246.559 362.28C232.943 361.406 219.141 356.759 209.543 347.068C195.787 333.184 193.05 312.09 191.372 292.615C189.695 273.14 187.738 252.15 174.902 237.404C170.931 232.838 166.085 229.111 162.067 224.603C150.035 211.08 144.071 190.662 147.123 172.783C147.868 168.531 149.207 164.932 151.036 161.857Z" fill="#FDECD0"/>
<path d="M203.785 7.30258C216.458 5.86991 229.666 9.55059 239.462 17.7972C249.048 25.8807 254.651 38.5418 254.01 51.0865C253.404 63.0487 246.765 74.0442 236.585 80.334C231.472 83.4789 225.648 85.2377 219.649 85.3658C211.822 85.5405 204.239 83.3158 196.517 82.4306C183.425 80.928 170.1 84.3524 159.314 91.9118C156.635 93.7871 154.154 95.9303 151.882 98.2715C149.436 100.811 147.235 103.583 144.638 105.982C140.095 110.175 133.374 113.425 127.294 110.513C124.557 109.197 122.553 106.821 120.853 104.375C118.896 101.568 117.021 98.5976 115.658 95.4411C113.154 89.6056 113.48 83.409 116.683 77.9112C123.182 66.776 135.809 62.874 146.49 57.0967C151.859 54.1848 156.984 50.5623 160.117 45.1927C162.016 41.943 163.192 38.3322 164.765 34.9194C166.058 32.1123 167.63 29.445 169.471 26.964C176.564 17.4012 187.164 10.4941 198.835 8.02474C201.747 7.40741 204.705 7.08127 207.675 7.02303C209.318 6.98809 209.318 9.55059 207.675 9.58554C196.097 9.80684 184.869 14.7105 176.564 22.7358C172.371 26.7893 169.005 31.5881 166.652 36.9345C165.242 40.1259 164.101 43.4572 162.33 46.4856C160.886 48.9666 159.023 51.1913 156.891 53.1015C148.132 60.9871 136.123 63.5146 126.84 70.5964C122.297 74.0558 118.057 78.7149 116.799 84.4456C115.344 91.0732 119.001 97.0718 122.542 102.36C124.196 104.829 126.199 107.462 129.088 108.533C132.105 109.651 135.482 108.929 138.255 107.485C144.044 104.468 147.654 98.5394 152.372 94.2181C161.364 85.9948 173.035 80.9047 185.148 79.7516C191.834 79.111 198.357 80.0195 204.926 81.1842C211.752 82.384 218.81 83.6652 225.683 82.0928C236.562 79.6235 245.81 71.1206 249.549 60.6493C253.626 49.2112 251.028 36.1657 244.016 26.4398C236.864 16.5159 224.926 10.6455 212.858 9.69037C209.83 9.45741 206.802 9.51565 203.785 9.86509C202.154 10.0398 202.166 7.4773 203.785 7.30258Z" fill="#A3DB7A"/>
<path d="M23.5194 223.264C38.6498 214.319 57.3328 216.206 72.1487 224.848C79.3936 229.076 85.7882 234.854 90.5522 241.772C95.0482 248.307 98.1465 255.692 101.152 263.006C104.203 270.426 107.139 277.95 111.308 284.823C115.548 291.788 121.454 298.52 129.397 301.164C134.15 302.748 139.182 303.191 144.004 304.554C147.44 305.521 150.771 306.942 153.928 308.596C160.811 312.206 167.206 317.133 172.191 323.12C176.85 328.723 180.484 335.525 180.752 342.945C181.02 350.399 177.491 357.924 171.888 362.781C161.021 372.216 144.621 370.352 132.158 365.53C125.693 363.037 119.497 359.589 114.279 354.977C107.488 348.978 103.318 340.72 98.0417 333.487C92.5207 325.904 85.3107 320.36 76.8777 316.341C68.8408 312.509 60.2331 310.04 51.8002 307.256C35.2953 301.793 18.4527 293.873 8.92479 278.568C4.27733 271.102 2.04091 262.354 3.19405 253.583C4.30058 245.209 8.20264 237.346 13.8867 231.126C16.6938 228.063 19.9552 225.419 23.5194 223.264C24.9288 222.414 26.2216 224.615 24.8123 225.477C10.5321 234.132 1.808 251.79 6.94466 268.225C12.1861 284.986 28.1552 295.702 43.7865 301.723C59.4877 307.769 76.7962 310.902 90.2843 321.583C97.6573 327.43 102.328 335.362 107.546 343.015C109.899 346.462 112.427 349.829 115.513 352.659C117.866 354.814 120.464 356.678 123.189 358.332C134.429 365.134 149.723 369.723 162.628 365.239C169.174 362.956 174.381 357.784 176.827 351.285C179.39 344.494 178.085 337.261 174.614 331.041C170.945 324.483 165.342 319.044 159.204 314.781C152.879 310.389 146.019 307.396 138.471 305.882C133.8 304.95 129.071 304.169 124.773 301.991C121.302 300.233 118.204 297.588 115.56 294.758C110.447 289.284 106.847 282.609 103.796 275.819C97.471 261.772 93.103 246.338 81.7465 235.308C70.0405 223.94 52.6621 217.149 36.3785 220.83C32.2902 221.75 28.4115 223.322 24.8007 225.454C23.3913 226.316 22.0984 224.103 23.5194 223.264Z" fill="#A3DB7A"/>
<path d="M49.3763 317.11C56.295 314.908 64.4251 319.789 63.8311 331.495C63.5282 337.424 61.0939 343.713 55.899 346.602C44.6123 352.88 39.0796 339.054 40.2327 329.853C41.1296 322.724 45.0083 318.508 49.3763 317.11Z" fill="#FDECD0"/>
<path d="M303.481 134.8C306.673 133.239 309.503 131.247 311.67 128.382C314.768 124.294 316.445 119.739 316.049 114.579C315.688 109.804 312.45 106.461 307.721 105.809C305.054 105.436 302.48 105.832 300.01 106.927C298.554 107.579 297.087 108.196 295.666 108.919C293.627 109.944 291.822 109.513 290.075 108.255C287.547 106.426 285.765 104.038 284.693 101.103C283.575 98.0396 282.492 94.953 281.316 91.9013C279.86 88.1041 277.635 84.8427 274.373 82.3618C269.039 78.285 262.469 78.087 257.531 81.8376C255.364 83.4799 253.862 85.5765 253.151 88.2206C252.883 89.2223 252.639 90.2356 252.289 91.2024C250.962 94.8714 247.887 96.4672 244.101 95.4655C241.737 94.8365 239.768 93.4737 237.893 91.9828C236.332 90.7481 234.946 89.3038 233.595 87.8362C230.951 84.9359 228.039 82.3734 224.579 80.4282C214.073 74.5461 201.843 76.4331 193.445 87.4635C186.689 96.3274 190.51 108.127 196.252 113.368C198.523 115.441 201.028 117.095 203.858 118.237C209.402 120.473 214.947 122.686 220.491 124.911C221.376 125.272 222.238 125.68 223.1 126.087C227.526 128.231 229.716 131.888 230.182 136.687C230.461 139.541 230.671 142.406 231.021 145.248C231.708 151.014 234.492 155.614 238.988 159.19C243.251 162.58 248.201 162.801 252.732 159.726C254.968 158.2 257.053 156.465 259.196 154.799C260.711 153.623 262.26 152.505 263.972 151.643C266.243 150.489 267.233 150.676 269.05 152.528C269.889 153.378 270.67 154.298 271.555 155.09C275.2 158.34 279.382 158.235 282.888 154.892C284.81 153.052 286.196 150.816 287.687 148.649C286.58 147.216 285.532 145.935 283.47 145.621C281.747 145.353 280.652 143.932 280.407 142.08C280.256 140.973 280.512 140.018 281.514 139.401C282.387 138.865 283.168 139.133 283.913 139.739C284.134 139.925 284.391 140.204 284.95 139.82C285.951 138.189 285.532 136.361 284.95 134.532C284.81 134.078 284.612 133.542 284.996 133.193C285.462 132.762 285.881 133.216 286.231 133.495C289.446 136.058 295.293 134.544 297.471 131.772C297.809 131.352 298.088 130.828 298.845 130.653C299.603 131.469 300.371 132.4 300.791 133.495C301.291 134.905 302.107 135.336 303.481 134.8Z" fill="#1F2241"/>
<path d="M297.693 151.316C297.728 151.456 297.786 151.595 297.856 151.747C298.834 153.948 300.174 155.905 301.595 157.827C302.212 158.654 303.028 158.689 303.936 158.642C309.597 158.305 324.483 160.634 329.969 161.88C325.368 167.739 305.578 176.557 298.333 177.5C283.89 179.387 271.346 174.658 263.646 171.443C267.583 169.207 283.716 161.985 288.06 160.634C289.26 160.261 289.97 159.667 290.192 158.409C290.46 156.849 290.902 155.311 291.158 153.75C291.356 152.574 291.461 151.852 291.356 151.328C289.306 150.489 287.42 148.893 285.952 146.738C285.882 146.68 285.8 146.633 285.731 146.575C285.707 146.599 285.696 146.622 285.672 146.633C283.82 148.066 280.908 147.391 279.161 145.131C277.414 142.871 277.507 139.878 279.348 138.457C280.349 137.676 281.666 137.548 282.935 137.921C282.469 131.398 285.591 125.726 290.553 124.701C296.12 123.548 301.898 128.684 303.447 136.185C304.845 142.941 302.305 149.301 297.693 151.316Z" fill="#D77062"/>
<path d="M303.983 132.283C303.726 133.017 303.447 133.751 302.923 134.333C302.038 135.324 300.617 135.638 299.289 135.685C296.365 135.789 293.139 134.531 292.009 131.841C292.207 133.262 291.636 134.764 290.541 135.696C289.446 136.628 287.862 136.943 286.499 136.523C287.757 138.666 286.488 141.846 284.1 142.533C283.972 138.76 280.944 135.3 277.228 134.66C277.659 130.024 278.975 125.481 281.083 121.335C281.899 119.716 282.865 118.131 284.228 116.932C288.48 113.193 294.001 114.695 299.079 114.765C300.558 114.789 302.154 114.73 303.365 115.732C305.124 117.188 305.648 120.042 305.788 122.173C306.021 125.633 305.124 129.057 303.983 132.283Z" fill="#1F2241"/>
<path d="M358.809 371.971C355.898 371.458 352.986 370.794 350.015 371.668C349.969 371.982 349.969 372.32 349.852 372.6C348.525 375.558 349.468 377.969 351.553 380.194C352.811 381.533 354.15 382.756 355.63 383.84C359.159 386.414 362.677 389.011 365.74 392.145C366.8 393.239 368.058 394.09 369.525 394.556C370.469 394.847 371.424 394.882 372.181 394.078C372.962 393.251 373.113 392.273 372.787 391.201C372.507 390.258 371.878 389.535 371.203 388.848C369.525 387.159 367.895 385.412 366.148 383.805C362.607 380.52 360.673 376.269 358.809 371.971Z" fill="#E7A729"/>
<path d="M358.809 371.971C361.22 371.389 361.43 371.191 361.709 369.164C363.06 359.298 372.903 304.659 367.615 285.149C366.508 280.839 364.481 276.972 361.907 273.385C359.345 269.82 342.444 251.929 337.668 247.328C333.498 243.31 329.666 238.896 326.125 234.271C325.333 234.248 324.541 234.19 323.749 234.225C319.766 234.376 315.794 234.714 311.81 234.679C302.084 234.586 292.393 235.355 282.691 235.692C282.225 235.704 281.771 235.902 281.305 236.019C278.369 242.576 275.865 249.25 275.562 256.553C275.446 259.535 276.052 262.412 276.436 265.324C277.065 269.972 277.822 274.608 279.103 279.138C279.581 280.816 279.325 281.13 277.508 280.851C274.84 280.443 272.138 280.094 269.529 279.418C261.154 277.228 252.558 275.865 244.381 272.872C243.636 272.592 242.879 272.371 242.215 271.917C241.574 272.348 241.33 273.012 241.132 273.699C240.305 276.506 239.489 279.313 238.662 282.109C238.802 282.691 239.221 283.017 239.722 283.32C247.538 288.096 255.225 293.092 263.192 297.623C271.078 302.108 278.742 307.046 287.338 310.156C291.462 311.647 296.342 313.569 300.722 312.102C310.11 308.968 308.607 291.811 309.283 284.077C309.585 280.583 310.552 271.136 311.321 269.937C312.323 270.333 312.94 271.078 313.627 271.707C322.91 280.117 332.811 287.769 342.956 295.084C347.511 298.357 347.522 298.299 347.65 303.913C348 319.044 347.883 334.174 347.604 349.305C347.476 355.99 347.394 362.688 347.743 369.374C347.848 371.319 347.895 371.319 349.98 371.668C352.985 370.795 355.897 371.459 358.809 371.971Z" fill="#DD6A3E"/>
<path d="M240.409 173.772C240.736 173.586 241.085 173.446 241.446 173.341C242.052 173.167 242.692 173.085 243.31 172.969C246.42 172.351 249.541 171.746 252.651 171.093C256.821 170.208 260.746 168.636 264.625 166.958C264.672 166.993 264.718 167.028 264.765 167.063C276.413 174.518 289.901 177.395 303.563 175.019C313.837 173.237 324.856 168.03 328.513 157.862C328.56 157.862 328.606 157.85 328.653 157.85C329.526 157.815 330.4 157.664 331.262 157.64C334.64 157.559 337.563 156.277 340.347 154.46C343.55 152.375 346.52 149.988 349.537 147.658C352.1 145.678 353.253 146.027 354.441 149.091C355.594 154.006 356.747 158.91 357.889 163.825C357.83 165.025 359.787 176.16 360.008 180.633C360.125 183.044 359.857 183.522 357.434 184.139C351.808 185.572 346.171 186.969 340.394 187.715C338.518 187.959 338.472 187.983 338.32 189.904C338.262 190.697 339.322 222.53 340.056 230.462C340.254 232.628 340.126 232.826 337.971 232.943C324.972 235.354 269.284 237.218 266.582 236.065C264.311 235.948 263.274 234.958 263.053 232.71C262.726 229.39 260.898 205.501 260.898 204.231C260.886 203.195 260.385 202.577 259.267 202.659C254.806 202.997 242.82 202.135 241.108 199.584C241.621 190.976 241.341 182.357 240.409 173.772Z" fill="#718463"/>
<path d="M366.776 141.299C370.841 138.212 374.615 134.788 378.493 131.468C385.471 125.504 406.937 106.798 406.704 105.89C409.977 107.183 408.952 107.916 412.19 109.302C410.944 111.003 409.838 112.797 408.58 114.486C398.178 128.37 386.81 141.345 373.555 152.585C371.249 154.542 368.768 156.301 366.555 158.363C364.004 160.739 361.173 162.568 357.924 163.791C356.77 158.875 355.617 153.972 354.476 149.056C358.762 146.797 362.897 144.257 366.776 141.299Z" fill="#D77062"/>
<path d="M174.588 174.472C175.054 175.753 175.846 176.417 177.209 176.801C181.985 178.129 186.853 178.956 191.745 179.632C198.618 180.587 205.56 180.68 212.478 181.053C218.442 181.367 224.417 181.728 230.381 181.146C233.631 180.831 236.869 180.354 240.107 179.946C240.561 184.873 241.074 189.8 240.561 194.762C240.41 196.23 218.815 195.566 201.786 191.978C192.561 190.033 183.755 186.702 174.798 182.788C173.424 180.61 172.713 177.733 174.588 174.472Z" fill="#D77062"/>
<path d="M238.697 282.097C239.513 279.29 240.34 276.483 241.167 273.687C241.365 273 241.621 272.336 242.25 271.905C241.772 270.904 241.4 269.844 240.806 268.912C238.942 266 236.03 265.779 233.654 268.283C232.431 269.576 231.441 271.078 231.103 272.802C230.23 277.205 227.364 280.257 224.336 283.192C222.903 284.578 221.505 285.976 220.422 287.665C219.665 288.841 219.292 290.111 219.549 291.52C219.863 293.291 221.051 294.106 222.822 293.733C223.858 293.512 224.743 292.964 225.396 292.126C226.036 291.31 226.689 290.507 227.213 289.621C228.18 288.014 229.449 286.721 231.045 285.778C233.479 284.322 235.716 282.423 238.697 282.097Z" fill="#E7A729"/>
<path d="M241.62 172.515C242.937 181.763 243.519 191.082 243.24 200.423C243.146 203.626 238.161 203.638 238.254 200.423C238.522 191.547 238.068 182.637 236.822 173.843C236.635 172.515 237.148 171.164 238.557 170.779C239.734 170.453 241.434 171.175 241.62 172.515Z" fill="#F4D9C6"/>
<path d="M354.755 143.442C358.715 156.546 361.033 170.127 361.697 183.802C361.849 187.005 356.875 186.993 356.712 183.802C356.071 170.558 353.788 157.454 349.945 144.758C349.013 141.695 353.823 140.379 354.755 143.442Z" fill="#F4D9C6"/>
<path d="M420.448 98.2724C419.609 97.3056 415.637 101.277 415.637 101.277C415.637 101.277 420.483 95.7681 419.982 94.9178C419.178 93.59 413.762 99.938 413.762 99.938C413.762 99.938 419.481 92.8678 418.025 91.9826C416.569 91.0857 411.712 98.7266 411.712 98.7266C411.712 98.7266 415.847 91.2604 414.473 90.713C413.098 90.1655 408.148 99.9962 408.148 99.9962C408.148 99.9962 406.925 94.5567 405.807 94.7431C403.908 95.0459 406.028 106.694 406.028 106.694L411.316 110.456C411.305 110.456 421.287 99.2391 420.448 98.2724Z" fill="#D77062"/>
<path d="M159.248 172.305C159.946 171.222 164.442 174.6 164.442 174.6C164.442 174.6 158.863 169.836 159.236 168.927C159.842 167.495 166.096 173.016 166.096 173.016C166.096 173.016 159.434 166.831 160.738 165.748C162.043 164.653 167.948 171.525 167.948 171.525C167.948 171.525 162.8 164.723 164.07 163.989C165.351 163.255 171.652 172.282 171.652 172.282C171.652 172.282 172.083 166.726 173.225 166.749C175.147 166.773 174.716 178.607 174.716 178.607L174.786 182.8C174.809 182.788 158.549 173.388 159.248 172.305Z" fill="#D77062"/>
<path d="M287.163 155.521C287.909 155.031 290.786 154.053 291.1 154.053C290.984 154.705 290.774 155.602 290.774 155.602C290.774 155.602 290.413 155.707 290.285 155.742C285.09 157.023 282.318 162.917 285.614 167.53C287.932 170.779 292.743 171.664 295.992 173.761C302.818 178.152 307.197 188.402 315.793 189.567C325.787 190.918 333.125 178.35 332.683 169.661C332.461 165.305 330.295 161.158 326.719 158.619C322.84 155.858 318.717 156.406 314.337 157.279C311.053 157.943 307.57 158.561 304.565 156.674C303.482 155.998 302.678 155.125 301.49 154.601C300.651 154.228 299.824 154.1 298.986 154.088C298.741 153.599 298.497 153.11 298.264 152.62C299.743 152.527 301.222 152.644 302.55 153.377C305.112 154.787 306.534 156.627 309.783 156.511C312.474 156.418 315.06 155.544 317.704 155.183C326.812 153.948 334.127 161.578 334.15 170.5C334.174 179.177 327.43 190.557 317.913 191.116C313.149 191.396 309.003 188.519 305.8 185.269C301.63 181.041 298.287 176.393 292.859 173.621C288.445 171.362 283.506 169.871 282.795 164.187C282.364 160.553 284.216 157.303 287.163 155.521Z" fill="#D88F25"/>
<path d="M281.095 147.065C281.177 148.241 282.202 149.126 283.378 149.045C284.554 148.963 285.44 147.938 285.358 146.762C285.277 145.585 284.252 144.7 283.075 144.782C281.899 144.863 281.013 145.888 281.095 147.065Z" fill="#D88F25"/>
<path d="M292.696 144.968C293.104 146.633 294.641 147.787 296.33 147.577C298.019 147.367 299.242 145.888 299.23 144.176L292.696 144.968Z" fill="white"/>
<path d="M286.371 236.706C283.774 240.643 282.9 245.255 282.621 249.891C282.329 254.585 282.423 259.326 282.469 264.031C282.562 274.328 283.203 284.671 285.882 294.653C286.127 295.562 284.729 295.946 284.484 295.038C281.724 284.753 281.095 274.083 281.013 263.472C280.978 258.475 280.839 253.42 281.281 248.435C281.666 244.032 282.656 239.688 285.125 235.96C285.626 235.192 286.884 235.925 286.371 236.706Z" fill="#C34622"/>
<path d="M284.076 291.345C268.981 287.676 254.002 283.518 239.162 278.882C238.277 278.603 238.65 277.205 239.547 277.485C254.374 282.12 269.353 286.279 284.461 289.948C285.381 290.169 284.996 291.567 284.076 291.345Z" fill="#C34622"/>
<path d="M310.447 271.835C311.181 267.094 312.613 262.505 314.675 258.184C315.083 257.345 316.329 258.079 315.933 258.918C313.93 263.122 312.567 267.618 311.845 272.219C311.705 273.14 310.307 272.744 310.447 271.835Z" fill="#C34622"/>
<path d="M312.94 265.837C317.471 268.97 322.165 271.835 326.754 274.899C333.335 279.29 339.765 283.902 345.926 288.853C350.457 292.487 353.358 297.099 353.311 303.063C353.299 304.6 353.276 306.138 353.253 307.675C353.043 323.877 352.833 340.079 352.612 356.27C352.542 361.29 352.484 366.299 352.414 371.319C352.402 372.251 350.946 372.251 350.958 371.319C351.121 358.902 351.284 346.474 351.447 334.058C351.552 326.195 351.657 318.333 351.762 310.459C351.832 304.845 352.554 298.975 349.153 294.071C347.871 292.231 346.183 290.879 344.447 289.505C342.467 287.932 340.475 286.383 338.448 284.881C334.989 282.295 331.46 279.802 327.872 277.391C322.689 273.885 317.343 270.636 312.206 267.083C311.437 266.559 312.171 265.301 312.94 265.837Z" fill="#C34622"/>
<path d="M372.192 394.055L349.199 374.895" stroke="#D88F25" stroke-width="1.4959" stroke-miterlimit="10"/>
<path d="M238.651 267.642C236.554 269.075 235.669 271.509 234.842 273.804C234.003 276.145 233.118 278.381 231.686 280.431C230.206 282.539 228.413 284.403 226.514 286.127C224.767 287.723 221.249 289.878 221.82 292.65C222.006 293.558 220.609 293.954 220.422 293.034C219.886 290.413 221.727 288.398 223.567 286.791C225.943 284.718 228.319 282.609 230.195 280.047C231.919 277.682 232.815 275.062 233.84 272.359C234.714 270.018 235.82 267.828 237.929 266.384C238.686 265.86 239.42 267.118 238.651 267.642Z" fill="#D88F25"/>
<path d="M150.769 59.5434C149.593 59.0192 147.66 64.2956 147.66 64.2956C147.66 64.2956 149.756 57.2604 148.941 56.7013C147.66 55.8277 145.4 63.8647 145.4 63.8647C145.4 63.8647 147.636 55.059 145.947 54.8493C144.258 54.6397 143.035 63.6084 143.035 63.6084C143.035 63.6084 143.664 55.1056 142.197 55.1755C140.717 55.257 140.333 66.2525 140.333 66.2525C140.333 66.2525 136.955 61.8263 136 62.4553C134.404 63.5152 141.195 73.2178 141.195 73.2178L147.578 74.4292C147.555 74.4408 151.934 60.0675 150.769 59.5434Z" fill="#D77062"/>
<path d="M0.059329 126.192C0.956206 125.271 4.70677 129.453 4.70677 129.453C4.70677 129.453 0.164156 123.687 0.7116 122.872C1.58518 121.579 6.65199 128.218 6.65199 128.218C6.65199 128.218 1.31728 120.857 2.81984 120.042C4.31075 119.226 8.76023 127.112 8.76023 127.112C8.76023 127.112 5.03296 119.436 6.43069 118.958C7.82841 118.481 12.2546 128.568 12.2546 128.568C12.2546 128.568 13.7688 123.21 14.8753 123.443C16.7506 123.839 14.0134 135.37 14.0134 135.37L8.52727 138.841C8.53891 138.853 -0.825899 127.112 0.059329 126.192Z" fill="#D77062"/>
<path d="M8.3756 137.234C11.1827 135.312 13.9083 133.25 16.6105 131.189C16.727 131.375 16.8552 131.573 16.9949 131.806C21.4211 139.284 26.0569 146.61 31.3682 153.506C32.7776 155.335 33.9541 157.338 35.4799 159.085C36.7146 160.506 36.7378 160.506 37.9259 159.039C40.6864 155.626 43.0742 151.957 45.3572 148.206C47.9313 143.966 50.8666 139.983 54.4774 136.582C59.649 131.69 65.7174 128.475 72.8692 127.753C76.8294 127.345 80.8246 127.496 84.8081 127.788C85.507 130.711 86.1127 133.67 88.1976 136.034C90.632 138.818 94.2078 139.366 97.411 137.49C100.171 135.871 101.406 133.309 102.047 130.35C102.21 129.581 102.326 128.801 102.466 128.021C106.356 127.834 110.235 127.298 114.149 127.403C114.987 127.427 115.675 127.065 116.373 126.669C120.171 124.48 124.154 122.686 128.301 121.242C133.892 119.285 138.749 115.849 144.095 113.403C144.911 113.03 144.992 112.494 144.841 111.667C143.571 104.946 142.383 98.2024 141.113 91.4816C139.844 84.7609 138.015 78.1566 136.92 71.3893C136.897 71.2378 136.874 71.0864 136.862 70.9583C141.509 70.6322 146.168 70.3293 150.781 69.7236C150.874 69.91 150.979 70.108 151.06 70.3177C153.739 76.6191 156.255 82.9904 158.34 89.5248C160.204 95.3603 162.149 101.184 164.292 106.927C165.597 110.433 166.843 113.962 167.542 117.666C167.996 120.088 167.81 122.406 166.82 124.678C165.282 128.23 162.965 131.259 160.472 134.171C153.681 142.079 146.25 148.125 137.98 154.426C136.78 155.346 135.557 156.278 134.637 157.489C130.793 162.568 130.968 174.507 130.421 180.855C129.85 187.564 136.303 193.388 137.235 199.852C137.829 203.941 136.874 208.076 134.777 211.616C132.587 215.332 128.918 219.618 125.214 221.913C119.285 225.582 112.809 227.609 105.902 228.308C102.012 228.692 98.0982 228.844 94.2195 228.284C87.6851 227.353 82.3038 224.033 77.3069 219.945C76.8177 219.549 76.3402 219.118 75.8626 218.71C75.0007 217.568 74.0922 216.462 73.3001 215.274C70.1669 210.533 69.2583 205.292 70.0154 199.747C71.1336 191.536 70.3765 183.394 69.5029 175.229C69.3632 173.924 68.8274 172.981 67.5229 172.538C66.2882 172.131 65.8223 173.156 65.1817 173.785C60.4527 178.409 55.5722 182.847 50.5171 187.11C47.943 189.276 45.1359 191.07 42.1075 192.526C38.9276 194.052 35.9574 193.597 33.0921 191.699C31.1818 190.429 29.8307 188.67 28.7009 186.737C25.5327 181.309 22.2597 175.951 19.5341 170.267C16.6805 164.315 13.6287 158.456 10.7517 152.516C8.63182 148.125 6.87305 143.594 5.98781 138.76C6.80316 138.236 7.60684 137.758 8.3756 137.234Z" fill="#1F2241"/>
<path d="M125.203 221.878C119.274 225.547 112.798 227.574 105.891 228.273C102 228.657 98.0867 228.808 94.208 228.249C87.6736 227.317 82.2923 223.998 77.2955 219.909C76.8063 219.513 76.3287 219.082 75.8512 218.675C73.673 222.903 71.0872 226.91 69.8992 231.627C67.0688 242.879 69.0721 253.047 76.3403 262.133C82.071 269.308 88.3958 275.9 95.6174 281.596C96.293 282.132 96.8404 282.831 97.4461 283.46C98.0284 283.518 98.4594 283.856 98.902 284.205C100.754 285.708 102.571 287.245 104.505 288.643C110.422 292.929 116.246 297.367 122.663 300.931C125.016 302.236 124.958 302.364 123.409 304.74C120.59 309.073 117.585 313.289 114.953 317.739C112.565 320.43 110.561 323.4 108.581 326.382C105.891 330.423 103.398 334.605 100.696 338.635C99.7523 340.044 99.368 341.267 100.416 342.712C102.921 345.53 105.064 348.629 107.055 351.82C108.139 352.67 108.779 353.894 109.571 354.965C110.13 355.722 110.643 355.78 111.319 355.175C113.45 353.265 115.582 351.366 117.713 349.456C119.192 348.128 120.625 346.753 122.291 345.647C126.729 342.048 131.166 338.449 135.616 334.849C139.937 331.355 144.223 327.814 148.603 324.39C151.538 322.095 154.101 319.335 157.304 317.366C160.227 314.443 163.139 311.507 166.086 308.607C168.136 306.592 169.965 304.379 171.631 302.038C175.171 297.041 175.148 293.15 171.526 288.258C167.624 282.994 163.093 278.276 158.422 273.71C155.627 270.985 152.831 268.259 150.21 265.359C143.839 258.324 137.165 251.591 130.607 244.742C129.734 243.822 129.291 242.949 129.303 241.609C129.373 234.76 127.672 228.238 125.203 221.878Z" fill="#E8A628"/>
<path d="M157.327 317.378C154.124 319.346 151.561 322.107 148.626 324.402C144.247 327.826 139.96 331.367 135.639 334.861C131.201 338.46 126.763 342.06 122.314 345.659C122.174 348.454 121.3 351.098 120.637 353.789C118.435 362.723 116.304 371.668 114.487 380.695C114.137 382.454 114.195 382.477 115.826 383.048C116.723 383.362 117.631 383.642 118.54 383.933C122.291 385.098 126.053 386.263 129.803 387.427C130.84 387.824 131.877 388.231 132.913 388.616C134.882 389.326 134.893 389.326 135.639 387.462C137.083 383.84 138.469 380.206 139.949 376.595C143.024 369.094 146.075 361.581 149.243 354.115C152.936 345.379 155.708 336.329 158.492 327.29C159.517 323.971 159.109 320.511 157.327 317.378Z" fill="#E28A21"/>
<path d="M114.953 317.751C117.585 313.301 120.59 309.085 123.409 304.752C124.958 302.376 125.016 302.247 122.663 300.943C116.245 297.379 110.422 292.941 104.505 288.654C102.583 287.257 100.754 285.708 98.9019 284.217C98.4593 283.856 98.0283 283.529 97.4459 283.471C99.1465 286.872 100.812 290.297 102.559 293.663C106.333 300.908 110.165 308.129 113.962 315.363C114.37 316.12 114.941 316.819 114.953 317.751Z" fill="#E28A21"/>
<path d="M129.815 387.428C126.053 386.263 122.302 385.098 118.551 383.934C118.447 384.959 118.353 385.984 118.237 387.009C117.946 389.455 118.505 391.679 120.322 393.333C125.493 398.051 130.327 403.141 135.918 407.392C136.617 407.928 137.293 408.499 138.155 408.732C139.715 409.163 140.67 408.417 140.566 406.786C140.426 404.725 139.401 402.989 138.213 401.394C137.363 400.252 136.384 399.181 135.336 398.214C132.354 395.465 131.178 391.679 129.465 388.208C129.279 387.871 129.57 387.638 129.815 387.428Z" fill="#DD6A3E"/>
<path d="M107.067 351.832C105.064 348.641 102.932 345.542 100.428 342.724C97.2248 344.657 95.9552 347.499 96.4561 351.192C96.8171 353.859 97.085 356.55 97.4694 359.217C97.8538 361.814 97.9819 364.423 97.9237 367.044C97.9004 368.092 98.0401 369.117 98.4012 370.084C98.9952 371.727 100.486 372.076 101.779 370.888C102.676 370.061 103.258 369.001 103.561 367.836C103.969 366.31 104.342 364.75 104.528 363.189C105.017 359.322 105.867 355.536 107.067 351.832Z" fill="#DD6A3E"/>
<path d="M84.0858 103.153C85.8912 102.815 87.6849 104.178 88.4071 106.286C88.5352 106.205 88.6866 106.1 88.8381 105.972C89.7815 105.226 90.4804 104.341 90.8881 103.281C91.0977 102.745 91.2258 102.163 91.2607 101.522C91.2957 100.858 91.3307 100.183 91.3656 99.3208C91.3772 99.3208 91.3773 99.3325 91.3889 99.3325C92.2974 99.6819 92.8915 100.206 93.4273 100.753C93.602 100.928 93.8699 100.311 94.0446 100.486C96.5022 102.967 98.8551 103.269 102.652 103.526C103.13 103.561 103.572 103.281 104.027 103.165C104.341 102.908 104.644 102.652 104.924 102.396C105.18 103.514 105.32 104.69 105.32 105.913C105.32 108.988 104.434 111.784 103.002 113.915C102.978 113.95 102.955 113.985 102.932 114.02C101.581 115.977 99.752 117.352 97.6903 117.841C97.271 118.365 97.1429 119.029 97.2477 119.937C97.3059 120.403 97.236 120.892 97.3176 121.358C97.8068 124.119 98.727 126.577 101.918 127.252C102.268 127.322 102.315 127.718 102.466 127.986C102.326 128.766 102.21 129.547 102.047 130.315C101.394 133.274 100.16 135.836 97.4108 137.456C94.2077 139.342 90.6318 138.783 88.1974 136C86.1241 133.623 85.5184 130.677 84.8079 127.753C88.6633 125.237 90.8298 121.743 91.0511 117.107C91.0627 116.792 91.1326 116.478 91.1326 116.175C89.6767 114.975 88.5003 113.263 87.7432 111.236C87.254 111.854 86.6133 112.308 85.8446 112.448C83.8179 112.832 81.7795 111.05 81.3019 108.488C80.8011 105.925 82.0474 103.537 84.0858 103.153Z" fill="#D77062"/>
<path d="M82.1759 79.0421C84.4239 77.0619 87.2194 76.794 90.0032 78.1452C92.7871 79.4963 94.1381 81.7327 94.1731 84.831C94.1847 86.0424 93.9984 87.2421 93.7305 88.5816C95.4078 87.6614 97.2132 86.9975 99.1001 86.7412C102.129 86.3335 105.367 87.0324 107.708 89.0009C110.037 90.9694 111.307 94.2773 110.492 97.2125C109.606 100.451 106.578 102.361 103.55 103.304C99.0186 104.714 95.035 102.116 91.3427 99.7751C91.3194 100.427 91.2961 100.986 91.2612 101.534C91.1563 103.397 90.2711 104.853 88.8385 105.983C87.7902 106.799 87.3825 106.81 86.7768 105.878C86.7302 105.785 86.6719 105.704 86.6021 105.599C86.3109 105.133 86.0896 104.609 85.845 104.12C85.4723 102.268 85.2276 100.404 85.2975 98.552C80.5219 98.0745 78.0876 94.8597 77.5168 91.179C76.7481 86.2404 78.5651 82.2102 82.1759 79.0421Z" fill="#383F7D"/>
<path d="M86.9288 226.455C80.5458 237.661 87.022 251.207 93.964 260.467C101.162 270.076 110.737 277.647 120.672 284.263C126.298 288.002 132.099 291.462 137.899 294.909C138.703 295.387 137.969 296.645 137.166 296.167C126.345 289.761 115.477 283.238 105.88 275.05C96.7362 267.246 88.0237 257.38 84.4013 245.698C82.3629 239.117 82.1765 231.86 85.6708 225.733C86.1367 224.906 87.3947 225.64 86.9288 226.455Z" fill="#D88F25"/>
<path d="M141.242 292.498C129.244 310.261 116.257 327.348 102.361 343.667C101.756 344.377 100.731 343.352 101.336 342.642C115.151 326.416 128.056 309.434 139.995 291.776C140.508 290.995 141.766 291.729 141.242 292.498Z" fill="#D88F25"/>
<path d="M118.471 389.827C124.073 397.573 131.912 403.234 139.588 408.755C140.345 409.29 139.612 410.56 138.854 410.013C130.957 404.34 122.967 398.528 117.213 390.561C116.677 389.804 117.935 389.082 118.471 389.827Z" fill="#F9EFE6"/>
<path d="M136.117 398.714C134.405 400.054 132.739 401.428 131.097 402.849C130.806 403.105 130.363 403.14 130.072 402.849C129.804 402.581 129.769 402.08 130.072 401.824C131.714 400.403 133.391 399.029 135.092 397.689C135.395 397.445 135.814 397.386 136.117 397.689C136.361 397.934 136.42 398.47 136.117 398.714Z" fill="#F9EFE6"/>
<path d="M134.801 396.35C132.436 397.631 130.13 399.029 127.894 400.52C127.567 400.741 127.09 400.578 126.904 400.263C126.694 399.902 126.834 399.483 127.16 399.273C129.396 397.782 131.702 396.396 134.067 395.103C134.894 394.649 135.628 395.895 134.801 396.35Z" fill="#F9EFE6"/>
<path d="M97.1202 355.827C99.9506 357.726 102.898 359.427 105.949 360.929C106.788 361.337 106.054 362.595 105.215 362.187C102.164 360.685 99.2168 358.984 96.3864 357.085C95.6177 356.573 96.3398 355.315 97.1202 355.827Z" fill="#F9EFE6"/>
<path d="M96.8054 359.648C99.7406 361.453 102.746 363.13 105.821 364.703C106.648 365.122 105.914 366.38 105.087 365.961C102.024 364.4 99.0068 362.711 96.0716 360.906C95.2795 360.416 96.0017 359.158 96.8054 359.648Z" fill="#F9EFE6"/>
<path d="M96.5026 346.812C96.7007 351.04 97.0151 355.257 97.4461 359.462C97.6558 361.523 97.9004 363.585 98.1683 365.635C98.4362 367.673 98.5526 369.875 99.7058 371.633C100.218 372.414 98.9604 373.148 98.4479 372.367C97.353 370.702 97.1316 368.757 96.8637 366.811C96.5725 364.691 96.3163 362.572 96.0833 360.44C95.5941 355.909 95.2564 351.355 95.0351 346.8C95.0118 345.88 96.4677 345.88 96.5026 346.812Z" fill="#F9EFE6"/>
<path d="M86.6021 99.3433C80.6195 99.3433 75.7697 93.7686 75.7697 86.8919C75.7697 80.0151 80.6195 74.4404 86.6021 74.4404C92.5847 74.4404 97.4346 80.0151 97.4346 86.8919C97.4346 93.7686 92.5847 99.3433 86.6021 99.3433Z" fill="#383F7D"/>
<path d="M94.1496 109.605C94.4408 111.294 95.8852 112.552 97.5857 112.471C99.2863 112.389 100.603 110.992 100.719 109.279L94.1496 109.605Z" fill="white"/>
<path d="M311.112 425.003C311.112 427.763 313.349 430 316.109 430C318.87 430 321.106 427.763 321.106 425.003C321.106 422.242 318.87 420.006 316.109 420.006C313.349 420.018 311.112 422.254 311.112 425.003Z" fill="#E8A628"/>
<path d="M194.215 233.945C194.215 235.914 195.811 237.509 197.78 237.509C199.748 237.509 201.344 235.914 201.344 233.945C201.344 231.977 199.748 230.381 197.78 230.381C195.811 230.381 194.215 231.977 194.215 233.945Z" fill="#E8A628"/>
<path d="M28.7361 76.9566C28.7361 79.822 31.0541 82.1515 33.9311 82.1515C36.7964 82.1515 39.126 79.822 39.126 76.9566C39.126 74.0913 36.808 71.7617 33.9311 71.7617C31.0657 71.7734 28.7361 74.0913 28.7361 76.9566Z" fill="#E8A628"/>
<path d="M52.7187 386.915C52.7187 388.732 54.1864 390.2 56.0034 390.2C57.8205 390.2 59.2881 388.732 59.2881 386.915C59.2881 385.098 57.8205 383.63 56.0034 383.63C54.1864 383.63 52.7187 385.098 52.7187 386.915Z" fill="#E8A628"/>
<path d="M182.253 379.193C182.253 381.289 183.953 382.99 186.05 382.99C188.147 382.99 189.847 381.289 189.847 379.193C189.847 377.096 188.147 375.396 186.05 375.396C183.953 375.396 182.253 377.096 182.253 379.193Z" fill="#E8A628"/>
<path d="M336.818 109.186C336.818 111.003 338.286 112.471 340.103 112.471C341.92 112.471 343.388 111.003 343.388 109.186C343.388 107.369 341.92 105.901 340.103 105.901C338.286 105.901 336.818 107.369 336.818 109.186Z" fill="#D77062"/>
<path d="M255.68 51.436C253.885 51.436 252.43 49.981 252.43 48.1862C252.43 46.3915 253.885 44.9365 255.68 44.9365C257.474 44.9365 258.929 46.3915 258.929 48.1862C258.929 49.981 257.474 51.436 255.68 51.436Z" fill="#D77062"/>
<path d="M216.253 253.606C214.484 253.606 213.05 252.172 213.05 250.403C213.05 248.634 214.484 247.2 216.253 247.2C218.022 247.2 219.457 248.634 219.457 250.403C219.457 252.172 218.022 253.606 216.253 253.606Z" fill="#D77062"/>
<path d="M305.964 357.388C305.964 359.694 307.828 361.558 310.134 361.558C312.44 361.558 314.304 359.694 314.304 357.388C314.304 355.081 312.44 353.218 310.134 353.218C307.839 353.218 305.964 355.081 305.964 357.388Z" fill="#D77062"/>
<path d="M90.376 55.5712C88.2918 55.5712 86.6021 53.8816 86.6021 51.7973C86.6021 49.7131 88.2918 48.0234 90.376 48.0234C92.4603 48.0234 94.1499 49.7131 94.1499 51.7973C94.1499 53.8816 92.4603 55.5712 90.376 55.5712Z" fill="#D77062"/>
<path d="M74.4644 366.765C74.4644 367.557 75.105 368.209 75.9087 368.209C76.7008 368.209 77.353 367.568 77.353 366.765C77.353 365.973 76.7124 365.32 75.9087 365.32C75.105 365.332 74.4644 365.973 74.4644 366.765Z" fill="#D77062"/>
<path d="M7.79247 309.329C6.06846 309.329 4.67089 307.932 4.67089 306.208C4.67089 304.484 6.06846 303.086 7.79247 303.086C9.51648 303.086 10.9141 304.484 10.9141 306.208C10.9141 307.932 9.51648 309.329 7.79247 309.329Z" fill="#D77062"/>
<path d="M316.109 0L312.009 7.47785L304.543 11.5662L312.009 15.6546L316.109 23.1324L320.197 15.6546L327.675 11.5662L320.197 7.47785L316.109 0Z" fill="#F8EBE5"/>
<path d="M329.957 326.684L328.071 330.143L324.611 332.03L328.071 333.929L329.957 337.388L331.856 333.929L335.315 332.03L331.856 330.143L329.957 326.684Z" fill="#F8EBE5"/>
<path d="M258.93 386.46L256.007 391.807L250.66 394.73L256.007 397.654L258.93 403L261.854 397.654L267.2 394.73L261.854 391.807L258.93 386.46Z" fill="#F8EBE5"/>
<path d="M238.29 318.461L236.415 321.862L233.014 323.726L236.415 325.589L238.29 329.002L240.154 325.589L243.555 323.726L240.154 321.862L238.29 318.461Z" fill="#F8EBE5"/>
<path d="M63.8656 22.9116L62.5144 25.3809L60.0451 26.7321L62.5144 28.0832L63.8656 30.5525L65.2167 28.0832L67.686 26.7321L65.2167 25.3809L63.8656 22.9116Z" fill="#F8EBE5"/>
<path d="M124.515 11.5664L122.827 14.6531L119.752 16.342L122.827 18.0193L124.515 21.1059L126.204 18.0193L129.291 16.342L126.204 14.6531L124.515 11.5664Z" fill="#F8EBE5"/>
<path d="M340.104 37.0635L338.415 40.1501L335.328 41.8391L338.415 43.5163L340.104 46.603L341.793 43.5163L344.868 41.8391L341.793 40.1501L340.104 37.0635Z" fill="#F8EBE5"/>
<path d="M15.5386 351.028L13.1974 355.315L8.89934 357.668L13.1974 360.02L15.5386 364.307L17.8914 360.02L22.1777 357.668L17.8914 355.315L15.5386 351.028Z" fill="#F8EBE5"/>
<path d="M229.647 402.185L227.295 406.471L223.008 408.824L227.295 411.165L229.647 415.463L232 411.165L236.287 408.824L232 406.471L229.647 402.185Z" fill="#F8EBE5"/>
</svg>
