<svg width="121" height="145" viewBox="0 0 121 145" fill="none" xmlns="http://www.w3.org/2000/svg">
<path d="M18.9566 71.654C14.95 78.9783 13.3671 87.3837 14.435 95.6636C15.503 103.944 19.167 111.672 24.9009 117.74C30.6349 123.808 38.144 127.903 46.3503 129.438C54.5566 130.972 63.038 129.867 70.5772 126.281L53.6105 90.6106L18.9566 71.654Z" fill="#42513A"/>
<ellipse cx="54.5002" cy="89.5422" rx="37.5" ry="38" fill="#718463"/>
<path d="M71.937 0H111.854C116.79 0 120.791 4.00155 120.791 8.9368V30.9846C120.791 35.9198 116.79 39.9214 111.854 39.9214H84.1417L78.4179 45.6452L76.5819 39.9214H71.937C67.0017 39.9214 63.0002 35.9198 63.0002 30.9846V8.9368C63.0002 4.00155 67.0017 0 71.937 0Z" fill="#EC791E"/>
<mask id="mask0" mask-type="alpha" maskUnits="userSpaceOnUse" x="17" y="52" width="76" height="76">
<ellipse cx="54.5002" cy="90" rx="37.5" ry="38" fill="#6395CE"/>
</mask>
<g mask="url(#mask0)">
<path d="M62.6813 102.083C59.5097 100.351 60.3737 91.9884 60.3737 91.9884L55.6238 92.2951V91.9884L55.1152 92.1417L54.6066 91.9884V92.2951L49.8568 91.9884C49.8568 91.9884 50.7207 100.351 47.5492 102.083C44.3776 103.814 25.6327 104.678 27.6486 123.999H54.6066H55.6238H82.5819C84.6015 104.678 65.8565 103.811 62.6813 102.083Z" fill="#99605D"/>
<path d="M49.191 99.9247C52.9872 99.36 56.7795 98.7765 60.5682 98.1744C60.0333 95.2908 60.3774 91.9884 60.3774 91.9884L55.6276 92.2951V91.9884L55.119 92.1417L54.6103 91.9884V92.2951L49.8605 91.9884C49.8568 91.9847 50.3579 96.8467 49.191 99.9247Z" fill="#76413B"/>
<path d="M66.6757 102.879C64.974 107.323 60.4411 110.502 55.1191 110.502C49.797 110.502 45.2641 107.323 43.5624 102.879C37.0286 104.671 25.5393 108.508 27.1588 123.999L50.0002 130.5L56.0002 130L83.0831 123.999C84.6951 108.508 73.2095 104.671 66.6757 102.879Z" fill="#FDEDEE"/>
<path opacity="0.1" d="M78.6139 108.949C71.6051 113.486 63.1489 115.263 55.2874 117.768C47.9158 120.117 40.4545 122.148 32.9446 123.999L53.0002 129.5L83.0757 123.999C83.8312 116.77 81.733 112.08 78.6139 108.949Z" fill="#352C38"/>
<path d="M67.7789 103.194V127.5L83.0756 123.999C84.609 109.35 74.4174 105.123 67.7789 103.194Z" fill="#213346"/>
<path d="M42.3466 103.224C35.708 105.169 25.6324 109.429 27.1546 124L42.5002 128L42.3466 103.224Z" fill="#213346"/>
<path d="M42.5298 103.224V123.999C42.5298 123.999 34.8628 110.928 35.2368 106.44C35.6108 101.952 41.7818 101.686 42.5298 103.224Z" fill="#DFDFDF"/>
<path d="M67.3931 103.224V123.999C67.3931 123.999 75.0601 110.928 74.6861 106.44C74.3121 101.952 68.1411 101.686 67.3931 103.224Z" fill="#DFDFDF"/>
<path d="M45.8283 79.7437C44.8933 76.8452 42.6792 77.5147 42.4735 77.5857C42.2566 77.6119 39.9677 77.9523 40.3641 80.9705C40.7606 84.0111 42.5259 85.6567 44.179 85.1742C45.8769 84.9012 46.767 82.6609 45.8283 79.7437Z" fill="#76413B"/>
<path d="M64.4907 79.7437C65.4257 76.8452 67.6398 77.5147 67.8455 77.5857C68.0625 77.6119 70.3513 77.9523 69.9549 80.9705C69.5585 84.0111 67.7932 85.6567 66.1401 85.1742C64.4384 84.9012 63.5483 82.6609 64.4907 79.7437Z" fill="#76413B"/>
<path d="M43.5586 75.3492C44.718 62.6369 54.3822 63.3475 55.291 63.4448C56.2036 63.3475 65.8678 62.6369 67.0234 75.3492C68.1903 88.1363 62.4943 96.4878 55.291 96.0315C48.0915 96.4915 42.3955 88.1401 43.5586 75.3492Z" fill="#99605D"/>
<path d="M56.9587 76.8414C57.1195 77.4249 57.243 78.0121 57.3552 78.603C57.4674 79.1902 57.5609 79.7811 57.6431 80.3757C57.688 80.6712 57.7179 80.9704 57.7553 81.2659C57.7927 81.5613 57.8227 81.8605 57.8526 82.156C57.9162 82.7506 57.9573 83.3453 57.9947 83.9437L58.0059 84.1045L57.89 84.1719C57.5085 84.4075 57.1233 84.6319 56.7343 84.8525C56.3416 85.0695 55.9489 85.2864 55.5413 85.4809C55.8704 85.1704 56.2145 84.8825 56.5585 84.5945C56.9064 84.3102 57.2579 84.0335 57.6132 83.7605L57.5085 83.9923C57.4113 83.4014 57.3252 82.8105 57.2542 82.2158C57.2168 81.9204 57.1794 81.6212 57.1532 81.3257C57.127 81.0265 57.0896 80.731 57.0709 80.4318C57.0223 79.8372 56.9849 79.2388 56.9625 78.6404C56.94 78.0457 56.9325 77.4436 56.9587 76.8414Z" fill="#76413B"/>
<path d="M60.2204 87.766C57.9203 90.0025 54.0232 89.8791 51.0686 87.8857Z" fill="white"/>
<path d="M64.4085 75.8989C64.4085 75.8989 64.3075 75.8428 64.1317 75.7456C64.0457 75.697 63.941 75.6409 63.8251 75.5773C63.7091 75.5175 63.5782 75.4464 63.4324 75.3716C63.2828 75.308 63.1369 75.222 62.9686 75.1584C62.8863 75.121 62.804 75.0874 62.7218 75.05C62.6357 75.02 62.5497 74.9864 62.46 74.9565C62.2879 74.8817 62.1009 74.8517 61.9214 74.7882C61.7344 74.7695 61.5549 74.6984 61.3679 74.7059L61.0911 74.6834C61.0014 74.6947 60.9079 74.6984 60.8181 74.7021C60.6348 74.6947 60.4628 74.762 60.287 74.7844C60.1112 74.8143 59.9504 74.8966 59.7859 74.9415L59.6624 74.9789L59.5502 75.035C59.4754 75.0724 59.4006 75.1061 59.3296 75.1397C59.1875 75.2108 59.0453 75.2594 58.9369 75.3342C58.8247 75.4053 58.7199 75.4576 58.6339 75.5062C58.4581 75.5997 58.3459 75.6484 58.3459 75.6484C58.3459 75.6484 58.3908 75.5436 58.4881 75.3641C58.5367 75.2744 58.5965 75.1659 58.6751 75.0462C58.7461 74.9191 58.8546 74.7994 58.9818 74.6722C59.1127 74.5488 59.2286 74.3805 59.4119 74.2758C59.5914 74.1673 59.7672 74.0177 59.9878 73.9354C60.0963 73.8905 60.2122 73.8494 60.3282 73.812C60.4441 73.7634 60.5638 73.7409 60.6909 73.726C60.8144 73.7073 60.9415 73.6886 61.0724 73.6774C61.1996 73.6774 61.3267 73.6886 61.4576 73.6961C61.7157 73.6998 61.9551 73.7858 62.1982 73.8457C62.3141 73.8868 62.4226 73.9354 62.5348 73.984C62.647 74.0289 62.7517 74.0813 62.8452 74.1449C62.9424 74.2047 63.0397 74.2608 63.1294 74.3207C63.2154 74.388 63.2977 74.4516 63.3763 74.5189C63.5408 74.6423 63.6642 74.7919 63.7877 74.9153C64.0195 75.1809 64.1804 75.424 64.2739 75.6072C64.3711 75.7867 64.4085 75.8989 64.4085 75.8989Z" fill="#352C38"/>
<path d="M52.3701 75.8989C52.3701 75.8989 52.2691 75.8428 52.0933 75.7456C52.0073 75.697 51.9026 75.6409 51.7866 75.5773C51.6707 75.5175 51.5398 75.4464 51.3939 75.3716C51.2443 75.308 51.0984 75.222 50.9301 75.1584C50.8479 75.121 50.7656 75.0874 50.6833 75.05C50.5973 75.02 50.5113 74.9864 50.4215 74.9565C50.2495 74.8817 50.0625 74.8517 49.8829 74.7882C49.6959 74.7695 49.5164 74.6984 49.3294 74.7059L49.0527 74.6834C48.9629 74.6947 48.8694 74.6984 48.7796 74.7021C48.5964 74.6947 48.4243 74.762 48.2486 74.7844C48.0728 74.8143 47.912 74.8966 47.7474 74.9415L47.624 74.9789L47.5118 75.035C47.437 75.0724 47.3622 75.1061 47.2911 75.1397C47.149 75.2108 47.0069 75.2594 46.8984 75.3342C46.7862 75.4053 46.6815 75.4576 46.5955 75.5062C46.4197 75.5997 46.3075 75.6484 46.3075 75.6484C46.3075 75.6484 46.3524 75.5436 46.4496 75.3641C46.4982 75.2744 46.5581 75.1659 46.6366 75.0462C46.7077 74.9191 46.8161 74.7994 46.9433 74.6722C47.0742 74.5488 47.1901 74.3805 47.3734 74.2758C47.5529 74.1673 47.7287 74.0177 47.9494 73.9354C48.0578 73.8905 48.1738 73.8494 48.2897 73.812C48.4056 73.7634 48.5253 73.7409 48.6525 73.726C48.7759 73.7073 48.9031 73.6886 49.034 73.6774C49.1611 73.6774 49.2883 73.6886 49.4192 73.6961C49.6772 73.6998 49.9166 73.7858 50.1597 73.8457C50.2756 73.8868 50.3841 73.9354 50.4963 73.984C50.6085 74.0289 50.7132 74.0813 50.8067 74.1449C50.904 74.2047 51.0012 74.2608 51.091 74.3207C51.177 74.388 51.2593 74.4516 51.3378 74.5189C51.5024 74.6423 51.6258 74.7919 51.7492 74.9153C51.9811 75.1809 52.1419 75.424 52.2354 75.6072C52.3327 75.7867 52.3701 75.8989 52.3701 75.8989Z" fill="#352C38"/>
<path d="M51.9878 80.5066C51.9878 80.5066 51.9616 80.4018 51.9017 80.2298C51.8419 80.0578 51.7521 79.8147 51.61 79.5491C51.4642 79.2836 51.2622 78.9993 50.9817 78.7899C50.8433 78.6852 50.6825 78.5992 50.5105 78.5468C50.4244 78.5169 50.3384 78.4907 50.2449 78.4832C50.1514 78.472 50.0617 78.4533 49.9644 78.4608C49.8747 78.4645 49.7625 78.4533 49.6914 78.4645C49.5942 78.4832 49.4707 78.487 49.3959 78.5169C49.2426 78.5655 49.0706 78.6253 48.9397 78.7338C48.8013 78.831 48.6928 78.9619 48.5956 79.0928C48.5096 79.2312 48.4348 79.3733 48.3787 79.5117C48.2702 79.7922 48.2141 80.0465 48.1842 80.2223C48.1505 80.4018 48.143 80.5066 48.143 80.5066C48.143 80.5066 48.1131 80.4056 48.0944 80.2186C48.0757 80.0316 48.0645 79.7623 48.1318 79.4369C48.1655 79.2761 48.2178 79.1003 48.3076 78.9245C48.4011 78.7525 48.517 78.5692 48.6928 78.4309C48.8574 78.2813 49.0631 78.1691 49.3024 78.098C49.4221 78.0569 49.5119 78.0569 49.6166 78.0344C49.7512 78.012 49.8522 78.0232 49.9682 78.0157C50.0804 78.0082 50.1963 78.0344 50.3122 78.0531C50.4282 78.0643 50.5366 78.1017 50.6451 78.1429C50.7573 78.1728 50.8583 78.2326 50.9518 78.2925C51.0528 78.3448 51.135 78.4196 51.2211 78.4907C51.5502 78.7824 51.7297 79.1452 51.8344 79.4519C51.9391 79.7623 51.9691 80.0316 51.9803 80.2186C51.999 80.3981 51.9878 80.5066 51.9878 80.5066Z" fill="#352C38"/>
<path d="M62.8041 80.3308C62.8041 80.3308 62.7779 80.2261 62.718 80.054C62.6582 79.882 62.5684 79.6389 62.4263 79.3733C62.2805 79.1078 62.0785 78.8236 61.798 78.6141C61.6596 78.5094 61.4988 78.4234 61.3267 78.371C61.2407 78.3411 61.1547 78.3149 61.0612 78.3074C60.9677 78.2962 60.8779 78.2775 60.7807 78.285C60.6909 78.2887 60.5787 78.2775 60.5077 78.2887C60.4104 78.3074 60.287 78.3112 60.2122 78.3411C60.0589 78.3897 59.8868 78.4496 59.7559 78.558C59.6176 78.6553 59.5091 78.7862 59.4119 78.9171C59.3258 79.0554 59.251 79.1976 59.1949 79.3359C59.0865 79.6164 59.0304 79.8708 59.0005 80.0465C58.9668 80.2261 58.9593 80.3308 58.9593 80.3308C58.9593 80.3308 58.9294 80.2298 58.9107 80.0428C58.892 79.8558 58.8808 79.5865 58.9481 79.2611C58.9818 79.1003 59.0341 78.9245 59.1239 78.7488C59.2174 78.5767 59.3333 78.3935 59.5091 78.2551C59.6737 78.1055 59.8794 77.9933 60.1187 77.9222C60.2384 77.8811 60.3282 77.8811 60.4329 77.8586C60.5675 77.8362 60.6685 77.8474 60.7844 77.8399C60.8966 77.8325 61.0126 77.8586 61.1285 77.8773C61.2445 77.8886 61.3529 77.926 61.4614 77.9671C61.5736 77.997 61.6746 78.0569 61.7681 78.1167C61.8691 78.1691 61.9513 78.2439 62.0374 78.3149C62.3665 78.6066 62.546 78.9694 62.6507 79.2761C62.7554 79.5865 62.7854 79.8558 62.7966 80.0428C62.8153 80.2261 62.8041 80.3308 62.8041 80.3308Z" fill="#352C38"/>
<path d="M67.5311 65.5503C66.8804 62.9435 65.3245 62.2853 64.5765 62.117C64.1464 55.3962 46.1944 54.1657 45.9625 55.4523C45.7119 56.8249 52.3205 59.0689 52.3205 59.0689C52.3205 59.0689 40.4759 55.9535 41.1005 58.6949C41.6054 60.9239 46.3889 60.6846 48.1691 60.5125C45.6708 60.8229 37.1249 62.1955 40.9771 66.0477C41.2912 66.3619 41.6353 66.6312 41.9944 66.8668C41.6353 71.6428 43.0528 82.8778 43.0528 82.8778H44.0514L43.6774 75.1472C45.6109 74.762 46.4936 70.1805 46.7928 68.1421C50.0653 68.187 53.3528 67.0762 54.5683 66.6162C53.8352 66.9566 52.6796 67.7382 53.9437 68.9126C55.234 70.1131 59.8641 68.6508 62.1904 67.8093C62.6168 69.6307 63.9931 74.7358 66.0389 75.1472L65.6649 82.8778H66.6635C66.656 82.8778 68.4026 69.0398 67.5311 65.5503Z" fill="#FDDEC0"/>
<path d="M67.5314 65.5504C66.8807 62.9436 65.3248 62.2854 64.5768 62.1171C64.4983 60.8903 63.8325 59.8469 62.8003 58.9642C62.243 63.5196 58.907 67.3942 54.677 69.268C56.4984 69.7093 60.1935 68.5349 62.1907 67.8131C62.617 69.6345 63.9934 74.7396 66.0392 75.151L65.6652 82.8816H66.6637C66.6563 82.8779 68.4028 69.0398 67.5314 65.5504Z" fill="#D3B9A3"/>
</g>
<circle cx="79.0002" cy="19" r="4" fill="white"/>
<circle cx="91.0002" cy="19" r="4" fill="white"/>
<circle cx="104" cy="19" r="5" fill="white"/>
</svg>
