<svg width="757" height="809" viewBox="0 0 757 809" fill="none" xmlns="http://www.w3.org/2000/svg">
<path d="M173.767 70.2416C192.324 60.2068 227.138 52.5298 296.729 37.1381C367.923 21.388 353.967 30.2156 421.559 15.4275C481.136 2.37476 498.147 -2.41629 523.569 6.7131C526.21 7.65622 573.075 25.1417 579.431 59.8484C580.921 67.997 578.865 69.9209 566.474 126.961C560.496 154.462 560.194 157.612 560.006 160.517C557.705 194.601 564.758 220.028 564.758 220.028C567.851 231.194 571.038 237.532 567.606 244.36C562.665 254.169 550.18 252.735 548.275 260.356C546.031 269.334 561.081 280.595 568.775 286.348C579.695 294.515 583.071 294.006 595.461 301.362C608.059 308.851 627.673 320.508 635.82 341.634C638.423 348.367 641.704 356.912 638.668 365.966C634.085 379.547 620.601 378.321 613.17 392.939C610.511 398.164 610.549 407.746 610.718 426.684C610.888 445.414 610.964 454.789 612.623 461.862C618.187 485.553 630.37 490.854 626.749 502.869C624.052 511.791 614.283 519.053 605.306 520.77C594.613 522.807 587.559 516.469 582.75 520.468C580.072 522.694 578.94 527.39 581.072 538.123C584.9 557.381 593.406 566.794 603.382 584.77C607.55 592.277 610.002 597.86 611.643 602.236C614.849 610.8 615.735 613.799 617.168 617.213C623.977 633.284 643.27 640.602 649.361 642.903C667.296 649.694 681.856 646.883 691.606 652.655C692.662 653.278 697.471 656.258 704.6 659.163C707.184 660.2 708.372 660.445 709.296 660.917C722.988 667.783 719.16 684.721 730.588 688.4C738.755 691.04 744.657 686.928 750.089 691.644C755.37 696.246 756.294 705.81 753.333 707.884C749.071 710.884 738.622 697.057 728.325 700.528C727.401 700.849 724.12 702.32 720.159 704.15C713.954 707.036 713.276 707.639 709.39 708.469C694.077 711.713 689.72 705.376 674.765 707.583C659.979 709.771 660.545 716.523 647.249 717.919C629.201 719.824 620.733 708.167 614.057 712.675C603.439 719.824 620.412 752.249 611.001 758.492C603.891 763.208 582.976 752.173 580.147 738.026C577.771 726.105 589.709 719.089 585.749 706.036C584.051 700.453 579.733 694.775 573.924 692.153C563.947 687.645 557.403 695.662 551.368 691.851C542.335 686.174 553.537 666.142 541.806 648.241C537.657 641.923 530.321 635.34 525.418 636.962C519.873 638.791 523.362 649.166 516.384 656.673C508.143 665.557 496.808 658.031 478.024 666.085C472.404 668.5 460.183 673.743 456.939 685.212C454.563 693.568 457.071 704.848 463.106 707.281C471.819 710.808 482.268 693.719 489.396 697.284C494.432 699.792 496.318 711.864 491.546 719.164C485.134 728.991 470.858 723.71 462.956 735.103C458.882 740.988 459.693 746.703 455.883 747.665C451.942 748.665 449.339 742.968 442.984 739.366C432.517 733.462 419.655 737.612 411.488 740.252C391.63 746.665 391.762 756.681 379.22 757.228C364.434 757.851 356.551 744.289 349.007 748.495C344.123 751.211 343.708 758.983 343.312 765.962C342.029 789.276 353.213 803.592 349.385 806.572C346.839 808.553 340.03 803.573 325.848 793.331C314.834 785.371 303.745 777.505 292.75 769.527C271.364 754.022 260.369 746.137 246.205 740.233C229.307 733.198 229.081 736.932 220.01 731.689C197.416 718.655 183.988 687.004 188.043 659.974C191.532 636.754 206.431 626.852 202.414 621.57C193.003 609.196 108.89 660.766 102.214 650.939C98.7818 645.884 121.432 632.963 127.127 602.972C129.994 587.844 125.732 583.279 131.163 570.114C137.858 553.816 147.665 552.836 151.626 539.255C154.888 528.107 149.476 524.636 145.345 502.662C139.348 470.69 148.325 464.918 140.253 441.925C134.784 426.326 125.977 415.725 120.828 410.33C115.623 404.879 105.119 393.863 88.4092 388.997C70.738 383.848 66.0797 391.392 57.1215 385.847C41.4494 376.171 53.5005 351.781 34.8675 329.92C25.0229 318.357 19.4783 322.639 11.1802 311.416C-5.98182 288.234 5.91842 254.169 7.31401 250.34C15.1029 229.006 30.0395 216.406 34.9807 212.181C110.475 147.634 106.703 106.457 173.767 70.2416Z" stroke="#D7D7D7" stroke-width="3.5" stroke-linecap="round" stroke-linejoin="round" stroke-dasharray="8 8"/>
</svg>
