<svg width="125" height="142" viewBox="0 0 125 142" fill="none" xmlns="http://www.w3.org/2000/svg">
<path d="M63.4109 23.5919C63.1447 23.3259 62.713 23.3258 62.4469 23.5918C62.1806 23.8581 62.1806 24.2896 62.4468 24.5558L66.1747 28.2838C66.3078 28.4169 66.4822 28.4836 66.6568 28.4836C66.8312 28.4836 67.0057 28.4169 67.1387 28.2839C67.4049 28.0177 67.4049 27.5861 67.1388 27.3199L63.4109 23.5919Z" fill="white"/>
<path d="M67.228 21.695C66.962 21.4288 66.5303 21.4288 66.264 21.6949C65.9978 21.9611 65.9978 22.3927 66.2639 22.6589L68.0714 24.4664C68.2045 24.5996 68.3789 24.6662 68.5534 24.6662C68.7279 24.6662 68.9024 24.5996 69.0354 24.4665C69.3016 24.2003 69.3016 23.7687 69.0355 23.5026L67.228 21.695Z" fill="white"/>
<path d="M87.5605 5.27016C87.4079 4.60612 87.2345 4.17336 87.0455 3.98463C86.7955 3.73446 86.4853 3.59667 86.1723 3.59667C86.0126 3.59667 85.8577 3.63143 85.7118 3.69989C85.5596 3.77117 85.3951 3.85132 85.2223 3.9377L84.5847 3.30005C84.3187 3.034 83.887 3.0339 83.6207 3.29995C83.3545 3.56609 83.3545 3.99778 83.6207 4.26392L83.9557 4.59901C83.6581 4.7593 83.3582 4.92358 83.0675 5.08465L82.69 4.707C82.4237 4.44086 81.9922 4.44086 81.7259 4.707C81.4598 4.97324 81.4598 5.40484 81.7259 5.67108L81.8331 5.77829C81.2501 6.11007 80.8413 6.34836 80.7954 6.37524C80.7448 6.40484 80.6983 6.44068 80.6569 6.48216C80.3332 6.80605 80.2339 7.27182 80.3557 7.69085L72.0277 16.0189C71.9708 15.9915 71.9145 15.9647 71.8594 15.9388C71.4987 15.7687 71.1872 15.6217 70.8936 15.3281C70.6317 15.0663 71.3061 13.9742 71.6684 13.3873C72.3006 12.3636 72.9543 11.3049 72.2019 10.5525C72.0595 10.4101 71.8047 10.2404 71.3997 10.2404C70.3289 10.2404 68.8448 11.4925 68.5347 11.8026C67.3433 12.9939 66.8631 13.9236 66.3985 14.8227C65.9896 15.6142 65.6032 16.3619 64.6882 17.277C64.0053 17.9599 63.1088 18.2997 62.1597 18.6596C61.0669 19.074 59.9369 19.5024 58.9628 20.4764C54.7486 24.6907 58.8502 28.7925 60.3941 30.3367C61.9248 31.8672 63.9801 33.6242 66.3075 33.6241C67.6948 33.624 69.0228 32.9995 70.2544 31.7677C71.2284 30.7937 71.6568 29.6638 72.0712 28.571C72.431 27.6218 72.771 26.7253 73.4537 26.0426C74.1144 25.3817 74.6316 25.1391 75.2303 24.858C75.8524 24.5661 76.5574 24.2352 77.3812 23.4115C79.4132 21.3794 79.2727 20.3858 78.7969 19.91C78.5417 19.6548 78.2016 19.5255 77.7862 19.5255C77.3164 19.5255 76.802 19.6908 76.2573 19.866C75.7164 20.0398 75.1571 20.2198 74.692 20.2198C74.385 20.2197 74.1711 20.1429 73.9991 19.9708C73.8828 19.8544 73.8023 19.7567 73.7478 19.667L83.039 10.3758C83.1522 10.4088 83.2703 10.4266 83.3909 10.4266C83.7164 10.4266 84.021 10.3013 84.2488 10.0738L87.4269 6.89554C87.7235 6.59863 87.7611 6.14289 87.5605 5.27016ZM81.208 8.76652L81.964 9.52259L73.7636 17.723C73.678 17.4335 73.5028 17.1218 73.1778 16.7969L73.1777 16.7968L81.208 8.76652ZM74.6919 21.5832C74.692 21.5832 74.6919 21.5832 74.6919 21.5832C75.3708 21.5832 76.0635 21.3605 76.6746 21.1639C77.0263 21.0508 77.3882 20.9345 77.6469 20.8994C77.4634 21.2546 77.009 21.8555 76.417 22.4475C75.762 23.1024 75.2471 23.344 74.6509 23.6238C74.0266 23.9169 73.3189 24.249 72.4894 25.0785C71.5997 25.9684 71.1913 27.0457 70.7962 28.0876C70.4161 29.0899 70.0572 30.0367 69.2901 30.8037C68.3098 31.784 67.3341 32.2606 66.3071 32.2607C64.4803 32.2607 62.7026 30.7172 61.358 29.3727C60.3304 28.345 59.0932 26.9786 58.6438 25.5214C58.2 24.0824 58.6196 22.7475 59.9266 21.4404C60.6937 20.6734 61.6405 20.3144 62.6428 19.9344C63.6846 19.5393 64.7622 19.1308 65.6519 18.241C66.7169 17.1759 67.1706 16.2978 67.6095 15.4484C68.0454 14.6049 68.457 13.808 69.4984 12.7665C69.9066 12.3583 70.6075 11.8926 71.0655 11.6975C70.9266 11.9934 70.6781 12.3957 70.5081 12.671C69.8315 13.7667 68.9046 15.2675 69.9293 16.2921C70.3907 16.7534 70.8618 16.9757 71.2775 17.1718C71.63 17.3381 71.9346 17.4817 72.2137 17.7609C72.5307 18.078 72.5003 18.2009 72.3998 18.608C72.2664 19.1484 72.0649 19.9649 73.0348 20.9349C73.4651 21.365 74.0225 21.5831 74.6919 21.5832ZM83.3819 9.01241L81.761 7.39141C82.5314 6.94667 84.7222 5.69367 86.081 5.0343C86.1801 5.32333 86.2976 5.81822 86.3186 6.07569L83.3819 9.01241Z" fill="white"/>
<path d="M18.9566 69.1118C14.95 76.4361 13.3671 84.8415 14.435 93.1214C15.503 101.401 19.167 109.13 24.9009 115.198C30.6349 121.266 38.144 125.361 46.3503 126.895C54.5566 128.43 63.038 127.325 70.5772 123.739L53.6105 88.0684L18.9566 69.1118Z" fill="#42513A"/>
<path d="M75.479 0H115.396C120.332 0 124.333 4.00155 124.333 8.9368V30.9846C124.333 35.9198 120.332 39.9214 115.396 39.9214H87.6837L81.9599 45.6452L80.1239 39.9214H75.479C70.5437 39.9214 66.5422 35.9198 66.5422 30.9846V8.9368C66.5422 4.00155 70.5437 0 75.479 0Z" fill="#EC791E"/>
<ellipse cx="55.0422" cy="87" rx="37.5" ry="38" fill="#718463"/>
<mask id="mask0" mask-type="alpha" maskUnits="userSpaceOnUse" x="17" y="49" width="76" height="76">
<ellipse cx="54.5002" cy="87" rx="37.5" ry="38" fill="#F5E4E4"/>
</mask>
<g mask="url(#mask0)">
<path d="M43.5839 77.3072C43.5839 77.3072 40.2744 76.5704 39.7859 79.3914C39.2975 82.2083 41.2555 82.823 41.2555 82.823C41.2555 82.823 38.3164 79.5135 36.2322 81.8419C34.148 84.1704 37.5796 86.1284 37.5796 86.1284C37.5796 86.1284 33.7817 84.0442 33.0449 86.6168C32.3081 89.1895 35.3733 90.7812 35.3733 90.7812C35.3733 90.7812 32.0639 90.5369 32.186 92.0064C32.3081 93.4759 35.4954 92.2507 35.4954 92.2507C35.4954 92.2507 30.8386 93.1096 31.5754 96.7854C32.3122 100.461 35.9839 98.377 35.9839 98.377C35.9839 98.377 33.167 99.8466 33.8997 104.503C34.6365 109.16 55.5842 99.7244 55.5842 99.7244L55.9506 87.1053L43.5839 77.3072Z" fill="#352C38"/>
<path d="M67.7637 77.3072C67.7637 77.3072 71.0732 76.5704 71.5616 79.3914C72.0501 82.2083 70.0921 82.823 70.0921 82.823C70.0921 82.823 73.0312 79.5135 75.1153 81.8419C77.1995 84.1704 73.7679 86.1284 73.7679 86.1284C73.7679 86.1284 77.5659 84.0442 78.3027 86.6168C79.0395 89.1895 75.9743 90.7812 75.9743 90.7812C75.9743 90.7812 79.2837 90.5369 79.1616 92.0064C79.0395 93.4759 75.8521 92.2507 75.8521 92.2507C75.8521 92.2507 80.509 93.1096 79.7722 96.7854C79.0354 100.461 75.3637 98.377 75.3637 98.377C75.3637 98.377 78.1806 99.8466 77.4478 104.503C76.7111 109.16 55.7633 99.7244 55.7633 99.7244L55.397 87.1053L67.7637 77.3072Z" fill="#352C38"/>
<path d="M43.5839 77.3072C43.5839 77.3072 40.2744 76.5704 39.7859 79.3914C39.2975 82.2083 41.2555 82.823 41.2555 82.823C41.2555 82.823 38.3164 79.5135 36.2322 81.8419C34.148 84.1704 37.5796 86.1284 37.5796 86.1284C37.5796 86.1284 33.7817 84.0442 33.0449 86.6168C32.3081 89.1895 35.3733 90.7812 35.3733 90.7812C35.3733 90.7812 32.0639 90.5369 32.186 92.0064C32.3081 93.4759 35.4954 92.2507 35.4954 92.2507C35.4954 92.2507 30.8386 93.1096 31.5754 96.7854C32.3122 100.461 35.9839 98.377 35.9839 98.377C35.9839 98.377 33.167 99.8466 33.8997 104.503C34.6365 109.16 55.5842 99.7244 55.5842 99.7244L55.9506 87.1053L43.5839 77.3072Z" fill="#2A242D"/>
<path d="M67.7637 77.3072C67.7637 77.3072 71.0732 76.5704 71.5616 79.3914C72.0501 82.2083 70.0921 82.823 70.0921 82.823C70.0921 82.823 73.0312 79.5135 75.1153 81.8419C77.1995 84.1704 73.7679 86.1284 73.7679 86.1284C73.7679 86.1284 77.5659 84.0442 78.3027 86.6168C79.0395 89.1895 75.9743 90.7812 75.9743 90.7812C75.9743 90.7812 79.2837 90.5369 79.1616 92.0064C79.0395 93.4759 75.8521 92.2507 75.8521 92.2507C75.8521 92.2507 80.509 93.1096 79.7722 96.7854C79.0354 100.461 75.3637 98.377 75.3637 98.377C75.3637 98.377 78.1806 99.8466 77.4478 104.503C76.7111 109.16 55.7633 99.7244 55.7633 99.7244L55.397 87.1053L67.7637 77.3072Z" fill="#2A242D"/>
<path d="M63.3099 97.2821C59.858 95.3973 60.7983 86.2953 60.7983 86.2953L55.6286 86.6291V86.2953L55.075 86.4622L54.5213 86.2953V86.6291L49.3516 86.2953C49.3516 86.2953 50.2919 95.3973 46.84 97.2821C43.388 99.1668 22.9858 100.107 25.1799 121.136H54.5213H55.6286H84.97C87.1682 100.107 66.7659 99.1627 63.3099 97.2821Z" fill="#965450"/>
<path d="M48.6279 94.9333C52.7597 94.3186 56.8873 93.6836 61.0109 93.0282C60.4288 89.8897 60.8033 86.2953 60.8033 86.2953L55.6336 86.6291V86.2953L55.0799 86.4622L54.5263 86.2953V86.6291L49.3566 86.2953C49.3525 86.2912 49.898 91.5831 48.6279 94.9333Z" fill="#76413B"/>
<path d="M63.4934 96.9361C62.1216 96.1993 61.4255 94.3797 61.0836 92.4136C59.1745 92.841 57.1025 93.0771 54.9409 93.0771C52.8201 93.0771 50.7929 92.8532 48.9123 92.4421C48.5703 94.396 47.8702 96.2034 46.5065 96.9361C42.9447 98.8453 21.9033 99.8019 24.1707 121.136L51.0002 126L54.9409 127.5L85.8252 121.136C88.0966 99.8019 67.0553 98.8493 63.4934 96.9361Z" fill="#FFA65B"/>
<path opacity="0.3" d="M26.0002 127H85.829C86.5761 117.314 84.8043 110.66 81.9629 106C63.1876 112.345 44.7103 120.284 26.0002 127Z" fill="#2A242D"/>
<path d="M44.9679 72.9679C43.9503 69.8131 41.5404 70.5418 41.3165 70.6191C41.0804 70.6476 38.5892 71.018 39.0207 74.3031C39.4522 77.6125 41.3735 79.4036 43.1728 78.8785C45.0208 78.5813 45.9897 76.143 44.9679 72.9679Z" fill="#76413B"/>
<path d="M65.2797 72.9679C66.2974 69.8131 68.7073 70.5418 68.9311 70.6191C69.1672 70.6476 71.6585 71.018 71.227 74.3031C70.7955 77.6125 68.8742 79.4036 67.0749 78.8785C65.2228 78.5813 64.2539 76.143 65.2797 72.9679Z" fill="#76413B"/>
<path d="M42.4974 68.1848C43.7593 54.3486 54.2779 55.122 55.2671 55.2278C56.2604 55.122 66.779 54.3486 68.0368 68.1848C69.3069 82.1025 63.1073 91.1923 55.2671 90.6957C47.4311 91.1964 41.2314 82.1065 42.4974 68.1848Z" fill="#965450"/>
<path d="M57.0819 74.6978C57.2569 75.0193 57.3913 75.345 57.5093 75.6747C57.6274 76.0044 57.7291 76.3423 57.8228 76.6761C57.8716 76.843 57.9042 77.014 57.9449 77.1849C57.9856 77.3559 58.0181 77.5269 58.0507 77.6978C58.1199 78.0398 58.1688 78.3858 58.2054 78.7318L58.2217 78.8946L58.1321 78.976C57.8512 79.2325 57.5582 79.4849 57.2651 79.7332C56.9638 79.9734 56.6667 80.2176 56.3451 80.4374C56.5527 80.1077 56.7847 79.8024 57.0168 79.493C57.2529 79.1877 57.493 78.8905 57.7413 78.5975L57.6721 78.8417C57.5663 78.5079 57.4727 78.17 57.3994 77.8322C57.3587 77.6612 57.318 77.4943 57.2895 77.3193C57.261 77.1483 57.2203 76.9773 57.1959 76.8064C57.1429 76.4604 57.1022 76.1143 57.0778 75.7643C57.0615 75.4142 57.0534 75.06 57.0819 74.6978Z" fill="#76413B"/>
<path d="M60.6314 82.9207C58.1279 85.3549 53.8862 85.2206 50.6704 83.0509Z" fill="white"/>
<path d="M65.191 70.0043C65.191 70.0043 65.0811 69.9432 64.8897 69.8374C64.7961 69.7845 64.6821 69.7234 64.5559 69.6542C64.4298 69.585 64.2873 69.5117 64.1285 69.4303C63.9657 69.3611 63.807 69.2675 63.6238 69.1983C63.5342 69.1576 63.4447 69.1209 63.3551 69.0802C63.2615 69.0477 63.1679 69.011 63.0702 68.9785C62.8829 68.8971 62.6794 68.8645 62.484 68.7953C62.2804 68.7749 62.0851 68.6976 61.8815 68.7057L61.5803 68.6813C61.4826 68.6935 61.3808 68.6976 61.2831 68.7017C61.0837 68.6935 60.8964 68.7668 60.7051 68.7912C60.5138 68.8238 60.3387 68.9133 60.1596 68.9622L60.0253 69.0029L59.9032 69.064C59.8218 69.1047 59.7403 69.1413 59.663 69.1779C59.5083 69.2553 59.3536 69.3082 59.2356 69.3896C59.1135 69.467 58.9995 69.5239 58.9059 69.5769C58.7145 69.6786 58.5924 69.7315 58.5924 69.7315C58.5924 69.7315 58.6413 69.6176 58.7471 69.4222C58.8 69.3245 58.8651 69.2064 58.9506 69.0762C59.028 68.9378 59.146 68.8075 59.2844 68.6691C59.4269 68.5348 59.5531 68.3557 59.7526 68.2376C59.9479 68.1196 60.1393 67.9567 60.3794 67.8672C60.4975 67.8183 60.6237 67.7735 60.7499 67.7328C60.8761 67.6799 61.0063 67.6555 61.1447 67.6392C61.2791 67.6189 61.4175 67.5985 61.5599 67.5863C61.6983 67.5863 61.8367 67.5985 61.9792 67.6067C62.2601 67.6107 62.5206 67.7044 62.7852 67.7695C62.9114 67.8143 63.0295 67.8672 63.1516 67.9201C63.2737 67.969 63.3877 68.0259 63.4894 68.0951C63.5953 68.1603 63.7011 68.2213 63.7988 68.2865C63.8924 68.3597 63.982 68.4289 64.0675 68.5022C64.2466 68.6365 64.3809 68.7994 64.5153 68.9337C64.7676 69.2227 64.9427 69.4873 65.0444 69.6868C65.1503 69.8822 65.191 70.0043 65.191 70.0043Z" fill="#352C38"/>
<path d="M52.0871 70.0042C52.0871 70.0042 51.9772 69.9431 51.7859 69.8373C51.6922 69.7843 51.5783 69.7233 51.4521 69.6541C51.3259 69.5849 51.1834 69.5116 51.0247 69.4302C50.8618 69.361 50.7031 69.2674 50.5199 69.1982C50.4303 69.1575 50.3408 69.1208 50.2512 69.0801C50.1576 69.0475 50.064 69.0109 49.9663 68.9783C49.779 68.8969 49.5755 68.8644 49.3801 68.7952C49.1766 68.7748 48.9812 68.6975 48.7776 68.7056L48.4764 68.6812C48.3787 68.6934 48.2769 68.6975 48.1793 68.7015C47.9798 68.6934 47.7925 68.7667 47.6012 68.7911C47.4099 68.8237 47.2348 68.9132 47.0557 68.9621L46.9214 69.0028L46.7993 69.0638C46.7179 69.1045 46.6365 69.1412 46.5591 69.1778C46.4044 69.2552 46.2497 69.3081 46.1317 69.3895C46.0096 69.4668 45.8956 69.5238 45.802 69.5767C45.6107 69.6785 45.4885 69.7314 45.4885 69.7314C45.4885 69.7314 45.5374 69.6175 45.6432 69.4221C45.6961 69.3244 45.7613 69.2063 45.8467 69.0761C45.9241 68.9376 46.0421 68.8074 46.1805 68.669C46.323 68.5347 46.4492 68.3555 46.6487 68.2375C46.8441 68.1194 47.0354 67.9566 47.2756 67.8671C47.3936 67.8182 47.5198 67.7734 47.646 67.7327C47.7722 67.6798 47.9024 67.6554 48.0408 67.6391C48.1752 67.6187 48.3136 67.5984 48.4561 67.5862C48.5945 67.5862 48.7329 67.5984 48.8753 67.6065C49.1562 67.6106 49.4167 67.7042 49.6813 67.7694C49.8075 67.8141 49.9256 67.8671 50.0477 67.92C50.1698 67.9688 50.2838 68.0258 50.3856 68.095C50.4914 68.1601 50.5972 68.2212 50.6949 68.2863C50.7886 68.3596 50.8781 68.4288 50.9636 68.5021C51.1427 68.6364 51.277 68.7992 51.4114 68.9336C51.6638 69.2226 51.8388 69.4872 51.9406 69.6867C52.0464 69.882 52.0871 70.0042 52.0871 70.0042Z" fill="#352C38"/>
<path d="M51.6716 75.0193C51.6716 75.0193 51.6432 74.9053 51.578 74.718C51.5129 74.5308 51.4152 74.2662 51.2605 73.9772C51.1018 73.6882 50.8819 73.3788 50.5766 73.1508C50.426 73.0368 50.251 72.9432 50.0637 72.8862C49.9701 72.8537 49.8765 72.8252 49.7747 72.817C49.6729 72.8048 49.5752 72.7845 49.4694 72.7926C49.3717 72.7967 49.2496 72.7845 49.1723 72.7967C49.0664 72.817 48.9321 72.8211 48.8507 72.8537C48.6838 72.9066 48.4965 72.9717 48.354 73.0898C48.2034 73.1956 48.0854 73.3381 47.9795 73.4805C47.8859 73.6312 47.8045 73.7858 47.7434 73.9365C47.6254 74.2418 47.5643 74.5186 47.5318 74.7099C47.4951 74.9053 47.487 75.0193 47.487 75.0193C47.487 75.0193 47.4544 74.9093 47.4341 74.7058C47.4137 74.5023 47.4015 74.2092 47.4748 73.855C47.5114 73.68 47.5684 73.4887 47.6661 73.2974C47.7679 73.1101 47.8941 72.9106 48.0854 72.76C48.2645 72.5972 48.4884 72.4751 48.7489 72.3977C48.8792 72.353 48.9769 72.353 49.0908 72.3285C49.2374 72.3041 49.3473 72.3163 49.4735 72.3082C49.5956 72.3 49.7218 72.3285 49.848 72.3489C49.9742 72.3611 50.0922 72.4018 50.2103 72.4466C50.3324 72.4792 50.4423 72.5443 50.5441 72.6094C50.654 72.6664 50.7435 72.7478 50.8372 72.8252C51.1954 73.1427 51.3908 73.5375 51.5047 73.8713C51.6187 74.2092 51.6513 74.5023 51.6635 74.7058C51.6839 74.9053 51.6716 75.0193 51.6716 75.0193Z" fill="#352C38"/>
<path d="M63.4437 74.828C63.4437 74.828 63.4152 74.714 63.3501 74.5267C63.285 74.3395 63.1873 74.0749 63.0326 73.7859C62.8738 73.4969 62.654 73.1875 62.3487 72.9595C62.1981 72.8456 62.0231 72.7519 61.8358 72.6949C61.7422 72.6624 61.6486 72.6339 61.5468 72.6257C61.445 72.6135 61.3473 72.5932 61.2415 72.6013C61.1438 72.6054 61.0217 72.5932 60.9443 72.6054C60.8385 72.6257 60.7042 72.6298 60.6228 72.6624C60.4559 72.7153 60.2686 72.7804 60.1261 72.8985C59.9755 73.0043 59.8575 73.1468 59.7516 73.2893C59.658 73.4399 59.5766 73.5946 59.5155 73.7452C59.3975 74.0505 59.3364 74.3273 59.3039 74.5186C59.2672 74.714 59.2591 74.828 59.2591 74.828C59.2591 74.828 59.2265 74.7181 59.2062 74.5145C59.1858 74.311 59.1736 74.0179 59.2469 73.6638C59.2835 73.4887 59.3405 73.2974 59.4382 73.1061C59.54 72.9188 59.6661 72.7194 59.8575 72.5687C60.0366 72.4059 60.2605 72.2838 60.521 72.2065C60.6513 72.1617 60.7489 72.1617 60.8629 72.1373C61.0095 72.1128 61.1194 72.125 61.2456 72.1169C61.3677 72.1088 61.4939 72.1373 61.6201 72.1576C61.7463 72.1698 61.8643 72.2105 61.9824 72.2553C62.1045 72.2879 62.2144 72.353 62.3162 72.4181C62.4261 72.4751 62.5156 72.5565 62.6092 72.6339C62.9675 72.9514 63.1629 73.3462 63.2768 73.68C63.3908 74.0179 63.4234 74.311 63.4356 74.5145C63.4559 74.714 63.4437 74.828 63.4437 74.828Z" fill="#352C38"/>
<path d="M55.677 55.228C55.677 55.228 56.3283 63.7113 43.465 67.2609C43.465 67.2609 43.8313 71.5473 42.7282 75.5936C42.7282 75.5936 38.5639 69.5893 40.5219 62.486C42.4839 55.3786 52.4123 49.6878 55.677 55.228Z" fill="#352C38"/>
<path d="M54.6649 55.2278C54.6649 55.2278 54.4206 63.7111 67.284 67.2607C67.284 67.2607 66.6734 72.6503 67.7725 76.6925C67.7725 76.6925 72.181 69.5851 70.223 62.4818C68.265 55.3784 57.9255 49.6876 54.6649 55.2278Z" fill="#352C38"/>
<path d="M45.4068 66.6502C43.5302 65.3435 41.8613 63.6583 40.7418 61.798C40.6604 62.0259 40.5871 62.2539 40.5261 62.4859C38.564 69.5933 42.7324 75.5935 42.7324 75.5935C43.8355 71.5513 43.4692 67.2608 43.4692 67.2608C44.149 67.0736 44.7922 66.866 45.4068 66.6502Z" fill="#2A242D"/>
</g>
<circle cx="96.0002" cy="20" r="4" fill="white"/>
<circle cx="108" cy="20" r="4" fill="white"/>
<circle cx="83.0002" cy="20" r="5" fill="white"/>
</svg>
