<svg width="113" height="143" viewBox="0 0 113 143" fill="none" xmlns="http://www.w3.org/2000/svg">
<path d="M18.9566 70.1118C14.95 77.4361 13.3671 85.8415 14.435 94.1214C15.503 102.401 19.167 110.13 24.9009 116.198C30.6349 122.266 38.144 126.361 46.3503 127.895C54.5566 129.43 63.038 128.325 70.5772 124.739L53.6105 89.0684L18.9566 70.1118Z" fill="#42513A"/>
<path d="M63.936 0H103.853C108.789 0 112.79 4.00155 112.79 8.9368V30.9846C112.79 35.9198 108.789 39.9214 103.853 39.9214H76.1408L70.417 45.6452L68.5809 39.9214H63.936C59.0008 39.9214 54.9992 35.9198 54.9992 30.9846V8.9368C54.9992 4.00155 59.0008 0 63.936 0Z" fill="#EC791E"/>
<ellipse cx="54.5003" cy="88" rx="37.5" ry="38" fill="#718463"/>
<mask id="mask0" mask-type="alpha" maskUnits="userSpaceOnUse" x="17" y="50" width="76" height="76">
<ellipse cx="54.5003" cy="88" rx="37.5" ry="38" fill="#CFCFCF"/>
</mask>
<g mask="url(#mask0)">
<path d="M63.606 99.8238C60.2522 97.9926 61.1658 89.1493 61.1658 89.1493L56.1429 89.4736V89.1493L55.6051 89.3114L55.0672 89.1493V89.4736L50.0444 89.1493C50.0444 89.1493 50.958 97.9926 47.6041 99.8238C44.2503 101.655 24.4279 102.569 26.5597 123H55.0672H56.1429H84.6505C86.7862 102.569 66.9638 101.651 63.606 99.8238Z" fill="#FFAC9D"/>
<path d="M49.3411 97.5418C53.3554 96.9446 57.3658 96.3276 61.3722 95.6908C60.8066 92.6415 61.1705 89.1493 61.1705 89.1493L56.1476 89.4736V89.1493L55.6098 89.3114L55.0719 89.1493V89.4736L50.0491 89.1493C50.0451 89.1453 50.5751 94.2868 49.3411 97.5418Z" fill="#CC887F"/>
<path d="M64.6503 99.6656C62.9773 98.752 62.3564 96.1022 62.1626 93.662C60.6874 94.2196 57.7409 94.5439 55.8465 94.5439C53.5763 94.5439 50.7011 94.0772 49.0756 93.2981C48.9094 95.8332 48.3202 98.7046 46.5602 99.6617C43.1826 101.505 24.0168 102.426 26.1683 122.996L53.0003 127L55.8465 126.5L84.6546 122.996C86.7982 102.43 68.0278 101.509 64.6503 99.6656Z" fill="#D68950"/>
<path d="M55.5784 104.431C60.1899 104.431 64.3268 102.897 67.1506 100.472C66.1223 100.18 65.3076 99.9346 64.8172 99.6656C63.1442 98.752 62.5233 96.1022 62.3295 93.662C60.8543 94.2196 57.9078 94.5439 56.0134 94.5439C53.7432 94.5439 50.868 94.0772 49.2425 93.2981C49.0764 95.8332 48.4871 98.7046 46.7271 99.6617C46.1932 99.9543 45.2677 100.219 44.0931 100.548C46.9209 102.932 51.0183 104.431 55.5784 104.431Z" fill="#FFA65B"/>
<path d="M34.1937 120.564L37.4565 117.483L40.5375 120.564" stroke="#765E69" stroke-width="1.8333" stroke-miterlimit="10"/>
<path d="M70.8993 120.441L74.617 117.483L77.6979 120.564" stroke="#765E69" stroke-width="1.8333" stroke-miterlimit="10"/>
<path d="M64.761 120.461L68.273 117.483L71.3539 120.564" stroke="#765E69" stroke-width="1.8333" stroke-miterlimit="10"/>
<path d="M58.8479 120.564L62.1108 117.483L65.1917 120.564" stroke="#765E69" stroke-width="1.8333" stroke-miterlimit="10"/>
<path d="M52.3698 120.5L55.9451 117.483L59.2831 120.481" stroke="#765E69" stroke-width="1.8333" stroke-miterlimit="10"/>
<path d="M46.5206 120.564L49.7835 117.483L52.8644 120.564" stroke="#765E69" stroke-width="1.8333" stroke-miterlimit="10"/>
<path d="M40.098 120.5L43.6219 117.483L46.9125 120.441" stroke="#765E69" stroke-width="1.8333" stroke-miterlimit="10"/>
<path d="M34.1937 117.53L37.4565 114.449L40.5375 117.53" stroke="#765E69" stroke-miterlimit="10"/>
<path d="M70.8993 117.412L74.617 114.449L77.6979 117.53" stroke="#765E69" stroke-miterlimit="10"/>
<path d="M64.761 117.427L68.273 114.449L71.3539 117.53" stroke="#765E69" stroke-miterlimit="10"/>
<path d="M58.8479 117.53L62.1108 114.449L65.1917 117.53" stroke="#765E69" stroke-miterlimit="10"/>
<path d="M52.3698 117.467L55.9451 114.449L59.2831 117.447" stroke="#765E69" stroke-miterlimit="10"/>
<path d="M46.5206 117.53L49.7835 114.449L52.8644 117.53" stroke="#765E69" stroke-miterlimit="10"/>
<path d="M40.098 117.467L43.6219 114.449L46.9125 117.412" stroke="#765E69" stroke-miterlimit="10"/>
<path d="M35.182 115.604C35.182 111.412 34.6757 107.572 33.8373 104.597C29.0913 107.678 25.1284 113.033 26.1686 123H34.6204C34.9803 120.761 35.182 118.254 35.182 115.604Z" fill="#FFA65B"/>
<path d="M76.9188 104.435C76.0526 107.433 75.5266 111.333 75.5266 115.604C75.5266 118.254 75.7283 120.761 76.0882 123H84.6508C85.7107 112.852 81.6806 107.489 76.9188 104.435Z" fill="#FFA65B"/>
<path d="M45.7852 76.2006C44.7965 73.1355 42.4551 73.8435 42.2376 73.9186C42.0082 73.9463 39.5878 74.3062 40.007 77.4979C40.4262 80.7133 42.293 82.4535 44.0411 81.9433C45.8366 81.6546 46.7779 79.2855 45.7852 76.2006Z" fill="#CC887F"/>
<path d="M65.5208 76.2006C66.5096 73.1355 68.8509 73.8435 69.0684 73.9186C69.2978 73.9463 71.7183 74.3062 71.2991 77.4979C70.8798 80.7133 69.0131 82.4535 67.265 81.9433C65.4654 81.6546 64.5242 79.2855 65.5208 76.2006Z" fill="#CC887F"/>
<path d="M43.3843 71.5535C44.6104 58.1105 54.83 58.862 55.7911 58.9648C56.7561 58.862 66.9758 58.1105 68.1979 71.5535C69.4318 85.0756 63.4084 93.9071 55.7911 93.4246C48.1778 93.9111 42.1543 85.0796 43.3843 71.5535Z" fill="#FFAC9D"/>
<path d="M42.8943 62.113C42.8943 62.113 40.1258 63.8928 42.1033 70.023L43.2898 76.9442L44.2785 77.142C44.2785 77.142 43.883 66.6613 47.2448 64.2883C50.6065 61.9153 42.8943 62.113 42.8943 62.113Z" fill="#B26018"/>
<path d="M64.0529 63.1018C64.0529 63.1018 50.8037 70.814 43.6847 64.6838C36.5657 58.5535 44.0802 55.3895 47.0464 55.785C47.0464 55.785 46.0577 52.4233 50.0127 52.0278C53.9677 51.6323 53.1767 55.5873 59.1091 55.5873C65.0416 55.5873 68.0079 55.9828 67.4146 60.9265C67.4146 60.9265 70.3808 59.1468 71.3696 62.5085C72.3583 65.8702 68.6011 76.9442 68.6011 76.9442L68.2056 78.7239H67.2169V69.232C67.2169 69.232 63.4596 70.4185 64.0529 63.1018Z" fill="#B26018"/>
<path d="M71.3697 62.5085C70.381 59.1468 67.4147 60.9265 67.4147 60.9265C67.7548 58.0789 66.9164 56.7421 65.0101 56.1212C64.6146 58.9688 63.697 61.7215 62.0518 64.1301C63.2936 63.5447 64.053 63.1057 64.053 63.1057C63.4597 70.4224 67.217 69.2359 67.217 69.2359V78.7279H68.2057L68.6012 76.9482C68.6012 76.9442 72.3584 65.8703 71.3697 62.5085Z" fill="#B26018"/>
<path d="M57.5557 73.1316C57.7258 73.7486 57.8563 74.3695 57.9749 74.9944C58.0936 75.6153 58.1925 76.2402 58.2795 76.8691C58.3269 77.1815 58.3586 77.4979 58.3981 77.8103C58.4377 78.1228 58.4693 78.4392 58.5009 78.7516C58.5682 79.3805 58.6117 80.0093 58.6512 80.6421L58.6631 80.8122L58.5405 80.8834C58.1371 81.1325 57.7297 81.3698 57.3184 81.6032C56.9031 81.8326 56.4879 82.0619 56.0568 82.2676C56.4048 81.9393 56.7687 81.6348 57.1325 81.3303C57.5003 81.0297 57.8721 80.737 58.2478 80.4483L58.1371 80.6935C58.0343 80.0686 57.9433 79.4437 57.8682 78.8149C57.8286 78.5025 57.789 78.1861 57.7614 77.8736C57.7337 77.5572 57.6941 77.2448 57.6743 76.9284C57.6229 76.2995 57.5834 75.6667 57.5597 75.0339C57.532 74.4051 57.5241 73.7683 57.5557 73.1316Z" fill="#CC887F"/>
<path d="M61.0043 84.6842C58.572 87.0493 54.4509 86.9188 51.3265 84.8108Z" fill="white"/>
<path d="M65.4342 72.135C65.4342 72.135 65.3274 72.0757 65.1416 71.9729C65.0506 71.9215 64.9398 71.8621 64.8172 71.7949C64.6946 71.7316 64.5562 71.6565 64.402 71.5774C64.2438 71.5101 64.0895 71.4192 63.9116 71.3519C63.8246 71.3124 63.7375 71.2768 63.6505 71.2372C63.5596 71.2056 63.4686 71.17 63.3737 71.1384C63.1917 71.0593 62.994 71.0276 62.8042 70.9604C62.6064 70.9406 62.4166 70.8655 62.2188 70.8734L61.9262 70.8497C61.8312 70.8615 61.7324 70.8655 61.6374 70.8694C61.4436 70.8615 61.2617 70.9327 61.0758 70.9564C60.8899 70.9881 60.7199 71.0751 60.5459 71.1226L60.4154 71.1621L60.2967 71.2214C60.2176 71.261 60.1385 71.2966 60.0634 71.3322C59.9131 71.4073 59.7628 71.4587 59.6481 71.5378C59.5294 71.613 59.4187 71.6683 59.3277 71.7198C59.1419 71.8186 59.0232 71.87 59.0232 71.87C59.0232 71.87 59.0707 71.7593 59.1735 71.5695C59.2249 71.4745 59.2882 71.3599 59.3712 71.2333C59.4464 71.0988 59.5611 70.9723 59.6955 70.8378C59.834 70.7073 59.9566 70.5293 60.1504 70.4186C60.3402 70.3039 60.5261 70.1457 60.7594 70.0587C60.8741 70.0112 60.9967 69.9677 61.1193 69.9281C61.2419 69.8767 61.3685 69.853 61.503 69.8372C61.6335 69.8174 61.768 69.7976 61.9064 69.7858C62.0408 69.7858 62.1753 69.7976 62.3137 69.8055C62.5866 69.8095 62.8398 69.9005 63.0968 69.9637C63.2194 70.0072 63.3341 70.0587 63.4528 70.1101C63.5714 70.1575 63.6822 70.2129 63.781 70.2801C63.8839 70.3434 63.9867 70.4027 64.0816 70.466C64.1726 70.5372 64.2596 70.6044 64.3427 70.6756C64.5167 70.8062 64.6472 70.9644 64.7777 71.0949C65.0229 71.3757 65.193 71.6327 65.2918 71.8265C65.3947 72.0164 65.4342 72.135 65.4342 72.135Z" fill="#352C38"/>
<path d="M52.703 72.135C52.703 72.135 52.5962 72.0757 52.4104 71.9729C52.3194 71.9215 52.2086 71.8621 52.086 71.7949C51.9634 71.7316 51.825 71.6565 51.6708 71.5774C51.5126 71.5101 51.3583 71.4192 51.1804 71.3519C51.0933 71.3124 51.0063 71.2768 50.9193 71.2372C50.8284 71.2056 50.7374 71.17 50.6425 71.1384C50.4605 71.0593 50.2628 71.0276 50.073 70.9604C49.8752 70.9406 49.6854 70.8655 49.4876 70.8734L49.1949 70.8497C49.1 70.8615 49.0012 70.8655 48.9062 70.8694C48.7124 70.8615 48.5305 70.9327 48.3446 70.9564C48.1587 70.9881 47.9887 71.0751 47.8147 71.1226L47.6842 71.1621L47.5655 71.2214C47.4864 71.261 47.4073 71.2966 47.3322 71.3322C47.1819 71.4073 47.0316 71.4587 46.9169 71.5378C46.7982 71.613 46.6875 71.6683 46.5965 71.7198C46.4106 71.8186 46.292 71.87 46.292 71.87C46.292 71.87 46.3395 71.7593 46.4423 71.5695C46.4937 71.4745 46.557 71.3599 46.64 71.2333C46.7152 71.0988 46.8299 70.9723 46.9643 70.8378C47.1028 70.7073 47.2254 70.5293 47.4192 70.4186C47.609 70.3039 47.7949 70.1457 48.0282 70.0587C48.1429 70.0112 48.2655 69.9677 48.3881 69.9281C48.5107 69.8767 48.6373 69.853 48.7718 69.8372C48.9023 69.8174 49.0368 69.7976 49.1752 69.7858C49.3096 69.7858 49.4441 69.7976 49.5825 69.8055C49.8554 69.8095 50.1086 69.9005 50.3656 69.9637C50.4882 70.0072 50.6029 70.0587 50.7216 70.1101C50.8402 70.1575 50.951 70.2129 51.0498 70.2801C51.1527 70.3434 51.2555 70.4027 51.3504 70.466C51.4414 70.5372 51.5284 70.6044 51.6115 70.6756C51.7855 70.8062 51.916 70.9644 52.0465 71.0949C52.2917 71.3757 52.4618 71.6327 52.5606 71.8265C52.6635 72.0164 52.703 72.135 52.703 72.135Z" fill="#352C38"/>
<path d="M42.3452 73.5549L45.786 76.2008L54.4276 76.4737C54.4276 76.4737 56.6543 73.3493 58.5092 76.4737H67.4158L70.0933 73.9662" stroke="#765E69" stroke-width="1.4341" stroke-miterlimit="10"/>
<path d="M49.974 80.923C52.4335 80.923 54.4273 78.9292 54.4273 76.4697C54.4273 74.0102 52.4335 72.0164 49.974 72.0164C47.5145 72.0164 45.5207 74.0102 45.5207 76.4697C45.5207 78.9292 47.5145 80.923 49.974 80.923Z" fill="#A9C7DB" stroke="#765E69" stroke-width="1.4341" stroke-miterlimit="10"/>
<path d="M62.9623 80.923C65.4218 80.923 67.4157 78.9292 67.4157 76.4697C67.4157 74.0102 65.4218 72.0164 62.9623 72.0164C60.5028 72.0164 58.509 74.0102 58.509 76.4697C58.509 78.9292 60.5028 80.923 62.9623 80.923Z" fill="#A9C7DB" stroke="#765E69" stroke-width="1.4341" stroke-miterlimit="10"/>
<path d="M52.3002 77.0076C52.3002 77.0076 52.2725 76.8969 52.2093 76.7149C52.146 76.533 52.0511 76.2759 51.9008 75.9951C51.7465 75.7143 51.5329 75.4137 51.2363 75.1923C51.09 75.0815 50.9199 74.9906 50.738 74.9352C50.647 74.9035 50.5561 74.8759 50.4572 74.868C50.3583 74.8561 50.2634 74.8363 50.1606 74.8442C50.0656 74.8482 49.947 74.8363 49.8719 74.8482C49.769 74.868 49.6385 74.8719 49.5594 74.9035C49.3973 74.955 49.2153 75.0182 49.0769 75.1329C48.9306 75.2358 48.8159 75.3742 48.713 75.5126C48.6221 75.6589 48.543 75.8092 48.4837 75.9556C48.369 76.2522 48.3096 76.5211 48.278 76.707C48.2424 76.8969 48.2345 77.0076 48.2345 77.0076C48.2345 77.0076 48.2028 76.9008 48.1831 76.7031C48.1633 76.5053 48.1514 76.2206 48.2226 75.8765C48.2582 75.7064 48.3136 75.5205 48.4085 75.3346C48.5074 75.1527 48.63 74.9589 48.8159 74.8126C48.9899 74.6544 49.2074 74.5357 49.4605 74.4606C49.5871 74.4171 49.682 74.4171 49.7928 74.3934C49.9351 74.3696 50.0419 74.3815 50.1645 74.3736C50.2832 74.3657 50.4058 74.3934 50.5284 74.4131C50.651 74.425 50.7657 74.4645 50.8804 74.508C50.999 74.5397 51.1058 74.603 51.2047 74.6662C51.3115 74.7216 51.3985 74.8007 51.4894 74.8759C51.8375 75.1843 52.0273 75.568 52.1381 75.8923C52.2488 76.2206 52.2804 76.5053 52.2923 76.7031C52.3121 76.8929 52.3002 77.0076 52.3002 77.0076Z" fill="#352C38"/>
<path d="M63.7375 76.8217C63.7375 76.8217 63.7098 76.7109 63.6466 76.529C63.5833 76.3471 63.4884 76.09 63.3381 75.8092C63.1838 75.5284 62.9703 75.2278 62.6736 75.0063C62.5273 74.8956 62.3572 74.8046 62.1753 74.7493C62.0843 74.7176 61.9934 74.6899 61.8945 74.682C61.7956 74.6702 61.7007 74.6504 61.5979 74.6583C61.503 74.6623 61.3843 74.6504 61.3092 74.6623C61.2063 74.682 61.0758 74.686 60.9967 74.7176C60.8346 74.769 60.6526 74.8323 60.5142 74.947C60.3679 75.0499 60.2532 75.1883 60.1504 75.3267C60.0594 75.473 59.9803 75.6233 59.921 75.7697C59.8063 76.0663 59.7469 76.3352 59.7153 76.5211C59.6797 76.7109 59.6718 76.8217 59.6718 76.8217C59.6718 76.8217 59.6402 76.7149 59.6204 76.5172C59.6006 76.3194 59.5887 76.0346 59.6599 75.6906C59.6955 75.5205 59.7509 75.3346 59.8458 75.1487C59.9447 74.9668 60.0673 74.773 60.2532 74.6267C60.4272 74.4685 60.6447 74.3498 60.8979 74.2747C61.0244 74.2312 61.1193 74.2312 61.2301 74.2074C61.3724 74.1837 61.4792 74.1956 61.6018 74.1877C61.7205 74.1798 61.8431 74.2074 61.9657 74.2272C62.0883 74.2391 62.203 74.2786 62.3177 74.3221C62.4363 74.3538 62.5431 74.4171 62.642 74.4803C62.7488 74.5357 62.8358 74.6148 62.9267 74.6899C63.2748 74.9984 63.4646 75.3821 63.5754 75.7064C63.6861 76.0346 63.7177 76.3194 63.7296 76.5172C63.7494 76.7109 63.7375 76.8217 63.7375 76.8217Z" fill="#352C38"/>
</g>
<circle cx="71.0002" cy="20" r="4" fill="white"/>
<circle cx="97.0002" cy="20" r="4" fill="white"/>
<circle cx="84.0002" cy="20" r="5" fill="white"/>
</svg>
