<svg width="113" height="142" viewBox="0 0 113 142" fill="none" xmlns="http://www.w3.org/2000/svg">
<path d="M18.9566 69.1118C14.95 76.4361 13.3671 84.8415 14.435 93.1214C15.503 101.401 19.167 109.13 24.9009 115.198C30.6349 121.266 38.144 125.361 46.3503 126.895C54.5566 128.43 63.038 127.325 70.5772 123.739L53.6105 88.0684L18.9566 69.1118Z" fill="#42513A"/>
<path d="M63.936 0H103.853C108.789 0 112.79 4.00155 112.79 8.9368V30.9846C112.79 35.9198 108.789 39.9214 103.853 39.9214H76.1408L70.417 45.6452L68.5809 39.9214H63.936C59.0008 39.9214 54.9992 35.9198 54.9992 30.9846V8.9368C54.9992 4.00155 59.0008 0 63.936 0Z" fill="#EC791E"/>
<ellipse cx="54.4993" cy="87" rx="37.5" ry="38" fill="#718463"/>
<mask id="mask0" mask-type="alpha" maskUnits="userSpaceOnUse" x="17" y="49" width="76" height="76">
<ellipse cx="54.5002" cy="87" rx="37.5" ry="38" fill="#6395CE"/>
</mask>
<g mask="url(#mask0)">
<path d="M62.9416 99.0045C59.6116 97.1864 60.5187 88.406 60.5187 88.406L55.5317 88.728V88.406L54.9976 88.567L54.4636 88.406V88.728L49.4765 88.406C49.4765 88.406 50.3836 97.1864 47.0537 99.0045C43.7237 100.823 24.0425 101.73 26.1591 122.016H54.4636H55.5317H83.8362C85.9567 101.73 66.2755 100.819 62.9416 99.0045Z" fill="#FFAC9D"/>
<path d="M48.7775 96.7387C52.7632 96.1458 56.745 95.5332 60.7229 94.901C60.1613 91.8734 60.5226 88.406 60.5226 88.406L55.5355 88.728V88.406L55.0015 88.567L54.4674 88.406V88.728L49.4804 88.406C49.4764 88.4021 50.0026 93.5069 48.7775 96.7387Z" fill="#CC887F"/>
<path d="M66.104 100.01C63.1471 101.737 59.2085 102.79 54.8812 102.79C50.5931 102.79 46.682 101.753 43.7329 100.053C37.1398 101.828 24.4405 105.507 26.1643 122.012H54.4689H55.537H83.8415C85.5771 105.37 72.6422 101.773 66.104 100.01Z" fill="#7AA8CE"/>
<path d="M79.6853 106.976C77.0347 108.248 74.1093 108.68 71.2073 109.579C67.1038 110.856 62.9885 112.081 58.8575 113.267C50.5797 115.638 42.2588 117.869 33.9457 120.103C31.5739 120.739 29.2021 121.379 26.8303 122.019L55.0002 126L83.836 122.019C84.5782 114.916 82.6462 110.196 79.6853 106.976Z" fill="#6F96BD"/>
<path d="M41.4095 100.712C34.5651 102.778 24.6224 107.29 26.1617 122.015L51.0002 125.5L41.4095 100.712Z" fill="#FFA65B"/>
<path d="M68.4193 100.661L61.0002 125.5L83.8321 122.016C85.3871 107.168 75.2677 102.703 68.4193 100.661Z" fill="#FFA65B"/>
<path d="M47.5945 122.016H49.66L41.4058 100.713C39.6466 101.243 37.6793 101.938 35.7551 102.927L47.5945 122.016Z" fill="#D68950"/>
<path d="M68.4193 100.661L62.0002 122.016H64.0002L76.2769 104.113C73.693 102.421 70.85 101.388 68.4193 100.661Z" fill="#D68950"/>
<path d="M45.2479 75.5496C44.2662 72.5063 41.9416 73.2092 41.7256 73.2838C41.4978 73.3113 39.0946 73.6686 39.5108 76.8376C39.9271 80.0301 41.7806 81.7579 43.5162 81.2513C45.299 80.9647 46.2336 78.6125 45.2479 75.5496Z" fill="#CC887F"/>
<path d="M64.842 75.5496C65.8237 72.5063 68.1484 73.2092 68.3644 73.2838C68.5921 73.3113 70.9954 73.6686 70.5791 76.8376C70.1629 80.0301 68.3094 81.7579 66.5738 81.2513C64.7871 80.9647 63.8525 78.6125 64.842 75.5496Z" fill="#CC887F"/>
<path d="M42.864 70.9356C44.0813 57.5884 54.2282 58.3345 55.1824 58.4366C56.1406 58.3345 66.2875 57.5884 67.5009 70.9356C68.7261 84.3614 62.7455 93.13 55.1824 92.651C47.6233 93.134 41.6428 84.3654 42.864 70.9356Z" fill="#FFAC9D"/>
<path d="M56.9333 77.2185C57.1021 77.5287 57.2317 77.8429 57.3456 78.1609C57.4595 78.479 57.5576 78.8049 57.648 79.1269C57.6951 79.2879 57.7265 79.4529 57.7658 79.6178C57.805 79.7827 57.8365 79.9476 57.8679 80.1126C57.9346 80.4424 57.9817 80.7762 58.0171 81.11L58.0328 81.2671L57.9464 81.3456C57.6755 81.593 57.3927 81.8364 57.11 82.076C56.8194 82.3077 56.5328 82.5433 56.2225 82.7553C56.4228 82.4373 56.6466 82.1427 56.8705 81.8443C57.0982 81.5498 57.3299 81.2631 57.5694 80.9804L57.5027 81.216C57.4006 80.894 57.3103 80.5681 57.2396 80.2422C57.2003 80.0772 57.161 79.9162 57.1336 79.7474C57.1061 79.5825 57.0668 79.4175 57.0432 79.2526C56.9922 78.9188 56.9529 78.585 56.9294 78.2473C56.9136 77.9096 56.9058 77.568 56.9333 77.2185Z" fill="#CC887F"/>
<path d="M60.3576 85.1506C57.9426 87.4989 53.8508 87.3693 50.7487 85.2763Z" fill="white"/>
<path d="M64.7556 72.6908C64.7556 72.6908 64.6496 72.6319 64.4651 72.5298C64.3747 72.4788 64.2648 72.4199 64.143 72.3531C64.0213 72.2863 63.8839 72.2157 63.7307 72.1371C63.5737 72.0704 63.4205 71.9801 63.2438 71.9133C63.1574 71.874 63.071 71.8387 62.9846 71.7994C62.8943 71.768 62.804 71.7327 62.7098 71.7012C62.5291 71.6227 62.3328 71.5913 62.1443 71.5245C61.948 71.5049 61.7595 71.4303 61.5631 71.4382L61.2725 71.4146C61.1783 71.4264 61.0801 71.4303 60.9859 71.4342C60.7935 71.4264 60.6128 71.4971 60.4283 71.5206C60.2437 71.552 60.0749 71.6384 59.9021 71.6855L59.7725 71.7248L59.6547 71.7837C59.5762 71.823 59.4976 71.8583 59.423 71.8937C59.2738 71.9683 59.1246 72.0193 59.0107 72.0979C58.8929 72.1725 58.7829 72.2274 58.6926 72.2785C58.5081 72.3767 58.3903 72.4277 58.3903 72.4277C58.3903 72.4277 58.4374 72.3178 58.5395 72.1293C58.5905 72.035 58.6534 71.9212 58.7358 71.7955C58.8104 71.662 58.9243 71.5363 59.0578 71.4028C59.1953 71.2732 59.317 71.1004 59.5094 70.9866C59.6979 70.8727 59.8825 70.7156 60.1141 70.6292C60.228 70.5821 60.3497 70.5389 60.4715 70.4996C60.5932 70.4486 60.7189 70.425 60.8524 70.4093C60.982 70.3897 61.1155 70.3701 61.2529 70.3583C61.3864 70.3583 61.5199 70.3701 61.6574 70.3779C61.9283 70.3818 62.1796 70.4722 62.4349 70.535C62.5566 70.5782 62.6705 70.6292 62.7883 70.6803C62.9061 70.7274 63.0161 70.7824 63.1142 70.8491C63.2163 70.912 63.3184 70.9709 63.4127 71.0337C63.503 71.1044 63.5894 71.1711 63.6718 71.2418C63.8446 71.3714 63.9742 71.5285 64.1038 71.6581C64.3473 71.9369 64.5161 72.1921 64.6143 72.3845C64.7164 72.573 64.7556 72.6908 64.7556 72.6908Z" fill="#352C38"/>
<path d="M52.1149 72.6908C52.1149 72.6908 52.0089 72.6319 51.8243 72.5298C51.734 72.4788 51.624 72.4199 51.5023 72.3531C51.3806 72.2863 51.2431 72.2157 51.09 72.1371C50.9329 72.0704 50.7798 71.9801 50.6031 71.9133C50.5167 71.874 50.4303 71.8387 50.3439 71.7994C50.2536 71.768 50.1633 71.7327 50.069 71.7012C49.8884 71.6227 49.692 71.5913 49.5036 71.5245C49.3072 71.5049 49.1187 71.4303 48.9224 71.4382L48.6318 71.4146C48.5376 71.4264 48.4394 71.4303 48.3451 71.4342C48.1527 71.4264 47.9721 71.4971 47.7875 71.5206C47.603 71.552 47.4341 71.6384 47.2613 71.6855L47.1317 71.7248L47.0139 71.7837C46.9354 71.823 46.8569 71.8583 46.7823 71.8937C46.633 71.9683 46.4838 72.0193 46.3699 72.0979C46.2521 72.1725 46.1422 72.2274 46.0519 72.2785C45.8673 72.3767 45.7495 72.4277 45.7495 72.4277C45.7495 72.4277 45.7966 72.3178 45.8987 72.1293C45.9498 72.035 46.0126 71.9212 46.0951 71.7955C46.1697 71.662 46.2836 71.5363 46.4171 71.4028C46.5545 71.2732 46.6762 71.1004 46.8687 70.9866C47.0571 70.8727 47.2417 70.7156 47.4734 70.6292C47.5873 70.5821 47.709 70.5389 47.8307 70.4996C47.9525 70.4486 48.0781 70.425 48.2116 70.4093C48.3412 70.3897 48.4747 70.3701 48.6122 70.3583C48.7457 70.3583 48.8792 70.3701 49.0166 70.3779C49.2876 70.3818 49.5389 70.4722 49.7941 70.535C49.9159 70.5782 50.0297 70.6292 50.1476 70.6803C50.2654 70.7274 50.3753 70.7824 50.4735 70.8491C50.5756 70.912 50.6777 70.9709 50.7719 71.0337C50.8622 71.1044 50.9486 71.1711 51.0311 71.2418C51.2039 71.3714 51.3334 71.5285 51.463 71.6581C51.7065 71.9369 51.8753 72.1921 51.9735 72.3845C52.0756 72.573 52.1149 72.6908 52.1149 72.6908Z" fill="#352C38"/>
<path d="M51.7146 77.5286C51.7146 77.5286 51.6871 77.4187 51.6243 77.238C51.5614 77.0574 51.4672 76.8022 51.318 76.5234C51.1648 76.2446 50.9528 75.9461 50.6583 75.7262C50.513 75.6163 50.3441 75.5259 50.1635 75.471C50.0732 75.4395 49.9828 75.4121 49.8847 75.4042C49.7865 75.3924 49.6923 75.3728 49.5902 75.3807C49.4959 75.3846 49.3781 75.3728 49.3035 75.3846C49.2014 75.4042 49.0718 75.4081 48.9933 75.4396C48.8323 75.4906 48.6516 75.5534 48.5142 75.6673C48.3689 75.7694 48.255 75.9069 48.1529 76.0443C48.0626 76.1896 47.9841 76.3388 47.9252 76.4841C47.8113 76.7786 47.7524 77.0456 47.721 77.2302C47.6856 77.4187 47.6778 77.5286 47.6778 77.5286C47.6778 77.5286 47.6464 77.4226 47.6268 77.2263C47.6071 77.0299 47.5953 76.7472 47.666 76.4055C47.7014 76.2367 47.7563 76.0521 47.8506 75.8676C47.9487 75.6869 48.0705 75.4945 48.255 75.3492C48.4278 75.1922 48.6438 75.0744 48.8951 74.9998C49.0208 74.9566 49.115 74.9566 49.225 74.933C49.3663 74.9094 49.4724 74.9212 49.5941 74.9134C49.7119 74.9055 49.8336 74.933 49.9554 74.9526C50.0771 74.9644 50.191 75.0037 50.3048 75.0469C50.4226 75.0783 50.5287 75.1411 50.6268 75.2039C50.7329 75.2589 50.8193 75.3375 50.9096 75.4121C51.2551 75.7184 51.4436 76.0993 51.5536 76.4213C51.6635 76.7472 51.6949 77.0299 51.7067 77.2263C51.7264 77.4187 51.7146 77.5286 51.7146 77.5286Z" fill="#352C38"/>
<path d="M63.0714 77.3441C63.0714 77.3441 63.0439 77.2341 62.9811 77.0535C62.9182 76.8728 62.824 76.6176 62.6748 76.3388C62.5216 76.06 62.3096 75.7615 62.0151 75.5416C61.8698 75.4317 61.7009 75.3414 61.5203 75.2864C61.43 75.255 61.3397 75.2275 61.2415 75.2196C61.1433 75.2079 61.0491 75.1882 60.947 75.1961C60.8527 75.2 60.7349 75.1882 60.6603 75.2C60.5582 75.2196 60.4286 75.2236 60.3501 75.255C60.1891 75.306 60.0085 75.3689 59.871 75.4827C59.7257 75.5848 59.6119 75.7223 59.5098 75.8597C59.4194 76.005 59.3409 76.1542 59.282 76.2995C59.1681 76.594 59.1092 76.8611 59.0778 77.0456C59.0425 77.2341 59.0346 77.3441 59.0346 77.3441C59.0346 77.3441 59.0032 77.238 58.9836 77.0417C58.9639 76.8453 58.9521 76.5626 59.0228 76.221C59.0582 76.0521 59.1131 75.8676 59.2074 75.683C59.3056 75.5024 59.4273 75.31 59.6119 75.1647C59.7846 75.0076 60.0006 74.8898 60.2519 74.8152C60.3776 74.772 60.4718 74.772 60.5818 74.7484C60.7231 74.7249 60.8292 74.7366 60.9509 74.7288C61.0687 74.7209 61.1904 74.7484 61.3122 74.7681C61.4339 74.7798 61.5478 74.8191 61.6617 74.8623C61.7795 74.8937 61.8855 74.9565 61.9836 75.0194C62.0897 75.0743 62.1761 75.1529 62.2664 75.2275C62.6119 75.5338 62.8004 75.9147 62.9104 76.2367C63.0203 76.5626 63.0517 76.8453 63.0635 77.0417C63.0832 77.2341 63.0714 77.3441 63.0714 77.3441Z" fill="#352C38"/>
<path opacity="0.3" d="M36.946 72.9381C37.5193 72.4473 38.2575 71.9014 38.7523 71.0101C38.8858 70.7941 38.9565 70.5467 39.0625 70.3111C39.1214 70.0598 39.2039 69.8045 39.2471 69.5414C39.2746 69.2783 39.3217 69.0074 39.3296 68.7364C39.3296 68.4615 39.3335 68.1827 39.3335 67.9C39.3099 67.6291 39.2903 67.3542 39.2667 67.0793L39.251 66.8712C39.2471 66.8084 39.251 66.8437 39.251 66.7926V66.6945C39.255 66.557 39.2628 66.4196 39.2707 66.2822C39.306 65.7245 39.3649 65.1591 39.467 64.5897C39.5691 64.0242 39.7065 63.4549 39.9186 62.9247C39.9736 62.7951 40.0246 62.6577 40.0953 62.536C40.1581 62.4103 40.2249 62.2807 40.2956 62.1826L40.3977 62.0216L40.5469 61.8449L40.6215 61.7585L40.6411 61.7349L40.6451 61.731L40.6765 61.7035L40.8492 61.5464C41.132 61.299 41.4658 61.0752 41.8113 60.8749C41.8035 60.5843 41.8074 60.2938 41.8113 60.0032C41.2812 60.2741 40.7903 60.5843 40.3309 60.9927L40.162 61.1537L40.1189 61.193L40.0796 61.2323L40.0521 61.2637L39.9775 61.3501L39.8283 61.5268L39.6791 61.7545C39.573 61.9077 39.5023 62.0569 39.4317 62.2061C39.3531 62.3553 39.3021 62.5085 39.2393 62.6577C39.0115 63.2624 38.878 63.875 38.7837 64.4758C38.6934 65.0766 38.6384 65.6696 38.6227 66.2547C38.6188 66.4 38.6188 66.5453 38.6188 66.6906L38.6227 66.8005C38.6227 66.8201 38.6306 66.9262 38.6306 66.9301L38.6542 67.1382C38.6856 67.4131 38.717 67.688 38.7523 67.9589C38.8152 68.9877 38.7641 70.0126 38.3518 70.8098C37.9552 71.6148 37.2994 72.1881 36.7496 72.73C36.196 73.2719 35.7483 73.7981 35.4774 74.2929C35.3203 74.5246 35.2339 74.7641 35.1396 74.9565C35.0415 75.1489 34.9983 75.3296 34.9512 75.4709C34.8608 75.7536 34.8137 75.9029 34.8137 75.9029C34.8137 75.9029 34.8765 75.7576 34.9904 75.4866C35.0965 75.2118 35.3006 74.8269 35.6069 74.3753C35.8975 73.9081 36.3648 73.4329 36.946 72.9381Z" fill="#352C38"/>
<path d="M62.0777 59.4691C62.0777 59.4691 66.5268 59.5987 67.9679 65.0963C69.409 70.5938 67.8383 71.6423 67.8383 76.0914C67.8383 76.0914 67.8383 78.8401 67.1825 79.7551L66.2676 70.7234C66.2676 70.7234 60.1143 67.4523 62.0777 59.4691Z" fill="#965450"/>
<path d="M54.0479 52.1025C53.3057 51.9925 52.5047 51.9415 51.6643 52.1025C51.1028 52.2046 50.5295 52.4009 50.0033 52.7112C49.4732 53.0174 49.0098 53.4455 48.6053 53.9088C47.7964 54.8434 47.1838 55.9194 46.4495 56.8775C45.727 57.8435 44.8238 58.6642 43.74 59.1708C43.4651 59.3082 43.2059 59.4025 42.8957 59.5203C42.6012 59.6341 42.3106 59.7402 42.0004 59.8933C41.3957 60.1878 40.8459 60.5255 40.3315 60.981L40.1627 61.142L40.1195 61.1813L40.0802 61.2206L40.0723 61.2324L40.0527 61.2559L39.9781 61.3423L39.8289 61.519L39.6797 61.7468C39.5736 61.8999 39.503 62.0491 39.4323 62.1984C39.3537 62.3476 39.3027 62.5007 39.2399 62.6499C39.0121 63.2547 38.8786 63.8673 38.7843 64.4681C38.694 65.0689 38.6391 65.6618 38.6233 66.2469C38.6194 66.3922 38.6194 66.5375 38.6194 66.6828L38.6233 66.7927C38.6233 66.8124 38.6312 66.9184 38.6312 66.9223L38.6548 67.1304C38.6862 67.4053 38.7176 67.6802 38.7529 67.9511C38.8158 68.98 38.7647 70.0049 38.3524 70.802C37.9558 71.607 37.3 72.1803 36.7503 72.7222C36.1966 73.2641 35.7489 73.7903 35.478 74.2851C35.3209 74.5168 35.2345 74.7563 35.1403 74.9487C35.0421 75.1412 34.9989 75.3218 34.9518 75.4632C34.8615 75.7459 34.8143 75.8951 34.8143 75.8951C34.8143 75.8951 34.8772 75.7498 34.991 75.4789C35.0971 75.204 35.3013 74.8192 35.6076 74.3676C35.9021 73.9081 36.3694 73.433 36.9505 72.9382C37.5238 72.4474 38.2621 71.9015 38.7569 71.0101C38.8904 70.7942 38.9611 70.5468 39.0671 70.3112C39.126 70.0599 39.2084 69.8046 39.2516 69.5415C39.2791 69.2784 39.3262 69.0075 39.3341 68.7365C39.3341 68.4616 39.338 68.1828 39.338 67.9001C39.3145 67.6291 39.2948 67.3543 39.2713 67.0794L39.2556 66.8713C39.2516 66.8084 39.2556 66.8438 39.2556 66.7927V66.6946C39.2595 66.5571 39.2673 66.4197 39.2752 66.2822C39.3105 65.7246 39.3694 65.1592 39.4715 64.5898C39.5736 64.0243 39.7111 63.4549 39.9231 62.9248C39.9781 62.7952 40.0292 62.6578 40.0998 62.5361C40.1627 62.4104 40.2294 62.2808 40.3001 62.1826L40.4022 62.0216L40.5514 61.8449L40.626 61.7586L40.6457 61.735L40.6496 61.7311L40.681 61.7036L40.8538 61.5465C41.1719 61.2677 41.5606 61.0125 41.9572 60.7965C41.7766 60.9143 41.6038 61.0321 41.4467 61.1538C41.3643 61.2166 41.2818 61.2834 41.2033 61.3502C41.1719 61.3776 41.1404 61.4012 41.113 61.4287C41.0069 61.5229 40.9048 61.625 40.8067 61.735C39.3851 63.2547 39.5501 67.099 39.5697 67.2011C40.6182 73.2209 36.9505 72.0429 35.7725 76.3624C34.5944 80.6819 40.4218 83.4857 39.0435 85.0014C36.4243 87.8798 35.1167 84.0865 35.1167 84.0865C34.5944 86.313 36.9505 89.584 39.8289 89.1913C42.5541 88.8183 45.511 86.686 44.49 82.2448C44.4939 82.2526 44.4939 82.2605 44.4979 82.2644L44.8042 82.9948C44.8945 83.2265 45.0044 83.4503 45.083 83.6859L45.2989 84.3927L45.4403 85.1153C45.456 85.3587 45.4914 85.6022 45.4914 85.8417C45.4717 86.0813 45.4953 86.3326 45.4403 86.5682C45.401 86.8077 45.3618 87.0473 45.2754 87.279C45.2165 87.5185 45.1105 87.7345 45.0084 87.9583C44.7845 88.3942 44.5018 88.8104 44.1405 89.1599C43.7989 89.529 43.3866 89.8314 42.9507 90.0984C42.5148 90.3654 42.0397 90.5736 41.5449 90.7424C42.0515 90.6364 42.5659 90.5029 43.045 90.2791C43.5201 90.0552 43.9913 89.7882 44.3997 89.4348C44.8199 89.0971 45.1733 88.673 45.4678 88.2135C45.6052 87.974 45.7505 87.7384 45.8369 87.4753C45.9508 87.2201 46.0176 86.953 46.0804 86.6821C46.1628 86.4151 46.1589 86.1363 46.2021 85.8614C46.2217 85.5865 46.2021 85.3116 46.206 85.0328C46.1786 84.7619 46.1393 84.487 46.1039 84.216C46.045 83.949 45.9744 83.6859 45.9076 83.4189C45.8369 83.1558 45.7309 82.9045 45.6445 82.6492L45.3853 81.9267C45.3421 81.805 45.295 81.6793 45.2597 81.5615L45.1851 81.2277C45.1183 81.0078 45.1105 80.7879 45.0947 80.568C45.0947 80.14 45.2047 79.7905 45.4756 79.4567C45.7387 79.1151 46.1471 78.7852 46.528 78.3808C46.7244 78.1923 46.905 77.9567 47.0778 77.7329C47.2349 77.4894 47.4116 77.2538 47.5255 76.9868L47.7139 76.5941L47.8475 76.1857C47.8906 76.0482 47.9417 75.9108 47.9731 75.7734L48.0516 75.3571L48.1263 74.9409L48.1537 74.5286L48.2048 73.7393L48.248 72.9618C48.2637 72.7065 48.2598 72.4317 48.3069 72.2039C48.3854 71.7248 48.4247 71.2418 48.5661 70.7667C48.6328 70.5311 48.6682 70.2837 48.7624 70.0598L49.0019 69.4119L49.2375 69.0703L49.5321 68.7326C49.6459 68.6383 49.752 68.5362 49.8658 68.442C49.9915 68.3635 50.1093 68.2731 50.2389 68.2025C50.3763 68.1396 50.5059 68.0689 50.6473 68.01L51.0832 67.8648L51.5426 67.7705C51.6997 67.747 51.8607 67.7352 52.0177 67.7155L53.0662 67.6017L53.5845 67.5388C53.7573 67.5153 53.9419 67.4642 54.1186 67.425C54.472 67.3346 54.8411 67.2836 55.1828 67.1618L56.2037 66.7967L56.3372 66.7299C61.5795 65.6225 62.6162 61.0439 62.6162 61.0439C63.3584 57.871 60.001 52.5187 54.0479 52.1025ZM46.4927 76.4763C46.3042 76.8925 46.0254 77.2538 45.7034 77.619C45.3853 77.9842 44.9848 78.318 44.6196 78.8088C44.5214 78.9148 44.4507 79.0719 44.3722 79.2054C44.2858 79.3389 44.2387 79.496 44.1877 79.6531L44.117 79.8887L44.0934 80.1282C44.0856 80.2853 44.0463 80.4502 44.0738 80.5955C44.0816 80.6583 44.0856 80.7172 44.0934 80.7801C43.3787 77.7407 45.3657 77.9213 46.689 76.0168L46.6419 76.1661L46.4927 76.4763Z" fill="#76413B"/>
<path opacity="0.3" d="M45.2275 70.6882C42.8636 67.6959 41.8858 64.3464 41.8112 60.8868C41.6855 60.9732 41.5559 61.0557 41.442 61.146C41.3596 61.2088 41.2771 61.2756 41.1986 61.3424C41.1672 61.3698 41.1357 61.3934 41.1083 61.4209C41.0022 61.5151 40.9001 61.6172 40.802 61.7272C39.3805 63.2469 39.5454 67.0912 39.565 67.1933C40.6135 73.2131 36.9458 72.0351 35.7678 76.3546C34.5897 80.6741 40.4171 83.4778 39.0388 84.9936C36.4196 87.872 35.112 84.0786 35.112 84.0786C34.5897 86.3052 36.9458 89.5762 39.8242 89.1835C42.5494 88.8105 45.5063 86.6782 44.4853 82.237C44.4893 82.2448 44.4893 82.2527 44.4932 82.2566L44.7995 82.987C44.8898 83.2187 44.9997 83.4425 45.0783 83.6781L45.2943 84.3849L45.4356 85.1075C45.4513 85.3509 45.4867 85.5944 45.4867 85.8339C45.467 86.0735 45.4906 86.3248 45.4356 86.5604C45.3963 86.7999 45.3571 87.0395 45.2707 87.2712C45.2118 87.5107 45.1058 87.7267 45.0037 87.9505C44.7798 88.3864 44.4971 88.8026 44.1358 89.1521C43.7942 89.5212 43.3819 89.8236 42.946 90.0906C42.5101 90.3576 42.035 90.5658 41.5402 90.7346C42.0468 90.6286 42.5612 90.4951 43.0403 90.2712C43.5154 90.0474 43.9866 89.7804 44.395 89.427C44.8152 89.0893 45.1686 88.6652 45.4631 88.2057C45.6005 87.9662 45.7458 87.7306 45.8322 87.4675C45.9461 87.2123 46.0129 86.9452 46.0757 86.6743C46.1581 86.4072 46.1542 86.1284 46.1974 85.8536C46.2171 85.5787 46.1974 85.3038 46.2013 85.025C46.1739 84.7541 46.1346 84.4792 46.0993 84.2082C46.0403 83.9412 45.9697 83.6781 45.9029 83.4111C45.8322 83.148 45.7262 82.8967 45.6398 82.6414L45.3806 81.9189C45.3374 81.7972 45.2903 81.6715 45.255 81.5537L45.1804 81.2199C45.1136 81 45.1058 80.7801 45.0901 80.5602C45.0901 80.1322 45.2 79.7827 45.471 79.4489C45.7341 79.1073 46.1424 78.7774 46.5233 78.373C46.7197 78.1845 46.9003 77.9489 47.0731 77.7251C47.2302 77.4816 47.4069 77.246 47.5208 76.9789L47.7092 76.5863L47.8428 76.1779C47.8859 76.0404 47.937 75.903 47.9684 75.7656L48.047 75.3493L48.1216 74.9331L48.1491 74.5208L48.1962 73.7511C47.1084 72.844 46.115 71.8113 45.2275 70.6882ZM46.6372 76.1661L46.4919 76.4763C46.3034 76.8926 46.0246 77.2538 45.7026 77.619C45.3846 77.9842 44.984 78.318 44.6188 78.8088C44.5207 78.9149 44.45 79.0719 44.3714 79.2055C44.2851 79.339 44.2379 79.496 44.1869 79.6531L44.1162 79.8887L44.0926 80.1283C44.0848 80.2853 44.0455 80.4503 44.073 80.5956C44.0809 80.6584 44.0848 80.7173 44.0926 80.7801C43.378 77.7408 45.3649 77.9214 46.6883 76.0169L46.6372 76.1661Z" fill="#352C38"/>
</g>
<circle cx="70.0002" cy="18" r="4" fill="white"/>
<circle cx="82.0002" cy="18" r="4" fill="white"/>
<circle cx="95.0002" cy="18" r="5" fill="white"/>
</svg>
